<svg xmlns="http://www.w3.org/2000/svg" xmlns:xlink="http://www.w3.org/1999/xlink" width="1920" zoomAndPan="magnify" viewBox="0 0 1440 809.999993" height="1080" preserveAspectRatio="xMidYMid meet" version="1.0"><defs><filter x="0%" y="0%" width="100%" height="100%" id="05d393710e"><feColorMatrix values="0 0 0 0 1 0 0 0 0 1 0 0 0 0 1 0 0 0 1 0" color-interpolation-filters="sRGB"/></filter><mask id="3abc14c173"><g filter="url(#05d393710e)"><rect x="-144" width="1728" fill="#000000" y="-80.999999" height="971.999992" fill-opacity="0.34"/></g></mask><clipPath id="2272c8bd00"><path d="M 0 309 L 240 309 L 240 598 L 0 598 Z M 0 309 " clip-rule="nonzero"/></clipPath><clipPath id="e149f32eab"><path d="M 0 290 L 259 290 L 259 598 L 0 598 Z M 0 290 " clip-rule="nonzero"/></clipPath><clipPath id="72dabb1c03"><path d="M 0 272 L 278 272 L 278 598 L 0 598 Z M 0 272 " clip-rule="nonzero"/></clipPath><clipPath id="d3754ab6f3"><path d="M 0 253 L 297 253 L 297 598 L 0 598 Z M 0 253 " clip-rule="nonzero"/></clipPath><clipPath id="7cd859f4c7"><path d="M 0 235 L 316 235 L 316 598 L 0 598 Z M 0 235 " clip-rule="nonzero"/></clipPath><clipPath id="313e8799f1"><path d="M 0 216 L 335 216 L 335 598 L 0 598 Z M 0 216 " clip-rule="nonzero"/></clipPath><clipPath id="37402af1f7"><path d="M 0 196 L 354 196 L 354 598 L 0 598 Z M 0 196 " clip-rule="nonzero"/></clipPath><clipPath id="c124b66456"><path d="M 0 177 L 373 177 L 373 598 L 0 598 Z M 0 177 " clip-rule="nonzero"/></clipPath><clipPath id="02bb891abb"><path d="M 0 157 L 392 157 L 392 598 L 0 598 Z M 0 157 " clip-rule="nonzero"/></clipPath><clipPath id="2ee39ed473"><path d="M 0 138 L 410 138 L 410 598 L 0 598 Z M 0 138 " clip-rule="nonzero"/></clipPath><clipPath id="b8ee56e8af"><path d="M 0 118 L 429 118 L 429 598 L 0 598 Z M 0 118 " clip-rule="nonzero"/></clipPath><clipPath id="4ff08925fd"><path d="M 0 99 L 448 99 L 448 598 L 0 598 Z M 0 99 " clip-rule="nonzero"/></clipPath><clipPath id="fece36cdac"><path d="M 0 79 L 467 79 L 467 598 L 0 598 Z M 0 79 " clip-rule="nonzero"/></clipPath><clipPath id="9719daba17"><path d="M 0 59 L 486 59 L 486 598 L 0 598 Z M 0 59 " clip-rule="nonzero"/></clipPath><clipPath id="3a50e91d94"><path d="M 0 40 L 505 40 L 505 598 L 0 598 Z M 0 40 " clip-rule="nonzero"/></clipPath><clipPath id="849c6be159"><path d="M 0 20 L 524 20 L 524 598 L 0 598 Z M 0 20 " clip-rule="nonzero"/></clipPath><clipPath id="c7af4e627f"><path d="M 0 1 L 542.914062 1 L 542.914062 598 L 0 598 Z M 0 1 " clip-rule="nonzero"/></clipPath><clipPath id="1ba6cc04b7"><rect x="0" width="544" y="0" height="598"/></clipPath><clipPath id="d851ee7c58"><path d="M 1367.542969 0 L 1440 0 L 1440 324 L 1367.542969 324 Z M 1367.542969 0 " clip-rule="nonzero"/></clipPath></defs><rect x="-144" width="1728" fill="#ffffff" y="-80.999999" height="971.999992" fill-opacity="1"/><rect x="-144" width="1728" fill="#000000" y="-80.999999" height="971.999992" fill-opacity="1"/><g mask="url(#3abc14c173)"><g transform="matrix(1, 0, 0, 1, 0, 212)"><g clip-path="url(#1ba6cc04b7)"><path fill="#2dc449" d="M 126.265625 519.15625 L 122.691406 519.15625 C 112.34375 518.78125 102 517.464844 96.542969 509.9375 C 92.21875 503.730469 92.78125 496.019531 93.535156 488.304688 C 94.097656 481.347656 94.851562 474.386719 91.464844 468.742188 C 89.207031 464.792969 85.257812 462.160156 81.117188 459.335938 C 76.980469 456.515625 72.464844 453.316406 70.019531 448.617188 C 63.4375 436.011719 74.347656 423.785156 82.246094 414.945312 L 83.1875 414.003906 C 89.207031 407.609375 96.542969 402.90625 104.820312 400.273438 C 112.910156 397.074219 121.5625 394.816406 130.214844 393.5 C 136.046875 392.558594 142.253906 392.933594 147.898438 394.816406 C 154.105469 397.261719 158.621094 402.527344 159.371094 408.171875 C 160.125 414.945312 155.796875 420.585938 151.660156 426.042969 C 149.777344 428.488281 148.085938 430.933594 146.394531 433.566406 C 142.441406 440.902344 141.691406 450.496094 144.324219 462.160156 C 145.265625 466.484375 146.582031 470.8125 147.898438 474.949219 C 149.589844 480.21875 151.09375 485.671875 152.222656 491.128906 C 153.730469 499.78125 152.976562 506.175781 149.402344 510.878906 C 144.511719 517.652344 135.671875 519.15625 126.265625 519.15625 Z M 137.363281 395.003906 C 135.105469 395.003906 132.847656 395.191406 130.589844 395.378906 C 122.125 396.507812 113.660156 398.765625 105.574219 401.964844 C 96.167969 405.539062 89.773438 409.488281 84.691406 415.132812 L 83.753906 416.074219 C 76.226562 424.539062 65.695312 436.011719 71.714844 447.488281 C 73.972656 451.8125 77.921875 454.445312 82.246094 457.457031 C 86.574219 460.464844 90.523438 463.101562 93.15625 467.425781 C 96.730469 473.632812 96.167969 480.96875 95.414062 488.117188 C 94.664062 495.640625 94.097656 502.789062 98.050781 508.433594 C 103.128906 515.769531 113.472656 516.523438 122.691406 516.898438 C 132.660156 517.273438 142.820312 516.523438 147.898438 509.5625 C 151.09375 505.234375 151.847656 499.40625 150.34375 491.316406 C 149.214844 485.859375 147.898438 480.59375 146.015625 475.328125 C 144.699219 471.1875 143.382812 466.671875 142.441406 462.347656 C 139.621094 450.308594 140.375 440.152344 144.699219 432.4375 C 146.203125 429.617188 148.085938 427.171875 150.15625 424.539062 C 154.292969 419.269531 158.054688 414.191406 157.492188 407.984375 C 156.925781 402.90625 152.976562 398.390625 147.332031 396.132812 C 144.136719 395.378906 140.75 394.816406 137.363281 395.003906 Z M 137.363281 395.003906 " fill-opacity="1" fill-rule="nonzero"/><path fill="#2dc449" d="M 153.539062 536.273438 C 148.648438 536.085938 143.757812 535.332031 139.054688 534.203125 C 135.292969 533.265625 131.34375 532.699219 127.582031 532.324219 C 122.125 532.136719 116.484375 532.699219 111.027344 533.640625 C 99.554688 535.332031 88.457031 536.839844 80.929688 527.246094 C 74.160156 518.589844 75.851562 507.871094 77.546875 497.335938 C 78.863281 489.8125 79.992188 482.851562 78.109375 476.644531 C 76.417969 470.8125 72.464844 466.484375 68.140625 461.972656 C 64.378906 458.210938 61.179688 454.070312 58.546875 449.742188 C 46.882812 429.050781 56.289062 405.164062 66.632812 394.816406 C 70.960938 390.679688 76.226562 391.429688 81.496094 392.183594 C 84.691406 392.933594 87.890625 392.933594 91.089844 392.558594 C 93.347656 391.996094 95.792969 389.738281 98.425781 387.667969 C 101.246094 385.222656 104.257812 382.589844 107.265625 382.023438 C 112.15625 381.460938 116.859375 381.835938 121.5625 382.964844 C 125.511719 383.90625 129.652344 384.46875 133.789062 384.28125 C 136.234375 384.09375 138.492188 383.53125 140.9375 382.964844 C 146.203125 381.835938 151.472656 380.519531 155.796875 382.402344 C 162.570312 385.410156 166.707031 392.558594 166.707031 401.023438 C 166.707031 407.230469 164.261719 412.875 161.816406 418.140625 C 159.371094 422.84375 157.867188 428.113281 157.113281 433.378906 C 156.175781 442.03125 158.808594 452 161.253906 461.78125 C 161.816406 463.851562 162.382812 465.921875 162.757812 467.800781 C 163.699219 471.941406 163.511719 476.078125 162.195312 480.03125 C 161.066406 483.792969 160.878906 487.742188 161.816406 491.691406 C 162.570312 494.324219 163.511719 497.148438 164.449219 500.15625 C 164.828125 501.472656 165.390625 502.789062 165.769531 504.109375 C 168.777344 513.511719 171.222656 523.859375 165.769531 531.007812 C 163.132812 534.957031 158.621094 536.273438 153.539062 536.273438 Z M 124.949219 530.441406 C 125.890625 530.441406 126.828125 530.441406 127.769531 530.441406 C 131.71875 530.820312 135.671875 531.382812 139.621094 532.324219 C 149.402344 534.394531 159.75 536.460938 165.015625 529.691406 C 169.90625 523.292969 167.648438 513.324219 164.828125 504.484375 C 164.449219 503.167969 163.886719 501.851562 163.511719 500.535156 C 162.570312 497.523438 161.628906 494.703125 160.878906 492.070312 C 159.75 487.929688 159.9375 483.605469 161.253906 479.464844 C 162.382812 475.703125 162.570312 471.753906 161.816406 467.992188 C 161.253906 465.921875 160.878906 464.039062 160.3125 461.972656 C 157.679688 452.191406 155.046875 442.03125 155.984375 433.003906 C 156.738281 427.546875 158.242188 422.28125 160.878906 417.203125 C 163.132812 412.121094 165.578125 406.667969 165.578125 400.835938 C 165.578125 393.125 162.003906 386.726562 155.796875 383.90625 C 152.222656 382.402344 147.144531 383.53125 142.253906 384.660156 C 139.808594 385.222656 137.363281 385.789062 134.730469 385.976562 C 130.402344 386.164062 126.078125 385.597656 121.9375 384.660156 C 117.425781 383.34375 112.910156 383.152344 108.207031 383.71875 C 105.761719 384.09375 102.941406 386.539062 100.304688 388.796875 C 97.671875 391.054688 94.851562 393.5 92.21875 394.0625 C 88.832031 394.628906 85.257812 394.441406 81.871094 393.875 C 76.792969 393.125 72.089844 392.371094 68.515625 395.945312 C 58.546875 405.914062 49.515625 428.863281 60.617188 448.617188 C 63.25 452.941406 66.445312 456.890625 70.019531 460.464844 C 74.347656 465.167969 78.484375 469.683594 80.367188 475.890625 C 82.246094 482.476562 81.117188 490.1875 79.800781 497.523438 C 78.109375 507.492188 76.417969 517.839844 82.8125 525.929688 C 89.585938 534.582031 99.554688 533.265625 111.027344 531.570312 C 115.355469 530.820312 120.058594 530.441406 124.949219 530.441406 Z M 124.949219 530.441406 " fill-opacity="1" fill-rule="nonzero"/><path fill="#2dc449" d="M 171.597656 555.835938 C 165.203125 555.835938 157.867188 553.203125 150.53125 550.570312 C 144.136719 548.3125 137.738281 546.054688 132.097656 545.679688 C 122.878906 545.113281 113.660156 547.371094 104.820312 549.628906 C 89.773438 553.578125 75.664062 557.152344 65.316406 544.550781 C 55.914062 533.265625 59.109375 519.53125 62.308594 506.363281 C 64.1875 498.652344 65.882812 491.316406 65.128906 484.730469 C 64.1875 475.703125 59.675781 469.121094 54.40625 461.40625 C 52.152344 458.210938 49.894531 454.824219 47.449219 450.871094 C 30.328125 422.09375 37.667969 387.480469 50.644531 375.628906 C 56.664062 369.984375 64.566406 373.371094 72.089844 376.570312 C 77.355469 378.828125 82.8125 381.085938 87.515625 380.519531 C 91.089844 380.144531 95.226562 376.003906 98.988281 372.054688 C 102.941406 368.105469 106.324219 364.71875 109.898438 363.589844 C 115.542969 361.898438 120.433594 365.472656 125.136719 369.046875 C 129.085938 372.054688 133.035156 375.066406 137.738281 375.066406 L 137.929688 375.066406 C 141.3125 374.6875 144.699219 373.75 147.898438 372.242188 C 153.730469 369.984375 159.9375 367.730469 164.074219 369.796875 C 171.597656 373.371094 175.363281 382.023438 174.421875 393.5 C 173.667969 399.332031 172.351562 405.164062 170.09375 410.804688 C 169.71875 412.121094 169.152344 413.4375 168.777344 414.566406 C 166.898438 420.585938 166.707031 426.792969 168.023438 432.8125 C 169.71875 440.339844 172.164062 447.675781 175.363281 454.636719 C 177.996094 460.65625 180.0625 466.675781 181.945312 473.070312 C 183.636719 479.839844 180.816406 483.792969 177.996094 487.929688 C 175.171875 491.878906 172.726562 495.265625 174.421875 501.097656 C 175.925781 505.800781 177.617188 510.316406 179.5 514.828125 L 180.253906 516.710938 C 185.332031 529.125 189.847656 542.105469 182.886719 550.757812 C 180.441406 554.144531 176.113281 556.023438 171.597656 555.835938 Z M 129.085938 543.609375 C 130.214844 543.609375 131.34375 543.609375 132.472656 543.796875 C 138.117188 544.175781 144.886719 546.621094 151.285156 548.878906 C 163.132812 553.015625 175.363281 557.34375 181.570312 549.628906 C 187.777344 541.917969 183.636719 529.503906 178.746094 517.464844 L 177.996094 515.582031 C 176.113281 511.066406 174.421875 506.363281 172.917969 501.660156 C 171.035156 494.890625 173.855469 490.75 176.679688 486.800781 C 179.3125 482.851562 181.945312 479.464844 180.253906 473.632812 C 178.558594 467.425781 176.300781 461.40625 173.855469 455.574219 C 170.660156 448.425781 168.214844 441.089844 166.519531 433.378906 C 165.203125 426.984375 165.578125 420.398438 167.460938 414.191406 C 167.835938 413.0625 168.214844 411.746094 168.777344 410.429688 C 170.847656 404.972656 172.164062 399.332031 172.917969 393.5 C 173.480469 387.292969 172.917969 376.003906 163.699219 371.679688 C 160.125 369.984375 154.480469 372.054688 148.839844 374.125 C 145.453125 375.628906 141.878906 376.570312 138.117188 376.945312 C 132.847656 376.945312 128.335938 373.75 124.195312 370.550781 C 119.871094 367.351562 115.542969 363.964844 110.652344 365.472656 C 107.640625 366.410156 103.878906 369.984375 100.496094 373.371094 C 96.355469 377.511719 92.03125 381.835938 87.890625 382.402344 C 82.625 382.964844 76.980469 380.519531 71.527344 378.261719 C 64.191406 375.066406 57.230469 372.242188 52.152344 376.945312 C 40.113281 388.234375 32.964844 422.28125 49.328125 449.933594 C 51.585938 453.882812 54.03125 457.082031 56.101562 460.464844 C 61.554688 468.367188 66.257812 475.328125 67.199219 484.730469 C 67.953125 491.691406 66.070312 499.59375 64.378906 506.929688 C 61.367188 519.71875 58.359375 532.886719 67.011719 543.609375 C 76.605469 555.273438 89.585938 551.886719 104.632812 547.9375 C 112.535156 545.679688 120.808594 543.609375 129.085938 543.609375 Z M 129.085938 543.609375 " fill-opacity="1" fill-rule="nonzero"/><path fill="#2dc449" d="M 188.339844 575.777344 C 180.441406 575.777344 170.847656 571.449219 161.441406 567.125 C 152.976562 563.363281 144.136719 559.410156 137.175781 558.847656 C 124.570312 557.71875 111.96875 561.855469 99.554688 565.808594 C 80.742188 571.828125 63.0625 577.65625 49.894531 561.855469 C 38.042969 547.75 42.746094 531.195312 47.449219 515.207031 C 49.703125 507.304688 51.960938 499.78125 52.152344 492.632812 C 52.527344 478.523438 46.507812 468.554688 37.476562 453.695312 L 36.347656 451.8125 C 14.152344 415.320312 19.796875 369.421875 34.46875 356.066406 C 42.179688 349.105469 52.527344 354.9375 62.683594 360.582031 C 69.832031 364.53125 77.355469 368.667969 83.753906 368.480469 C 88.265625 368.292969 93.535156 362.460938 98.613281 357.007812 C 103.691406 351.550781 108.207031 346.285156 112.910156 345.34375 C 119.117188 344.027344 123.820312 349.671875 128.523438 355.3125 C 132.660156 360.394531 136.988281 365.660156 142.253906 365.660156 C 145.265625 365.660156 150.15625 363.402344 154.667969 361.332031 C 161.441406 358.136719 168.402344 354.9375 172.917969 357.195312 C 181.382812 361.519531 184.578125 371.492188 182.699219 386.164062 C 181.757812 391.617188 180.628906 397.074219 178.933594 402.339844 C 177.996094 405.539062 177.242188 408.546875 176.679688 411.183594 C 175.363281 417.390625 176.300781 424.160156 179.6875 432.625 C 182.507812 439.210938 185.707031 445.605469 189.28125 451.625 C 194.171875 460.65625 199.25 469.871094 201.507812 478.335938 C 203.765625 486.988281 198.875 491.128906 194.171875 495.265625 C 189.46875 499.59375 185.519531 503.167969 187.402344 510.316406 C 189.46875 516.523438 191.914062 522.542969 194.738281 528.5625 L 195.113281 529.3125 C 200.945312 542.105469 209.222656 559.789062 200.378906 570.507812 C 197.183594 574.082031 192.855469 575.964844 188.339844 575.777344 Z M 133.035156 556.777344 C 134.542969 556.777344 135.859375 556.777344 137.175781 556.964844 C 144.511719 557.53125 153.539062 561.480469 162.003906 565.429688 C 176.113281 571.828125 190.785156 578.410156 198.3125 569.382812 C 205.648438 560.351562 199.816406 545.679688 192.667969 530.253906 L 192.292969 529.691406 C 189.28125 523.671875 186.835938 517.464844 184.765625 511.253906 C 182.507812 502.980469 187.398438 498.464844 192.101562 494.324219 C 196.804688 490.1875 200.757812 486.425781 198.875 479.277344 C 196.617188 471 191.539062 461.78125 186.835938 452.941406 C 183.261719 446.734375 180.0625 440.339844 177.242188 433.566406 C 173.667969 424.539062 172.726562 417.578125 174.042969 410.992188 C 174.609375 408.171875 175.550781 405.164062 176.488281 401.964844 C 178.183594 396.699219 179.3125 391.429688 180.253906 385.976562 C 181.570312 376.382812 181.191406 363.964844 171.597656 358.886719 C 168.023438 357.007812 161.441406 360.203125 155.046875 363.027344 C 150.15625 365.285156 145.453125 367.539062 141.878906 367.539062 L 141.691406 367.539062 C 135.480469 367.539062 130.96875 361.898438 126.640625 356.441406 C 122.125 350.988281 117.988281 345.910156 112.910156 347.035156 C 108.769531 347.976562 104.066406 353.246094 99.554688 358.136719 C 94.285156 363.964844 88.832031 369.984375 83.375 370.363281 C 76.417969 370.738281 68.703125 366.414062 61.367188 362.273438 C 51.398438 356.820312 42.179688 351.550781 35.410156 357.570312 L 34.84375 356.820312 L 35.410156 357.570312 C 21.300781 370.363281 15.84375 415.132812 37.664062 450.871094 L 38.792969 452.753906 C 47.824219 467.425781 54.21875 477.960938 53.84375 492.820312 C 53.65625 500.15625 51.398438 508.058594 49.140625 515.769531 C 44.625 531.382812 39.921875 547.371094 51.210938 560.726562 C 63.625 575.589844 79.992188 570.132812 98.988281 564.113281 C 110.085938 560.539062 121.375 556.777344 133.035156 556.777344 Z M 133.035156 556.777344 " fill-opacity="1" fill-rule="nonzero"/><path fill="#2dc449" d="M 204.707031 595.90625 C 195.300781 595.90625 183.449219 589.886719 171.976562 583.867188 C 161.441406 578.410156 150.53125 572.957031 141.878906 572.203125 C 125.699219 570.886719 109.898438 576.71875 94.476562 582.171875 C 71.902344 590.449219 50.644531 598.351562 34.46875 579.351562 C 19.984375 562.421875 26.566406 543.046875 32.964844 524.234375 C 35.785156 516.710938 37.855469 509 39.359375 501.097656 C 41.617188 483.605469 36.160156 470.8125 25.25 453.128906 C -2.777344 407.984375 1.738281 351.738281 18.289062 337.066406 C 27.695312 328.789062 40.675781 337.066406 53.089844 344.96875 C 62.121094 350.800781 71.714844 356.820312 79.800781 356.628906 C 85.445312 356.628906 91.652344 349.105469 97.859375 341.957031 C 103.878906 334.808594 109.898438 327.851562 115.730469 326.910156 C 122.503906 325.78125 127.207031 333.871094 131.910156 341.394531 C 136.234375 348.542969 140.5625 355.878906 146.394531 356.253906 C 149.777344 356.441406 155.421875 353.433594 161.066406 350.421875 C 168.777344 346.285156 176.679688 341.957031 181.382812 344.589844 C 190.785156 349.671875 193.609375 360.769531 190.597656 378.640625 C 189.65625 383.90625 188.339844 388.984375 187.023438 393.875 C 185.707031 398.390625 184.578125 403.09375 183.828125 407.796875 C 182.886719 414.757812 184.953125 422.28125 190.597656 432.625 C 193.796875 438.457031 197.746094 444.289062 202.074219 450.683594 C 209.597656 461.972656 217.496094 473.445312 220.507812 484.167969 C 223.140625 494.136719 216.367188 498.839844 209.785156 503.355469 C 203.203125 507.871094 197.371094 511.820312 199.816406 520.472656 C 202.261719 528.183594 205.457031 535.523438 209.222656 542.667969 C 217.308594 558.847656 227.28125 578.972656 217.308594 591.011719 C 213.734375 594.210938 209.222656 596.09375 204.707031 595.90625 Z M 136.988281 570.132812 C 138.679688 570.132812 140.375 570.132812 142.066406 570.320312 C 151.09375 571.074219 162.003906 576.71875 172.726562 582.359375 C 189.46875 591.011719 206.585938 599.855469 215.242188 589.507812 C 224.269531 578.410156 214.675781 559.035156 206.964844 543.234375 C 203.203125 535.519531 199.25 527.621094 197.371094 520.660156 C 194.738281 510.691406 201.507812 505.988281 208.09375 501.472656 C 214.675781 496.960938 220.320312 493.007812 218.0625 484.355469 C 215.242188 474.011719 207.527344 462.535156 200.003906 451.4375 C 195.675781 445.042969 191.726562 439.023438 188.339844 433.191406 C 184.390625 426.042969 180.0625 416.636719 181.191406 407.230469 C 181.945312 402.527344 183.074219 397.824219 184.390625 393.125 C 185.707031 388.234375 187.023438 383.339844 187.964844 378.074219 C 190.972656 360.957031 188.339844 350.421875 179.6875 345.90625 C 175.925781 343.839844 168.023438 347.976562 161.253906 351.738281 C 155.234375 354.9375 149.589844 357.945312 145.640625 357.945312 C 138.867188 357.570312 134.164062 349.859375 129.652344 342.144531 C 125.136719 334.621094 121 327.660156 115.355469 328.414062 C 110.085938 329.167969 104.257812 336.125 98.613281 342.710938 C 92.21875 350.234375 85.632812 357.945312 79.238281 357.945312 L 79.050781 357.945312 C 70.398438 357.945312 60.804688 351.925781 51.585938 345.910156 C 39.171875 338.007812 27.320312 330.484375 19.042969 337.820312 C 2.867188 351.925781 -1.085938 407.042969 26.378906 451.4375 C 37.289062 468.929688 43.121094 482.664062 40.863281 500.722656 C 39.546875 508.808594 37.289062 516.710938 34.46875 524.234375 C 28.261719 542.480469 21.863281 561.480469 35.597656 577.65625 C 51.023438 595.714844 70.773438 588.378906 93.722656 579.914062 C 107.832031 575.402344 122.125 570.132812 136.988281 570.132812 Z M 136.988281 570.132812 " fill-opacity="1" fill-rule="nonzero"/><g clip-path="url(#2272c8bd00)"><path fill="#2dc449" d="M 220.695312 616.21875 C 209.785156 616.21875 195.863281 608.320312 182.320312 600.796875 C 169.71875 593.835938 156.925781 586.5 146.582031 585.558594 C 127.019531 583.675781 107.832031 591.390625 89.207031 598.726562 C 62.871094 609.261719 37.855469 619.042969 18.480469 596.84375 C 1.359375 577.09375 9.824219 554.707031 17.914062 533.265625 C 21.113281 525.550781 23.746094 517.464844 25.628906 509.375 C 29.578125 490.1875 26.191406 474.761719 13.210938 454.257812 C -19.894531 401.777344 -17.636719 334.246094 1.171875 318.066406 L 1.738281 318.820312 L 1.171875 318.066406 C 12.273438 308.476562 27.695312 319.007812 42.558594 329.355469 C 53.65625 336.878906 64.941406 344.78125 74.722656 344.96875 L 74.910156 344.96875 C 81.496094 344.96875 88.832031 335.9375 95.980469 327.285156 C 103.316406 318.257812 110.277344 309.792969 117.425781 309.039062 C 124.570312 308.285156 129.273438 318.066406 134.164062 328.226562 C 138.492188 337.441406 143.007812 347.035156 149.402344 347.414062 C 153.164062 347.601562 159.75 343.839844 166.144531 339.890625 C 174.796875 334.808594 183.636719 329.542969 188.527344 332.363281 C 201.882812 339.890625 199.816406 358.324219 197.183594 371.679688 C 196.242188 376.570312 194.925781 381.273438 193.796875 385.976562 C 191.914062 392.183594 190.597656 398.390625 189.847656 404.785156 C 189.28125 412.5 192.480469 420.964844 200.566406 432.8125 C 204.519531 438.644531 209.03125 444.476562 213.921875 450.683594 C 224.269531 463.851562 234.992188 477.394531 238.378906 489.8125 C 241.574219 501.285156 232.734375 506.175781 224.269531 511.066406 C 215.804688 515.957031 208.28125 520.097656 211.101562 530.253906 C 213.171875 537.96875 218.0625 547.371094 222.386719 555.648438 C 232.546875 575.402344 244.210938 597.785156 233.109375 610.953125 C 230.476562 614.339844 225.585938 616.40625 220.695312 616.21875 Z M 140.75 583.300781 C 142.820312 583.300781 144.699219 583.300781 146.769531 583.488281 C 157.304688 584.429688 170.46875 591.765625 183.074219 598.914062 C 202.261719 609.636719 222.011719 620.921875 231.792969 609.070312 C 242.140625 596.65625 230.851562 575.023438 220.882812 555.835938 C 216.558594 547.371094 211.667969 537.96875 209.410156 530.066406 C 206.398438 518.589844 215.050781 513.699219 223.515625 508.808594 C 231.980469 503.917969 239.507812 499.78125 236.683594 489.8125 C 233.300781 477.773438 222.765625 464.226562 212.417969 451.25 C 207.527344 445.042969 202.824219 439.210938 198.875 433.378906 C 193.042969 424.726562 187.210938 414.566406 187.777344 404.222656 C 188.527344 397.636719 189.847656 391.242188 191.726562 385.035156 C 192.855469 380.519531 194.171875 375.628906 195.113281 370.925781 C 199.25 350.800781 196.804688 338.949219 187.398438 333.679688 C 183.449219 331.425781 174.609375 336.691406 166.898438 341.207031 C 159.9375 345.34375 153.351562 349.292969 149.027344 348.917969 C 141.691406 348.355469 136.988281 338.382812 132.285156 328.601562 C 127.957031 319.386719 123.445312 309.792969 117.425781 310.542969 C 111.027344 311.109375 104.070312 319.761719 97.296875 328.226562 C 89.585938 337.632812 82.246094 346.660156 74.722656 346.660156 L 74.535156 346.660156 C 64.1875 346.472656 52.527344 338.570312 41.238281 330.859375 C 26.191406 320.515625 12.082031 310.921875 2.113281 319.386719 C -16.320312 335.1875 -18.015625 401.589844 14.527344 453.316406 C 27.695312 474.199219 31.269531 490 27.132812 509.75 C 25.0625 518.027344 22.429688 526.117188 19.230469 533.828125 C 11.144531 554.898438 2.867188 576.71875 19.417969 595.527344 C 37.855469 616.785156 60.992188 607.566406 87.890625 596.84375 C 105.574219 590.261719 122.878906 583.300781 140.75 583.300781 Z M 140.75 583.300781 " fill-opacity="1" fill-rule="nonzero"/></g><g clip-path="url(#e149f32eab)"><path fill="#2dc449" d="M 236.871094 636.535156 C 224.457031 636.535156 208.46875 626.941406 192.855469 617.535156 C 178.371094 608.882812 163.324219 599.855469 151.660156 598.726562 C 128.710938 596.65625 106.136719 605.875 84.503906 615.089844 C 54.21875 627.695312 25.628906 639.734375 3.242188 614.152344 C -16.507812 591.578125 -6.164062 566.371094 3.996094 541.917969 C 7.570312 534.015625 10.578125 525.738281 13.023438 517.464844 C 19.230469 494.703125 16.035156 476.832031 2.488281 455.386719 C -36.636719 394.0625 -35.882812 316.75 -14.628906 298.882812 C -1.835938 287.972656 16.222656 300.949219 33.527344 313.554688 C 46.507812 322.960938 59.863281 332.550781 71.335938 332.929688 L 71.527344 332.929688 C 78.863281 332.929688 86.949219 322.394531 94.851562 312.046875 C 103.691406 300.386719 112.15625 289.476562 120.808594 290.605469 C 128.335938 291.546875 132.847656 302.832031 137.550781 314.496094 C 142.066406 325.78125 146.769531 337.253906 153.730469 338.007812 C 157.867188 338.382812 165.390625 333.679688 172.726562 328.976562 C 182.699219 322.582031 192.101562 316.75 197.371094 319.761719 C 211.476562 327.851562 209.222656 346.847656 205.457031 364.15625 C 204.519531 368.667969 203.203125 373.183594 202.074219 377.511719 C 199.816406 386.164062 197.558594 394.441406 197.371094 401.210938 C 197.183594 411.933594 204.519531 423.03125 211.855469 432.4375 C 216.371094 438.269531 221.636719 444.289062 227.089844 450.496094 C 240.257812 465.546875 253.804688 480.78125 257.753906 494.890625 C 261.515625 507.871094 250.792969 513.136719 240.445312 518.214844 C 230.101562 523.292969 220.882812 527.808594 223.894531 539.285156 C 226.152344 547.371094 231.042969 557.152344 237.0625 567.875 L 237.4375 568.628906 C 249.289062 590.636719 262.832031 615.65625 250.605469 630.328125 C 247.03125 634.464844 241.953125 636.722656 236.871094 636.535156 Z M 144.886719 596.65625 C 147.144531 596.65625 149.589844 596.84375 151.847656 597.03125 C 163.886719 598.160156 179.125 607.191406 193.796875 616.03125 C 215.429688 629.011719 238 642.367188 249.101562 629.386719 C 260.574219 615.65625 247.40625 591.390625 235.746094 569.757812 L 235.367188 569.003906 C 229.160156 557.53125 224.457031 548.3125 222.011719 539.847656 C 218.4375 526.867188 229.160156 521.601562 239.507812 516.523438 C 249.851562 511.445312 259.070312 506.929688 255.871094 495.453125 C 251.921875 481.722656 238.566406 466.484375 225.585938 451.8125 C 220.320312 445.792969 214.863281 439.585938 210.160156 433.566406 C 202.636719 423.972656 194.925781 412.5 195.113281 401.023438 C 195.300781 394.0625 197.558594 385.789062 199.816406 376.945312 C 200.945312 372.621094 202.074219 368.105469 203.203125 363.589844 C 206.964844 346.847656 209.03125 328.601562 196.054688 321.265625 C 191.726562 318.820312 182.132812 325.027344 173.480469 330.484375 C 165.578125 335.5625 158.054688 340.265625 153.351562 339.890625 C 145.265625 339.136719 140.375 326.910156 135.671875 315.246094 C 131.34375 304.523438 126.828125 293.238281 120.433594 292.484375 C 112.910156 291.546875 104.445312 302.644531 96.355469 313.175781 C 87.890625 324.277344 79.800781 334.808594 71.527344 334.808594 L 71.335938 334.808594 C 59.296875 334.433594 45.566406 324.652344 32.398438 315.058594 C 14.90625 302.265625 -1.648438 290.417969 -13.3125 300.386719 C -33.4375 317.503906 -33.816406 395.003906 4.183594 454.636719 C 18.101562 476.644531 21.300781 495.078125 14.90625 518.214844 C 12.460938 526.679688 9.261719 534.957031 5.875 543.046875 C -4.09375 566.9375 -14.25 591.578125 4.746094 613.210938 C 26.191406 637.664062 52.902344 626.566406 83.753906 613.585938 C 103.316406 605.121094 123.632812 596.65625 144.886719 596.65625 Z M 144.886719 596.65625 " fill-opacity="1" fill-rule="nonzero"/></g><g clip-path="url(#72dabb1c03)"><path fill="#2dc449" d="M 252.675781 656.851562 C 238.753906 656.851562 220.695312 645.566406 203.011719 634.277344 C 186.460938 623.933594 169.53125 613.210938 156.363281 612.082031 C 129.839844 609.636719 104.257812 620.734375 79.238281 631.457031 C 45.003906 646.316406 12.835938 660.238281 -12.558594 631.457031 C -35.132812 605.875 -22.527344 577.847656 -10.488281 550.570312 C -6.726562 542.480469 -3.339844 534.015625 -0.332031 525.550781 C 8.132812 499.214844 5.5 479.089844 -9.171875 456.328125 C -53.378906 387.480469 -54.320312 298.691406 -31.371094 279.507812 C -16.695312 267.277344 2.679688 281.953125 23.371094 297.566406 C 38.230469 308.851562 53.65625 320.324219 66.824219 320.890625 C 75.289062 321.265625 84.503906 308.851562 93.535156 296.8125 C 103.691406 283.269531 113.097656 270.664062 122.878906 272.167969 C 130.96875 273.488281 135.484375 286.652344 140.375 300.574219 C 145.074219 313.929688 149.777344 327.660156 157.304688 328.601562 C 161.628906 329.167969 170.28125 323.523438 178.371094 317.878906 C 189.28125 310.542969 199.628906 303.773438 205.082031 306.96875 C 219.941406 315.8125 217.496094 335.9375 212.605469 356.628906 C 211.667969 360.957031 210.351562 365.09375 209.410156 369.234375 C 206.585938 379.769531 203.765625 389.925781 203.953125 397.824219 C 204.140625 409.675781 213.359375 421.902344 222.386719 432.4375 C 227.65625 438.457031 233.675781 444.851562 239.695312 451.0625 C 255.496094 467.613281 271.859375 484.921875 276.375 500.34375 C 280.515625 514.828125 267.910156 520.285156 255.683594 525.738281 C 243.457031 531.195312 232.359375 536.085938 235.933594 549.066406 C 238.378906 558.09375 244.210938 568.816406 250.980469 581.042969 L 251.734375 582.546875 C 265.277344 607.003906 280.703125 634.65625 267.160156 650.644531 C 263.585938 654.59375 258.316406 657.039062 252.675781 656.851562 Z M 148.648438 609.824219 C 151.285156 609.824219 153.917969 610.011719 156.550781 610.199219 C 170.09375 611.515625 187.210938 622.238281 203.953125 632.773438 C 228.21875 648.011719 253.238281 663.625 265.652344 649.140625 C 278.445312 634.089844 263.394531 607.191406 250.039062 583.300781 L 249.289062 581.796875 C 242.515625 569.570312 236.683594 558.660156 234.238281 549.441406 C 230.289062 534.957031 242.890625 529.3125 255.121094 524.046875 C 267.347656 518.78125 278.445312 513.890625 274.683594 500.910156 C 270.355469 485.671875 253.992188 468.742188 238.378906 452.378906 C 232.359375 446.171875 226.339844 439.773438 221.070312 433.566406 C 211.855469 422.84375 202.449219 410.242188 202.261719 397.828125 C 202.074219 389.550781 204.894531 379.390625 207.714844 368.667969 C 208.84375 364.53125 209.972656 360.394531 210.914062 356.066406 C 215.617188 336.316406 218.0625 316.75 204.332031 308.476562 C 199.816406 305.839844 189.09375 312.988281 179.6875 319.386719 C 170.847656 325.40625 162.382812 330.859375 157.304688 330.296875 C 148.648438 329.355469 143.949219 315.621094 138.867188 301.136719 C 134.355469 288.347656 129.839844 274.992188 122.878906 273.863281 C 114.414062 272.546875 104.632812 285.335938 95.414062 297.753906 C 85.632812 310.730469 76.605469 322.960938 67.011719 322.582031 C 53.277344 322.019531 37.667969 310.167969 22.617188 298.882812 C 2.488281 283.832031 -16.320312 269.535156 -29.863281 280.824219 C -52.4375 299.632812 -51.121094 387.105469 -7.292969 455.199219 C 7.757812 478.523438 10.390625 499.027344 1.738281 526.117188 C -1.273438 534.769531 -4.660156 543.046875 -8.421875 551.324219 C -20.269531 578.035156 -32.6875 605.496094 -10.867188 630.140625 C 13.589844 657.792969 43.6875 644.625 78.671875 629.574219 C 101.058594 619.980469 124.382812 609.824219 148.648438 609.824219 Z M 148.648438 609.824219 " fill-opacity="1" fill-rule="nonzero"/></g><g clip-path="url(#d3754ab6f3)"><path fill="#2dc449" d="M 268.476562 677.167969 C 253.238281 677.167969 232.921875 664 213.171875 651.207031 C 194.738281 639.167969 175.550781 626.753906 161.066406 625.4375 C 131.15625 622.617188 102.1875 635.40625 74.160156 648.011719 C 36.160156 664.941406 0.234375 680.929688 -28.171875 649.140625 C -53.378906 620.734375 -38.707031 589.695312 -24.597656 559.789062 C -20.648438 551.324219 -16.507812 542.480469 -13.3125 534.015625 C -5.410156 512.195312 -0.894531 487.929688 -20.269531 457.644531 C -70.308594 379.957031 -72.566406 281.386719 -47.359375 260.507812 C -30.992188 246.964844 -9.171875 263.894531 14.152344 281.953125 C 30.894531 294.929688 48.199219 308.285156 62.871094 309.226562 C 72.277344 309.601562 82.8125 295.496094 92.96875 281.761719 C 104.257812 266.527344 114.980469 252.042969 125.699219 253.921875 C 134.164062 255.429688 138.867188 270.664062 143.757812 286.84375 C 148.460938 302.265625 153.351562 318.257812 161.253906 319.386719 C 165.957031 319.949219 175.363281 313.554688 184.578125 307.15625 C 196.429688 298.882812 207.714844 290.980469 213.359375 294.554688 C 229.160156 304.148438 226.152344 326.53125 220.320312 349.292969 C 219.378906 353.246094 218.25 357.195312 217.121094 361.144531 C 213.734375 373.558594 210.539062 385.410156 210.914062 394.628906 C 211.476562 407.609375 222.578125 420.964844 233.300781 432.4375 C 239.128906 438.832031 245.902344 445.417969 252.484375 451.8125 C 271.109375 470.058594 290.296875 488.871094 295.1875 505.988281 C 299.890625 521.976562 285.40625 527.808594 271.296875 533.453125 C 257.1875 539.09375 244.210938 544.363281 248.160156 558.660156 C 250.792969 568.628906 257.375 580.480469 264.902344 593.835938 L 266.21875 596.09375 C 281.453125 622.804688 298.574219 653.089844 283.898438 670.394531 C 279.949219 674.910156 274.304688 677.355469 268.476562 677.167969 Z M 152.414062 622.992188 C 155.421875 622.992188 158.433594 623.179688 161.253906 623.367188 C 176.300781 624.871094 195.488281 637.289062 214.113281 649.515625 C 241.011719 666.820312 268.664062 684.878906 282.394531 668.890625 C 296.316406 652.523438 279.386719 622.804688 264.523438 596.65625 L 263.207031 594.398438 C 255.496094 580.855469 249.101562 569.003906 246.277344 558.660156 C 241.953125 542.667969 256.4375 536.839844 270.542969 531.195312 C 284.652344 525.550781 297.445312 520.472656 293.304688 505.988281 C 288.414062 489.433594 269.414062 470.8125 250.980469 452.753906 C 244.398438 446.359375 237.625 439.585938 231.792969 433.191406 C 220.882812 421.527344 209.597656 407.609375 209.03125 394.0625 C 208.65625 384.46875 211.855469 372.621094 215.242188 360.015625 C 216.367188 356.253906 217.308594 352.304688 218.4375 348.355469 C 224.832031 322.769531 226.339844 303.960938 212.230469 295.683594 C 207.527344 292.863281 195.675781 300.949219 185.332031 308.285156 C 175.550781 315.058594 166.144531 321.640625 160.6875 320.890625 C 151.660156 319.761719 146.769531 303.773438 141.691406 287.03125 C 137.175781 272.167969 132.472656 256.746094 125.136719 255.429688 C 115.542969 253.734375 104.820312 268.21875 94.285156 282.515625 C 83.375 297.375 73.21875 311.296875 62.683594 310.730469 C 47.257812 309.792969 29.765625 296.246094 12.648438 283.078125 C -9.925781 265.585938 -31.371094 249.03125 -46.417969 261.636719 C -59.023438 271.980469 -64.289062 301.515625 -60.148438 338.761719 C -55.636719 379.769531 -40.585938 422.65625 -18.765625 456.328125 C 1.171875 487.175781 -3.53125 512.007812 -11.617188 534.394531 C -14.816406 542.859375 -18.953125 551.699219 -22.90625 560.164062 C -36.824219 589.507812 -51.121094 619.980469 -26.855469 647.445312 C 0.609375 678.296875 34.28125 663.246094 73.40625 645.941406 C 98.988281 634.84375 125.324219 622.992188 152.414062 622.992188 Z M 152.414062 622.992188 " fill-opacity="1" fill-rule="nonzero"/></g><g clip-path="url(#7cd859f4c7)"><path fill="#2dc449" d="M 284.464844 697.484375 C 267.722656 697.484375 245.335938 682.621094 223.515625 667.949219 C 203.011719 654.40625 181.945312 640.296875 165.957031 638.605469 C 132.660156 635.21875 100.496094 650.078125 69.269531 664.1875 C 27.320312 683.375 -12.183594 701.433594 -43.597656 666.257812 C -71.625 635.03125 -54.882812 601.171875 -38.519531 568.441406 C -34.191406 559.789062 -29.675781 550.757812 -26.289062 542.105469 C -16.695312 517.839844 -10.675781 490.941406 -31.558594 458.585938 C -55.824219 421.152344 -72.941406 373.558594 -78.398438 327.851562 C -83.476562 285.902344 -77.832031 252.792969 -63.722656 241.132812 C -45.664062 226.269531 -21.398438 245.457031 4.371094 265.960938 C 23.183594 280.824219 42.367188 296.058594 58.734375 297 C 69.269531 297.753906 80.929688 281.761719 92.03125 266.339844 C 104.445312 249.21875 116.296875 233.042969 128.144531 235.488281 C 137.175781 237.371094 141.878906 254.675781 146.957031 272.921875 C 151.847656 290.417969 156.738281 308.664062 165.203125 309.980469 C 170.28125 310.730469 180.628906 303.394531 190.597656 296.058594 C 203.390625 286.84375 215.617188 278 221.636719 281.761719 C 239.316406 292.671875 234.238281 318.445312 228.03125 341.582031 C 227.089844 345.34375 225.960938 348.917969 225.023438 352.492188 C 221.070312 366.789062 217.121094 380.332031 218.0625 390.867188 C 219.191406 404.785156 231.980469 419.457031 244.210938 432.0625 C 250.792969 438.644531 258.316406 445.605469 265.464844 452.378906 C 286.722656 472.128906 308.730469 492.632812 314.183594 511.066406 C 319.265625 528.5625 302.898438 534.582031 287.097656 540.601562 C 271.296875 546.621094 256.246094 552.074219 260.574219 567.875 C 263.585938 578.785156 271.109375 592.332031 279.195312 606.4375 L 280.890625 609.449219 C 297.820312 638.417969 316.820312 671.335938 300.828125 690.148438 C 296.691406 695.039062 290.671875 697.671875 284.464844 697.484375 Z M 156.363281 636.347656 C 159.558594 636.347656 162.945312 636.535156 166.144531 636.910156 C 182.699219 638.605469 203.953125 652.714844 224.644531 666.445312 C 253.992188 686.007812 284.464844 706.324219 299.324219 689.019531 C 314.5625 671.335938 295.75 638.980469 279.195312 610.578125 L 277.503906 607.753906 C 269.226562 593.648438 261.703125 579.914062 258.695312 568.816406 C 253.992188 551.324219 270.355469 545.113281 286.34375 539.285156 C 302.335938 533.265625 317.007812 527.996094 312.304688 512.007812 C 307.039062 493.949219 285.214844 473.820312 264.148438 454.070312 C 256.8125 447.296875 249.476562 440.339844 242.890625 433.753906 C 230.289062 420.964844 217.308594 406.101562 216.179688 391.429688 C 215.429688 380.519531 219.191406 366.976562 223.328125 352.492188 C 224.269531 348.917969 225.398438 345.15625 226.339844 341.582031 C 232.359375 319.007812 237.25 293.992188 220.695312 283.832031 C 215.804688 280.824219 203.011719 289.851562 191.726562 297.941406 C 181.003906 305.652344 170.847656 312.988281 165.015625 312.046875 C 155.421875 310.542969 150.53125 292.671875 145.265625 273.675781 C 140.5625 256.746094 135.859375 239.25 127.957031 237.558594 C 117.234375 235.488281 105.386719 251.855469 93.722656 267.65625 C 81.683594 284.207031 70.398438 299.820312 58.734375 299.070312 C 41.617188 297.941406 22.054688 282.515625 3.242188 267.65625 C -21.964844 247.714844 -45.664062 228.90625 -62.40625 242.824219 L -62.972656 242.074219 L -62.40625 242.824219 C -88.742188 264.457031 -84.417969 373.9375 -29.863281 457.832031 C -8.421875 490.75 -14.628906 518.214844 -24.410156 543.046875 C -27.984375 551.886719 -32.308594 560.917969 -36.636719 569.570312 C -52.625 601.734375 -69.179688 635.03125 -42.09375 665.316406 C -11.617188 699.363281 25.628906 682.433594 68.703125 662.871094 C 96.730469 649.703125 126.078125 636.347656 156.363281 636.347656 Z M 156.363281 636.347656 " fill-opacity="1" fill-rule="nonzero"/></g><g clip-path="url(#313e8799f1)"><path fill="#2dc449" d="M 300.265625 717.796875 C 282.019531 717.796875 257.566406 701.058594 233.863281 684.878906 C 211.476562 669.644531 188.339844 653.839844 170.847656 651.960938 C 134.164062 648.199219 98.613281 664.75 64.378906 680.742188 C 18.667969 701.996094 -24.597656 722.125 -59.210938 683.75 C -89.871094 649.515625 -70.871094 612.835938 -52.625 577.46875 C -48.109375 568.628906 -43.21875 559.410156 -39.457031 550.382812 C -27.984375 523.671875 -20.460938 494.136719 -42.84375 459.714844 C -99.464844 372.808594 -112.257812 248.09375 -80.089844 221.945312 C -60.339844 205.765625 -33.628906 227.398438 -5.222656 250.160156 C 15.46875 266.714844 36.726562 284.019531 54.785156 285.148438 C 66.257812 285.902344 79.050781 268.21875 91.464844 251.289062 C 105.195312 232.289062 117.988281 214.421875 130.96875 217.242188 C 140.375 219.3125 145.265625 238.6875 150.34375 259.191406 C 155.234375 278.941406 160.3125 299.257812 169.152344 300.761719 C 174.609375 301.703125 185.894531 293.238281 196.617188 285.335938 C 210.347656 275.179688 223.515625 265.585938 229.914062 269.535156 C 248.535156 281.199219 243.082031 308.097656 235.746094 334.621094 C 234.804688 338.007812 233.863281 341.394531 232.921875 344.78125 C 228.21875 360.957031 223.894531 376.195312 225.023438 388.042969 C 226.527344 403.09375 241.011719 418.894531 255.121094 432.4375 C 262.265625 439.398438 270.542969 446.734375 278.445312 453.695312 C 302.523438 474.949219 327.164062 497.148438 333.183594 516.898438 C 338.828125 535.898438 320.394531 542.292969 302.710938 548.5 C 285.027344 554.707031 268.285156 560.539062 272.988281 577.847656 C 276.1875 589.695312 284.464844 604.371094 293.492188 619.605469 L 295.5625 623.179688 C 314.9375 656.097656 335.066406 690.148438 317.757812 710.273438 C 313.058594 715.164062 306.847656 717.988281 300.265625 717.796875 Z M 160.125 649.515625 C 163.699219 649.515625 167.273438 649.703125 170.847656 650.078125 C 188.71875 651.960938 212.230469 667.761719 234.617188 683.1875 C 266.59375 705.007812 299.699219 727.582031 315.878906 708.769531 C 332.054688 689.957031 311.738281 654.78125 293.492188 623.933594 L 291.425781 620.359375 C 282.394531 604.933594 274.117188 590.261719 270.730469 578.035156 C 265.652344 559.035156 283.898438 552.453125 301.769531 546.433594 C 319.640625 540.414062 336.007812 534.394531 330.925781 517.273438 C 325.285156 497.898438 300.640625 475.890625 276.75 454.824219 C 268.851562 447.863281 260.574219 440.527344 253.425781 433.566406 C 239.128906 419.835938 224.269531 403.65625 222.765625 388.042969 C 221.636719 376.003906 225.960938 360.582031 230.664062 344.214844 C 231.605469 340.828125 232.546875 337.445312 233.488281 334.058594 C 240.636719 308.285156 245.902344 282.140625 228.40625 271.042969 C 223.140625 267.65625 209.410156 277.8125 197.371094 286.84375 C 185.707031 295.496094 174.609375 303.773438 168.402344 302.644531 C 158.242188 300.949219 153.351562 281.011719 148.085938 259.753906 C 143.382812 240.753906 138.492188 221.003906 130.214844 219.125 C 118.554688 216.488281 105.386719 234.734375 92.59375 252.417969 C 79.800781 270.101562 67.011719 287.972656 54.40625 287.03125 C 35.597656 285.714844 14.152344 268.40625 -6.726562 251.664062 C -34.378906 229.28125 -60.527344 208.402344 -79.148438 223.449219 C -107.554688 246.773438 -101.910156 366.410156 -41.527344 458.773438 C -18.578125 493.949219 -26.289062 523.859375 -37.953125 551.132812 C -41.902344 560.164062 -46.605469 569.382812 -51.121094 578.222656 C -69.179688 613.210938 -87.800781 649.328125 -58.082031 682.433594 C -24.597656 719.679688 16.222656 700.867188 63.25 679.046875 C 94.664062 664.5625 126.828125 649.515625 160.125 649.515625 Z M 160.125 649.515625 " fill-opacity="1" fill-rule="nonzero"/></g><g clip-path="url(#37402af1f7)"><path fill="#2dc449" d="M 316.066406 738.113281 C 296.503906 738.113281 269.980469 719.679688 244.019531 701.621094 C 219.566406 684.691406 194.359375 667.007812 175.550781 665.128906 C 135.292969 660.988281 96.542969 679.234375 59.109375 696.917969 C 9.449219 720.433594 -37.390625 742.441406 -74.824219 700.867188 C -108.117188 663.8125 -87.050781 624.308594 -66.546875 586.121094 C -61.65625 577.09375 -56.574219 567.6875 -52.4375 558.46875 C -39.269531 529.3125 -30.242188 497.148438 -54.128906 460.65625 C -83.289062 416.261719 -104.167969 359.453125 -111.691406 305.089844 C -118.464844 255.050781 -112.632812 215.738281 -96.457031 202.570312 C -75.011719 185.074219 -45.855469 208.964844 -15.003906 234.171875 C 7.570312 252.605469 30.707031 271.417969 50.644531 273.109375 C 63.25 274.050781 77.167969 254.675781 90.523438 235.863281 C 105.386719 215.171875 119.492188 195.421875 133.414062 198.808594 C 143.382812 201.253906 148.273438 222.507812 153.351562 245.269531 C 158.242188 267.089844 163.511719 289.664062 172.917969 291.355469 C 178.558594 292.296875 190.785156 283.078125 202.636719 274.238281 C 217.496094 263.140625 231.417969 252.417969 238 256.746094 C 257.753906 269.347656 251.546875 298.316406 243.269531 326.910156 C 242.328125 330.296875 241.386719 333.492188 240.445312 336.878906 C 235.367188 354.75 230.476562 371.492188 231.980469 384.28125 C 233.863281 400.460938 250.230469 417.390625 266.03125 432.0625 C 273.929688 439.398438 282.960938 447.109375 291.425781 454.445312 C 318.136719 477.207031 345.789062 500.910156 351.996094 522.164062 C 358.015625 542.667969 337.886719 549.253906 318.324219 555.648438 C 298.761719 562.042969 280.136719 568.253906 285.214844 587.0625 C 288.601562 599.855469 297.632812 615.65625 307.414062 632.210938 L 310.046875 636.535156 C 331.113281 671.898438 352.9375 708.582031 334.5 729.835938 C 329.796875 735.292969 323.027344 738.300781 316.066406 738.113281 Z M 163.886719 662.683594 C 167.835938 662.683594 171.789062 662.871094 175.738281 663.246094 C 195.113281 665.128906 220.507812 682.808594 245.148438 699.929688 C 279.574219 724.007812 315.3125 748.648438 332.808594 728.519531 C 350.300781 708.394531 327.917969 670.582031 308.164062 637.289062 L 305.53125 632.960938 C 295.75 616.40625 286.722656 600.417969 282.960938 587.4375 C 277.316406 566.746094 297.632812 560.164062 317.382812 553.578125 C 336.945312 546.996094 355.382812 540.976562 349.925781 522.355469 C 343.71875 501.660156 316.441406 478.148438 289.917969 455.574219 C 281.265625 448.238281 272.425781 440.527344 264.335938 433.191406 C 248.347656 418.328125 231.792969 401.023438 229.726562 384.46875 C 228.03125 371.304688 233.109375 354.183594 238.191406 336.316406 C 239.128906 332.929688 240.070312 329.730469 241.011719 326.34375 C 248.910156 298.316406 255.121094 270.101562 236.496094 258.25 C 231.042969 254.675781 216.179688 265.960938 203.203125 275.742188 C 190.597656 285.335938 178.558594 294.367188 171.976562 293.238281 C 161.253906 291.355469 156.363281 269.160156 150.90625 245.835938 C 146.015625 224.765625 141.125 202.945312 132.285156 200.6875 C 119.679688 197.679688 105.195312 217.617188 91.464844 236.992188 C 77.546875 256.367188 63.625 275.933594 49.894531 274.992188 C 29.390625 273.488281 6.0625 254.300781 -16.695312 235.675781 C -46.984375 211.035156 -75.574219 187.710938 -95.890625 204.074219 C -111.691406 216.867188 -117.148438 255.429688 -110.375 304.902344 C -102.851562 359.074219 -82.160156 415.507812 -53.191406 459.714844 C -28.734375 496.960938 -37.953125 529.503906 -51.308594 559.222656 C -55.449219 568.441406 -60.527344 577.847656 -65.417969 587.0625 C -85.542969 624.683594 -106.425781 663.625 -73.882812 699.738281 C -37.390625 740.371094 6.816406 719.492188 57.980469 695.226562 C 92.21875 679.425781 127.394531 662.683594 163.886719 662.683594 Z M 163.886719 662.683594 " fill-opacity="1" fill-rule="nonzero"/></g><g clip-path="url(#c124b66456)"><path fill="#2dc449" d="M 331.867188 758.429688 C 310.800781 758.429688 282.207031 738.300781 254.367188 718.550781 C 228.03125 699.929688 200.757812 680.742188 180.441406 678.671875 C 136.800781 674.15625 94.851562 694.285156 54.21875 713.660156 C 0.609375 739.242188 -49.804688 763.507812 -90.246094 718.550781 C -126.363281 678.671875 -103.039062 636.347656 -80.277344 595.339844 C -75.199219 585.933594 -69.933594 576.339844 -65.230469 566.9375 C -50.179688 535.332031 -39.644531 500.722656 -65.230469 462.160156 C -96.644531 414.191406 -119.59375 352.867188 -128.058594 294.179688 C -135.769531 240.003906 -129.9375 197.867188 -112.445312 183.757812 L -111.878906 184.511719 L -112.820312 183.570312 C -89.496094 164.761719 -58.082031 190.90625 -24.597656 218.558594 C -0.144531 238.6875 24.875 259.566406 46.507812 261.257812 C 60.238281 262.386719 75.101562 241.320312 89.773438 220.816406 C 105.761719 198.242188 121 176.800781 136.046875 180.5625 C 146.582031 183.195312 151.472656 206.707031 156.738281 231.539062 C 161.816406 255.429688 166.898438 280.257812 176.867188 282.140625 C 182.886719 283.269531 196.054688 273.109375 208.65625 263.328125 C 224.457031 251.101562 239.316406 239.628906 246.277344 244.140625 C 266.96875 257.496094 260.386719 287.40625 251.167969 319.386719 C 250.230469 322.394531 249.289062 325.59375 248.535156 328.601562 C 242.703125 348.355469 237.25 366.789062 239.128906 380.894531 C 241.574219 398.203125 259.632812 416.449219 277.128906 431.875 C 285.78125 439.585938 295.375 447.675781 304.78125 455.386719 C 334.125 479.839844 364.410156 504.859375 371.183594 527.433594 C 377.765625 549.441406 355.570312 556.402344 334.3125 563.171875 C 312.867188 569.945312 292.363281 576.339844 297.820312 596.65625 C 301.582031 610.578125 311.363281 627.507812 321.898438 645 L 324.90625 650.078125 C 347.667969 687.890625 371.371094 727.015625 351.617188 749.777344 C 346.351562 755.609375 339.203125 758.617188 331.867188 758.429688 Z M 167.648438 676.039062 C 171.976562 676.039062 176.300781 676.226562 180.441406 676.601562 C 201.320312 678.671875 228.785156 698.046875 255.308594 716.859375 C 292.363281 743.191406 330.738281 770.28125 349.550781 748.648438 C 368.359375 727.015625 345.222656 688.453125 322.648438 651.019531 L 319.640625 645.941406 C 308.917969 628.257812 299.136719 611.140625 295.375 597.222656 C 289.355469 575.210938 311.550781 568.0625 333.183594 561.292969 C 354.816406 554.519531 374.945312 548.125 368.925781 527.996094 C 362.339844 505.988281 332.242188 480.96875 303.085938 456.703125 C 293.679688 448.992188 284.089844 440.902344 275.433594 433.191406 C 257.753906 417.390625 239.507812 398.953125 237.0625 381.085938 C 234.992188 366.601562 240.636719 347.789062 246.464844 328.039062 C 247.40625 325.027344 248.347656 322.019531 249.101562 318.820312 C 258.316406 287.40625 264.714844 258.25 245.148438 245.644531 C 239.316406 241.882812 223.707031 254.109375 209.785156 264.644531 C 195.867188 275.367188 183.261719 284.960938 176.488281 283.832031 C 165.390625 281.761719 160.3125 257.496094 154.859375 231.914062 C 149.96875 208.589844 144.886719 184.699219 135.671875 182.253906 C 121.9375 178.867188 106.324219 200.6875 91.464844 221.757812 C 76.605469 242.824219 61.367188 264.082031 46.507812 262.953125 C 24.5 261.070312 -1.085938 240.003906 -25.539062 219.6875 C -58.269531 192.601562 -89.308594 167.015625 -111.316406 184.699219 C -128.246094 198.242188 -133.886719 239.816406 -126.175781 293.425781 C -117.710938 351.925781 -94.949219 413.0625 -63.535156 460.652344 C -37.578125 500.15625 -48.109375 535.332031 -63.535156 567.3125 C -68.050781 576.71875 -73.316406 586.5 -78.585938 595.714844 C -101.910156 638.039062 -123.917969 677.917969 -88.742188 716.859375 C -49.238281 760.6875 -1.460938 737.925781 53.65625 711.402344 C 90.148438 694.097656 128.144531 676.039062 167.648438 676.039062 Z M 167.648438 676.039062 " fill-opacity="1" fill-rule="nonzero"/></g><g clip-path="url(#02bb891abb)"><path fill="#2dc449" d="M 347.667969 778.746094 C 325.097656 778.746094 294.433594 756.738281 264.523438 735.292969 C 236.308594 714.976562 206.964844 693.910156 185.144531 691.839844 C 138.117188 686.949219 92.96875 708.769531 49.140625 729.835938 C -8.230469 757.675781 -62.59375 783.824219 -106.046875 735.667969 C -144.800781 692.96875 -119.214844 647.632812 -94.386719 603.992188 C -88.929688 594.398438 -83.476562 584.617188 -78.585938 575.023438 C -61.65625 540.976562 -49.804688 503.917969 -76.703125 463.101562 C -110.5625 411.558594 -135.394531 345.910156 -144.800781 282.703125 C -153.453125 224.578125 -147.433594 179.246094 -128.996094 164.382812 C -103.980469 144.257812 -70.121094 172.660156 -34.003906 202.757812 C -7.667969 224.765625 19.417969 247.339844 42.558594 249.410156 C 57.230469 250.726562 73.40625 227.777344 89.019531 205.765625 C 106.324219 181.3125 122.503906 158.363281 138.679688 162.503906 C 149.589844 165.324219 154.667969 190.90625 159.9375 217.996094 C 165.015625 243.953125 170.28125 270.851562 180.816406 272.921875 C 187.210938 274.238281 201.132812 263.140625 214.863281 252.605469 C 231.605469 239.4375 247.40625 227.023438 254.554688 231.726562 C 276.375 245.835938 269.039062 278 258.882812 312.238281 C 258.128906 315.058594 257.1875 317.878906 256.4375 320.703125 C 250.039062 342.335938 243.832031 362.648438 246.277344 377.886719 C 249.101562 396.320312 268.851562 415.695312 288.039062 432.25 C 297.445312 440.339844 307.789062 448.804688 317.757812 456.890625 C 349.738281 482.664062 382.84375 509.375 389.992188 533.265625 C 396.953125 556.777344 373.0625 563.925781 349.925781 570.886719 C 326.414062 578.035156 304.214844 584.617188 310.046875 606.625 C 313.996094 621.488281 324.53125 639.546875 336.007812 658.355469 L 339.578125 664 C 364.035156 704.253906 389.429688 746.015625 368.546875 770.09375 C 362.90625 775.734375 355.382812 779.121094 347.667969 778.746094 Z M 171.597656 689.207031 C 176.113281 689.207031 180.816406 689.394531 185.332031 689.957031 C 207.714844 692.214844 237.0625 713.285156 265.652344 733.789062 C 305.34375 762.191406 346.351562 791.726562 366.480469 768.585938 C 386.605469 745.449219 361.589844 704.441406 337.324219 664.75 L 333.75 658.921875 C 322.273438 639.921875 311.738281 621.675781 307.601562 606.816406 C 301.207031 583.300781 325.472656 575.964844 348.609375 569.003906 C 371.746094 562.042969 393.945312 555.273438 387.546875 533.640625 C 380.585938 510.316406 347.667969 483.792969 315.878906 458.207031 C 305.910156 450.121094 295.375 441.65625 286.15625 433.566406 C 266.78125 416.824219 246.65625 397.074219 243.832031 378.074219 C 241.386719 362.273438 247.59375 341.769531 253.992188 319.949219 C 254.742188 317.128906 255.683594 314.304688 256.4375 311.671875 C 266.40625 278 273.554688 246.773438 252.863281 233.230469 C 246.84375 229.28125 230.101562 242.449219 215.242188 253.921875 C 200.566406 265.398438 187.023438 276.121094 179.6875 274.613281 C 168.023438 272.359375 162.945312 246.023438 157.492188 218.183594 C 152.601562 192.976562 147.332031 166.828125 137.550781 164.195312 C 122.878906 160.433594 106.136719 184.136719 89.960938 207.085938 C 73.972656 229.65625 57.605469 252.984375 41.804688 251.664062 C 18.101562 249.597656 -9.359375 226.648438 -35.882812 204.640625 C -71.25 175.105469 -104.730469 147.265625 -128.433594 166.265625 C -146.304688 180.5625 -152.136719 225.332031 -143.480469 282.703125 C -134.078125 345.71875 -109.433594 411.183594 -75.574219 462.347656 C -48.109375 504.105469 -60.148438 541.730469 -77.269531 576.152344 C -82.160156 585.933594 -87.613281 595.714844 -93.070312 605.308594 C -118.652344 650.457031 -142.730469 692.96875 -104.921875 734.917969 C -87.613281 753.914062 -68.992188 761.25 -48.863281 761.25 C -19.519531 761.25 12.835938 745.636719 48.199219 728.519531 C 88.078125 708.957031 128.898438 689.207031 171.597656 689.207031 Z M 171.597656 689.207031 " fill-opacity="1" fill-rule="nonzero"/></g><g clip-path="url(#2ee39ed473)"><path fill="#2dc449" d="M 363.46875 799.0625 C 339.578125 799.0625 306.660156 775.359375 274.683594 752.222656 C 244.398438 730.214844 213.171875 707.640625 189.847656 705.195312 C 139.433594 699.929688 90.902344 723.628906 44.0625 746.578125 C 7.378906 764.449219 -28.171875 781.753906 -60.714844 781.753906 C -82.535156 781.753906 -103.039062 774.042969 -121.851562 753.351562 C -163.421875 707.640625 -135.582031 659.671875 -108.492188 613.210938 C -102.851562 603.429688 -97.019531 593.457031 -91.941406 583.488281 C -73.128906 547.183594 -59.773438 507.679688 -88.367188 464.417969 C -124.671875 409.488281 -151.570312 339.324219 -161.917969 271.605469 C -171.511719 209.339844 -165.304688 160.996094 -145.738281 145.386719 L -145.175781 146.136719 L -145.738281 145.386719 C -119.027344 123.941406 -82.722656 154.601562 -44.160156 187.144531 C -15.945312 210.847656 13.210938 235.300781 38.042969 237.746094 C 53.84375 239.25 71.148438 214.609375 87.890625 190.90625 C 106.324219 164.570312 123.820312 139.742188 140.9375 144.445312 C 152.414062 147.640625 157.492188 175.292969 162.945312 204.449219 C 168.023438 232.667969 173.480469 261.636719 184.390625 263.894531 C 190.972656 265.210938 206.023438 253.359375 220.507812 241.882812 C 238.191406 227.777344 254.929688 214.421875 262.457031 219.3125 C 285.214844 234.359375 277.691406 266.902344 266.21875 304.902344 C 265.464844 307.347656 264.710938 309.980469 263.960938 312.425781 C 256.8125 335.9375 250.039062 357.949219 252.863281 374.5 C 256.058594 393.875 277.691406 414.566406 298.574219 432.0625 C 308.542969 440.527344 319.828125 449.367188 330.550781 457.832031 C 365.164062 485.109375 401.089844 513.324219 408.617188 538.53125 C 410.683594 545.304688 410.308594 551.132812 407.675781 556.214844 C 401.28125 567.875 383.03125 573.144531 365.351562 578.222656 C 339.957031 585.558594 315.878906 592.519531 322.085938 615.84375 C 326.222656 631.644531 337.699219 650.832031 349.925781 670.773438 L 353.875 677.167969 C 380.210938 719.867188 407.300781 764.074219 385.101562 789.65625 C 379.460938 796.050781 371.558594 799.4375 363.46875 799.0625 Z M 175.363281 702.5625 C 180.253906 702.5625 185.144531 702.75 190.035156 703.3125 C 213.734375 705.757812 245.335938 728.519531 275.8125 750.71875 C 318.136719 781.378906 361.777344 812.980469 383.222656 788.527344 C 404.664062 764.074219 377.765625 720.433594 351.808594 678.296875 L 347.855469 671.898438 C 335.628906 651.773438 324.15625 632.398438 319.828125 616.40625 C 313.058594 591.390625 339.203125 583.675781 364.410156 576.339844 C 381.714844 571.261719 399.773438 565.996094 405.792969 555.085938 C 408.238281 550.570312 408.617188 545.304688 406.734375 538.90625 C 399.398438 514.265625 363.847656 486.238281 329.421875 459.148438 C 318.699219 450.683594 307.414062 441.84375 297.445312 433.378906 C 276.375 415.507812 254.554688 394.816406 251.167969 374.6875 C 248.347656 357.757812 255.121094 335.375 262.265625 311.671875 C 263.019531 309.226562 263.773438 306.59375 264.523438 304.148438 C 275.8125 266.902344 283.335938 234.925781 261.515625 220.628906 C 255.121094 216.488281 237.4375 230.597656 221.824219 243.011719 C 206.210938 255.429688 191.726562 266.902344 184.203125 265.398438 C 171.976562 262.953125 166.898438 234.546875 161.253906 204.449219 C 156.175781 176.988281 151.09375 148.769531 140.5625 145.949219 C 124.761719 141.621094 106.890625 167.015625 89.582031 191.660156 C 72.652344 215.925781 54.972656 240.945312 38.042969 239.4375 C 12.648438 236.992188 -16.695312 212.351562 -45.101562 188.460938 C -83.097656 156.484375 -118.839844 126.386719 -144.234375 146.703125 C -181.667969 176.609375 -167.371094 341.015625 -86.484375 463.289062 C -57.515625 507.304688 -71.0625 547.558594 -90.058594 584.242188 C -95.136719 594.210938 -101.15625 604.371094 -106.800781 614.152344 C -134.640625 662.117188 -160.976562 707.453125 -120.34375 752.035156 C -74.632812 802.257812 -20.082031 775.546875 43.308594 744.699219 C 86.011719 723.816406 129.839844 702.5625 175.363281 702.5625 Z M 175.363281 702.5625 " fill-opacity="1" fill-rule="nonzero"/></g><g clip-path="url(#b8ee56e8af)"><path fill="#2dc449" d="M 379.269531 819.566406 C 353.875 819.566406 319.078125 793.980469 285.027344 769.152344 C 252.863281 745.449219 219.566406 721.183594 194.738281 718.550781 C 140.9375 712.90625 89.207031 738.300781 39.171875 762.945312 C -26.101562 794.921875 -87.613281 825.207031 -137.273438 770.84375 C -181.480469 722.3125 -151.382812 671.335938 -122.226562 622.238281 C -116.394531 612.269531 -110.1875 601.925781 -104.730469 591.765625 C -84.039062 553.015625 -69.179688 511.066406 -99.277344 465.546875 C -138.027344 407.230469 -166.808594 332.175781 -178.09375 260.320312 C -188.628906 194.105469 -182.421875 142.75 -161.730469 126.386719 C -133.324219 103.8125 -94.574219 136.542969 -53.378906 171.53125 C -23.28125 197.113281 7.757812 223.449219 34.28125 225.894531 C 51.210938 227.398438 69.644531 201.066406 87.328125 175.671875 C 106.890625 147.453125 125.511719 120.929688 143.570312 126.199219 C 155.609375 129.582031 160.6875 159.304688 166.144531 190.71875 C 171.410156 221.003906 176.867188 252.230469 188.152344 254.675781 C 195.113281 256.179688 211.101562 243.390625 226.339844 230.972656 C 244.960938 215.925781 262.644531 201.816406 270.355469 206.894531 C 294.246094 222.699219 285.96875 257.308594 273.554688 297.753906 L 271.484375 304.523438 C 263.773438 329.917969 256.246094 353.808594 259.632812 371.492188 C 263.394531 392.183594 286.722656 413.816406 309.105469 432.4375 C 319.828125 441.277344 331.867188 450.496094 343.34375 459.527344 C 380.585938 488.304688 419.148438 518.027344 427.050781 544.550781 C 429.308594 551.699219 428.929688 557.71875 425.921875 563.171875 C 419.148438 575.402344 399.398438 581.042969 380.398438 586.3125 C 353.125 594.023438 327.164062 601.359375 333.9375 626 C 338.453125 642.742188 350.488281 663.058594 363.46875 684.128906 L 367.796875 691.273438 C 395.824219 736.421875 424.605469 783.261719 401.28125 810.160156 C 396.011719 816.179688 387.734375 819.753906 379.269531 819.566406 Z M 179.3125 715.730469 C 184.578125 715.730469 189.847656 715.917969 194.925781 716.480469 C 220.132812 719.113281 253.613281 743.757812 286.15625 767.460938 C 331.113281 800.378906 377.390625 834.238281 400.152344 808.464844 C 422.914062 782.695312 394.132812 736.421875 366.480469 691.839844 L 362.152344 684.691406 C 348.984375 663.433594 336.945312 642.742188 332.433594 626 C 325.285156 599.476562 353.3125 591.578125 380.210938 583.867188 C 399.023438 578.597656 418.210938 573.144531 424.605469 561.667969 C 427.238281 556.777344 427.613281 551.324219 425.546875 544.550781 C 417.832031 518.402344 379.460938 489.058594 342.402344 460.464844 C 330.925781 451.625 318.886719 442.40625 308.167969 433.378906 C 285.59375 414.566406 261.890625 392.558594 257.941406 371.492188 C 254.554688 353.246094 262.078125 329.167969 269.980469 303.582031 L 272.050781 296.8125 C 284.089844 257.308594 292.363281 223.261719 269.605469 208.214844 C 263.019531 203.886719 244.210938 218.933594 227.84375 232.289062 C 211.289062 245.644531 195.867188 258.0625 187.964844 256.367188 C 175.363281 253.546875 170.09375 223.074219 164.453125 190.90625 C 159.371094 161.375 154.105469 130.898438 143.195312 127.890625 C 126.265625 123 107.265625 150.277344 88.832031 176.609375 C 70.773438 202.570312 51.960938 229.28125 34.09375 227.589844 C 7.003906 224.953125 -24.410156 198.429688 -54.695312 172.660156 C -95.136719 138.425781 -133.324219 105.882812 -160.601562 127.515625 L -161.164062 126.761719 L -160.601562 127.515625 C -200.101562 159.117188 -184.300781 333.871094 -97.773438 464.417969 C -67.296875 510.691406 -82.347656 553.390625 -103.039062 592.519531 C -108.492188 602.675781 -114.511719 613.023438 -120.53125 622.992188 C -150.628906 673.78125 -179.035156 721.75 -135.769531 769.339844 C -116.207031 790.785156 -94.949219 799.0625 -72.378906 799.0625 C -38.707031 799.0625 -1.648438 780.816406 38.605469 761.0625 C 83.753906 738.679688 130.589844 715.730469 179.3125 715.730469 Z M 179.3125 715.730469 " fill-opacity="1" fill-rule="nonzero"/></g><g clip-path="url(#4ff08925fd)"><path fill="#2dc449" d="M 395.070312 839.878906 C 368.171875 839.878906 331.304688 812.605469 295.1875 785.894531 C 260.949219 760.6875 225.773438 734.539062 199.4375 731.71875 C 142.253906 725.699219 87.328125 752.785156 34.09375 779.121094 C -34.945312 813.359375 -100.21875 845.710938 -152.886719 787.964844 C -199.726562 736.421875 -167.371094 682.808594 -136.144531 630.890625 C -129.9375 620.734375 -123.730469 610.199219 -117.898438 599.855469 C -95.328125 558.847656 -79.148438 514.265625 -110.75 466.484375 C -151.945312 404.597656 -182.609375 325.214844 -195.023438 248.65625 C -206.308594 178.304688 -199.914062 123.941406 -178.28125 106.824219 C -148.183594 82.933594 -106.988281 118.109375 -63.347656 155.167969 C -31.371094 182.441406 1.738281 210.660156 29.953125 213.480469 C 47.824219 215.171875 67.574219 187.144531 86.199219 159.867188 C 107.078125 129.773438 126.640625 101.742188 145.828125 107.386719 C 158.242188 111.148438 163.511719 142.9375 169.152344 176.421875 C 174.421875 208.777344 179.875 242.074219 191.914062 244.894531 C 199.25 246.585938 215.992188 232.855469 232.359375 219.6875 C 251.921875 203.699219 270.542969 188.648438 278.632812 193.917969 C 305.53125 211.976562 291.988281 255.050781 281.265625 289.851562 L 279.386719 295.683594 C 270.921875 322.960938 262.832031 348.542969 266.59375 367.730469 C 270.730469 389.359375 295.9375 412.308594 320.015625 431.875 C 331.492188 441.277344 344.28125 450.871094 356.511719 460.089844 C 396.390625 490.375 437.773438 521.601562 446.050781 549.441406 C 448.308594 556.964844 447.929688 563.363281 444.921875 569.003906 C 437.773438 581.984375 416.703125 587.816406 396.199219 593.269531 C 366.855469 601.359375 339.203125 608.882812 346.351562 635.03125 C 351.054688 652.714844 363.847656 674.15625 377.765625 696.542969 L 382.65625 704.441406 C 412.378906 752.035156 443.039062 801.507812 418.398438 829.722656 C 412.378906 836.308594 403.914062 840.070312 395.070312 839.878906 Z M 183.074219 728.898438 C 188.527344 728.898438 194.171875 729.273438 199.628906 729.835938 C 226.339844 732.660156 261.890625 758.804688 296.316406 784.199219 C 343.71875 819.378906 392.816406 855.492188 416.890625 828.21875 C 440.78125 800.941406 410.308594 752.410156 381.152344 705.195312 L 376.261719 697.292969 C 362.339844 674.722656 349.363281 653.089844 344.660156 635.21875 C 337.132812 607.003906 367.042969 598.914062 395.824219 591.011719 C 415.953125 585.558594 436.644531 579.914062 443.414062 567.6875 C 446.238281 562.609375 446.613281 556.777344 444.355469 549.628906 C 436.078125 522.355469 395.070312 491.316406 355.382812 461.21875 C 343.152344 452 330.363281 442.40625 318.886719 433.003906 C 294.433594 413.25 269.039062 390.113281 264.902344 367.730469 C 261.140625 348.355469 269.226562 322.394531 277.691406 294.929688 L 279.574219 289.097656 C 290.109375 255.050781 303.464844 212.539062 277.691406 195.234375 C 270.730469 190.53125 250.980469 206.707031 233.675781 220.816406 C 216.367188 234.925781 199.816406 248.28125 191.726562 246.398438 C 178.558594 243.390625 173.292969 210.847656 167.460938 176.421875 C 162.195312 144.820312 156.925781 112.089844 145.453125 108.890625 C 127.582031 103.625 107.453125 132.59375 87.890625 160.808594 C 68.703125 188.460938 48.765625 217.054688 29.765625 215.171875 C 0.984375 212.351562 -32.308594 183.945312 -64.476562 156.296875 C -107.554688 119.988281 -147.996094 85.378906 -177.152344 108.328125 C -218.914062 141.433594 -201.609375 326.722656 -109.246094 465.546875 C -77.078125 514.078125 -93.632812 559.222656 -116.394531 600.984375 C -122.039062 611.328125 -128.433594 622.050781 -134.640625 632.210938 C -166.996094 685.820312 -197.46875 736.421875 -151.570312 787.023438 C -130.878906 809.785156 -108.304688 818.4375 -84.605469 818.4375 C -48.863281 818.4375 -9.550781 799.0625 33.339844 777.804688 C 81.683594 753.539062 131.34375 728.898438 183.074219 728.898438 Z M 183.074219 728.898438 " fill-opacity="1" fill-rule="nonzero"/></g><g clip-path="url(#fece36cdac)"><path fill="#2dc449" d="M 410.875 860.195312 C 382.65625 860.195312 343.53125 831.039062 305.34375 802.636719 C 269.226562 775.734375 231.792969 747.894531 204.140625 744.886719 C 143.382812 738.492188 85.257812 767.460938 29.011719 795.488281 C -15.003906 817.496094 -57.515625 838.753906 -96.644531 838.753906 C -122.414062 838.753906 -146.492188 829.535156 -168.6875 805.457031 C -190.886719 781.191406 -198.222656 754.101562 -190.886719 723.066406 C -184.300781 695.601562 -166.996094 667.199219 -150.253906 639.921875 C -143.859375 629.574219 -137.273438 618.664062 -131.253906 607.941406 C -106.988281 564.488281 -89.117188 517.464844 -122.226562 467.425781 C -165.867188 401.964844 -198.410156 318.066406 -211.765625 237.371094 C -223.992188 162.878906 -217.597656 105.503906 -194.835938 87.636719 C -162.855469 62.429688 -119.40625 99.863281 -73.128906 139.363281 C -39.269531 168.523438 -4.09375 198.621094 25.628906 201.628906 C 44.625 203.511719 65.316406 173.601562 85.257812 144.820312 C 107.453125 113.21875 128.144531 83.121094 148.273438 89.328125 C 161.253906 93.277344 166.519531 127.136719 172.164062 163.066406 C 177.617188 197.492188 183.074219 233.042969 195.488281 236.054688 C 203.203125 237.746094 220.882812 223.261719 238 209.152344 C 258.695312 192.222656 278.070312 176.234375 286.34375 181.878906 C 314.375 200.6875 300.640625 244.328125 288.414062 282.890625 L 286.910156 287.972656 C 277.691406 317.128906 269.039062 344.589844 273.179688 364.90625 C 277.691406 387.667969 304.78125 411.746094 330.550781 432.25 C 342.777344 442.03125 356.320312 452 369.300781 461.78125 C 411.8125 493.386719 455.832031 526.117188 464.671875 555.273438 C 467.117188 563.171875 466.742188 569.945312 463.355469 575.589844 C 455.832031 589.320312 433.257812 595.152344 411.4375 600.984375 C 389.617188 606.816406 367.421875 612.457031 359.707031 625.8125 C 356.511719 631.269531 356.132812 637.476562 358.015625 644.8125 C 362.90625 663.433594 376.636719 686.195312 391.308594 709.710938 L 396.578125 718.175781 C 427.992188 768.210938 460.347656 820.128906 434.386719 849.664062 C 429.121094 856.433594 420.277344 860.382812 410.875 860.195312 Z M 187.023438 742.253906 C 192.855469 742.253906 198.6875 742.628906 204.519531 743.191406 C 232.734375 746.203125 270.167969 774.230469 306.660156 801.320312 C 356.699219 838.5625 408.425781 877.125 433.632812 848.34375 C 458.839844 819.566406 426.484375 768.585938 395.636719 718.925781 C 393.753906 716.105469 392.0625 713.285156 390.371094 710.460938 C 375.695312 686.761719 361.964844 664 356.886719 645.1875 C 354.816406 637.289062 355.382812 630.515625 358.765625 624.683594 C 366.855469 610.765625 389.429688 604.746094 411.4375 598.914062 C 432.882812 593.269531 454.890625 587.4375 462.039062 574.460938 C 465.046875 569.191406 465.425781 562.984375 463.167969 555.460938 C 454.515625 526.867188 410.875 494.324219 368.546875 462.910156 C 355.570312 453.316406 342.027344 443.160156 329.796875 433.378906 C 303.839844 412.6875 276.5625 388.234375 271.859375 364.90625 C 267.722656 344.214844 276.375 316.375 285.59375 287.03125 L 287.097656 281.953125 C 298.949219 244.140625 312.492188 201.066406 285.78125 183.007812 C 278.632812 178.117188 257.941406 195.234375 239.695312 210.28125 C 221.449219 225.332031 203.953125 239.628906 195.488281 237.558594 C 181.757812 234.359375 176.488281 199.746094 170.660156 163.066406 C 165.390625 129.394531 159.9375 94.59375 148.085938 91.019531 C 129.273438 85.378906 107.832031 116.039062 87.136719 145.949219 C 67.386719 174.351562 47.070312 203.699219 27.507812 203.699219 C 26.945312 203.699219 26.191406 203.699219 25.628906 203.699219 C -4.847656 200.6875 -40.023438 170.214844 -74.257812 141.058594 C -119.78125 101.742188 -162.667969 64.6875 -193.332031 89.140625 C -237.347656 123.753906 -218.347656 319.574219 -120.53125 466.484375 C -86.671875 517.464844 -104.921875 565.054688 -129.5625 609.070312 C -135.582031 619.792969 -142.164062 630.515625 -148.5625 641.050781 C -183.171875 697.484375 -215.902344 750.90625 -167.371094 804.140625 C -112.445312 863.957031 -47.171875 831.605469 28.261719 793.984375 C 79.425781 768.398438 132.097656 742.253906 187.023438 742.253906 Z M 187.023438 742.253906 " fill-opacity="1" fill-rule="nonzero"/></g><g clip-path="url(#9719daba17)"><path fill="#2dc449" d="M 426.675781 880.511719 C 396.953125 880.511719 355.757812 849.664062 315.691406 819.566406 C 277.691406 790.972656 238.191406 761.441406 209.222656 758.429688 C 145.074219 751.65625 83.753906 782.320312 24.308594 812.039062 C -52.625 850.601562 -125.234375 886.90625 -184.113281 822.761719 C -207.628906 796.992188 -215.152344 768.777344 -207.25 736.421875 C -200.289062 707.453125 -181.855469 677.730469 -163.796875 648.949219 C -157.214844 638.230469 -150.253906 627.320312 -144.046875 616.40625 C -117.898438 570.699219 -98.523438 521.039062 -133.324219 468.742188 C -179.222656 399.707031 -213.835938 311.296875 -228.132812 226.082031 C -241.296875 147.640625 -234.714844 87.070312 -210.824219 68.449219 C -177.152344 41.925781 -131.253906 81.617188 -82.535156 123.753906 C -46.792969 154.601562 -9.738281 186.582031 21.863281 189.777344 C 41.804688 191.847656 63.8125 160.246094 84.882812 129.773438 C 108.019531 96.101562 130.027344 64.5 151.285156 71.082031 C 164.828125 75.21875 170.09375 111.148438 175.925781 149.335938 C 181.382812 185.828125 187.023438 223.636719 200.003906 226.648438 C 207.902344 228.527344 226.714844 213.105469 244.773438 198.054688 C 266.40625 180.183594 286.722656 163.253906 295.375 169.085938 C 324.34375 188.835938 309.859375 234.734375 296.878906 275.367188 L 295.5625 279.507812 C 286.15625 309.226562 276.375 339.890625 280.890625 361.332031 C 285.96875 385.597656 316.253906 411.933594 342.027344 432.0625 C 355.191406 442.40625 369.488281 452.941406 383.597656 463.289062 C 428.554688 496.207031 475.019531 530.253906 484.046875 560.539062 C 486.492188 568.816406 486.117188 575.777344 482.730469 581.796875 C 474.640625 596.09375 450.753906 602.300781 427.613281 608.320312 C 404.476562 614.339844 380.964844 620.359375 372.875 634.277344 C 369.675781 639.921875 368.925781 646.503906 371.183594 654.21875 C 376.449219 673.78125 391.308594 698.613281 406.171875 722.3125 C 408.050781 725.324219 409.933594 728.332031 412 731.53125 C 445.109375 784.011719 479.34375 838.5625 452.070312 869.414062 C 445.671875 876.75 436.457031 880.886719 426.675781 880.511719 Z M 190.972656 755.421875 C 197.183594 755.421875 203.390625 755.796875 209.410156 756.359375 C 238.941406 759.558594 278.632812 789.28125 316.820312 817.871094 C 369.488281 857.375 423.851562 898.195312 450.5625 868.097656 C 476.898438 838.1875 443.039062 784.390625 410.308594 732.472656 L 404.476562 723.253906 C 389.429688 699.363281 374.378906 674.34375 369.113281 654.59375 C 366.855469 646.316406 367.609375 639.355469 370.996094 633.148438 C 379.460938 618.476562 403.535156 612.269531 426.863281 606.25 C 449.625 600.417969 473.136719 594.210938 480.847656 580.667969 C 484.046875 575.023438 484.421875 568.628906 481.976562 560.726562 C 472.949219 531.007812 426.863281 497.148438 382.09375 464.226562 C 368.171875 454.070312 353.6875 443.347656 340.519531 433.003906 C 314.375 412.6875 283.898438 386.164062 278.632812 361.144531 C 273.929688 339.136719 283.335938 309.601562 293.304688 278.378906 L 294.621094 274.238281 C 307.226562 234.359375 321.710938 189.214844 293.871094 170.214844 C 286.34375 165.136719 264.714844 183.195312 245.527344 198.996094 C 226.339844 214.984375 208.28125 230.035156 199.25 227.964844 C 185.144531 224.578125 179.6875 187.898438 173.855469 149.148438 C 168.589844 113.40625 162.945312 76.347656 150.53125 72.398438 C 130.589844 66.191406 108.019531 98.921875 86.199219 130.335938 C 65.507812 160.433594 44.0625 191.285156 23.558594 191.285156 C 22.804688 191.285156 22.242188 191.285156 21.488281 191.285156 C -10.675781 187.898438 -47.921875 155.730469 -83.851562 124.691406 C -132.007812 83.683594 -177.339844 44.371094 -209.882812 69.953125 C -232.832031 88.011719 -239.230469 149.335938 -226.4375 225.894531 C -212.140625 310.921875 -177.71875 398.953125 -132.007812 467.800781 C -96.644531 521.039062 -116.207031 571.074219 -142.730469 617.535156 C -148.9375 628.445312 -155.898438 639.546875 -162.480469 650.269531 C -199.351562 709.523438 -234.152344 765.578125 -182.984375 821.824219 C -156.460938 850.601562 -126.175781 861.136719 -87.613281 854.554688 C -53.003906 848.722656 -15.945312 830.289062 23.183594 810.535156 C 77.355469 783.261719 133.035156 755.421875 190.972656 755.421875 Z M 190.972656 755.421875 " fill-opacity="1" fill-rule="nonzero"/></g><g clip-path="url(#3a50e91d94)"><path fill="#2dc449" d="M 442.476562 900.828125 C 411.25 900.828125 367.984375 868.097656 325.847656 836.308594 C 285.78125 806.019531 244.398438 774.796875 213.921875 771.597656 C 146.394531 764.449219 81.871094 796.992188 19.230469 828.40625 C -61.65625 869.039062 -137.839844 907.601562 -199.726562 840.070312 C -224.367188 813.167969 -232.269531 783.449219 -223.804688 749.402344 C -216.28125 719.117188 -197.46875 689.394531 -177.71875 657.792969 C -170.757812 646.882812 -163.796875 635.59375 -157.214844 624.496094 C -129.1875 576.339844 -108.304688 524.234375 -144.609375 469.683594 C -192.953125 397.261719 -229.449219 304.335938 -244.683594 214.609375 C -258.792969 132.027344 -252.019531 68.636719 -227.191406 49.074219 C -191.824219 21.234375 -143.480469 63.179688 -92.128906 107.574219 C -54.507812 140.304688 -15.378906 174.164062 17.726562 177.550781 C 38.792969 179.808594 61.742188 146.324219 84.128906 114.160156 C 108.582031 78.792969 131.53125 45.3125 153.917969 52.269531 C 168.023438 56.785156 173.480469 94.785156 179.125 135.039062 C 184.578125 173.601562 190.410156 213.480469 203.765625 216.867188 C 212.042969 218.933594 231.605469 202.570312 250.605469 186.582031 C 273.179688 167.769531 294.433594 149.898438 303.273438 155.917969 C 333.371094 176.609375 317.949219 224.765625 304.402344 267.277344 L 303.273438 270.664062 C 293.117188 302.078125 282.769531 334.621094 287.664062 357.382812 C 293.117188 382.777344 325.285156 410.242188 352.746094 431.308594 C 366.480469 442.03125 381.714844 452.941406 396.390625 463.476562 C 443.980469 497.898438 493.265625 533.453125 502.859375 565.242188 C 505.492188 573.894531 505.117188 581.230469 501.542969 587.4375 C 493.078125 602.488281 467.683594 608.882812 443.414062 615.089844 C 418.960938 621.300781 393.945312 627.695312 385.480469 642.367188 C 382.09375 648.199219 381.339844 655.160156 383.597656 663.246094 C 389.050781 683.75 404.855469 709.710938 420.464844 734.539062 L 426.675781 744.511719 C 461.472656 799.625 497.402344 856.433594 469 888.789062 C 462.226562 896.878906 452.632812 901.203125 442.476562 900.828125 Z M 194.738281 768.777344 C 201.132812 768.777344 207.714844 769.152344 214.113281 769.714844 C 245.148438 772.914062 286.722656 804.515625 326.976562 834.800781 C 382.28125 876.5625 439.277344 919.640625 467.117188 888.035156 C 494.582031 856.8125 459.027344 800.378906 424.605469 746.015625 L 418.398438 736.234375 C 402.597656 711.214844 386.796875 684.878906 381.152344 664.1875 C 378.894531 655.535156 379.460938 648.199219 383.222656 641.804688 C 392.25 626.566406 417.644531 619.980469 442.476562 613.773438 C 466.554688 607.753906 491.382812 601.359375 499.472656 587.0625 C 502.859375 581.230469 503.234375 574.460938 500.601562 566.371094 C 491.195312 535.332031 442.289062 499.78125 394.882812 465.546875 C 380.210938 455.011719 365.164062 443.914062 351.242188 433.191406 C 323.589844 411.933594 291.234375 384.09375 285.59375 358.136719 C 280.515625 334.808594 291.046875 302.078125 301.207031 270.476562 L 302.335938 267.089844 C 315.691406 225.144531 330.925781 177.738281 301.957031 157.800781 C 294.246094 152.53125 271.484375 171.53125 251.546875 188.273438 C 231.605469 205.015625 212.230469 221.191406 203.011719 218.933594 C 188.339844 215.359375 182.886719 176.609375 176.867188 135.601562 C 171.410156 97.792969 165.769531 58.480469 152.976562 54.339844 C 132.097656 47.757812 108.207031 82.179688 85.445312 115.476562 C 63.625 147.078125 41.050781 179.808594 19.609375 179.808594 C 18.855469 179.808594 18.101562 179.808594 17.351562 179.621094 C -16.507812 176.046875 -55.636719 142 -93.632812 109.078125 C -144.234375 65.25 -191.824219 23.867188 -226.0625 50.578125 C -249.953125 69.578125 -256.722656 133.722656 -242.992188 214.421875 C -227.753906 303.773438 -191.261719 396.507812 -143.105469 468.742188 C -106.238281 524.234375 -127.304688 576.90625 -155.519531 625.625 C -162.105469 636.910156 -169.066406 648.199219 -176.023438 658.921875 C -215.152344 721.183594 -252.207031 779.875 -198.222656 838.753906 C -170.382812 869.039062 -138.589844 880.136719 -97.773438 873.175781 C -61.277344 866.96875 -22.527344 847.40625 18.667969 826.714844 C 75.289062 798.121094 133.789062 768.777344 194.738281 768.777344 Z M 194.738281 768.777344 " fill-opacity="1" fill-rule="nonzero"/></g><g clip-path="url(#849c6be159)"><path fill="#2dc449" d="M 458.277344 921.332031 C 425.734375 921.332031 380.398438 886.90625 336.195312 853.238281 C 294.246094 821.257812 250.792969 788.339844 218.816406 784.953125 C 147.898438 777.429688 79.992188 811.664062 14.339844 844.960938 C -28.925781 866.78125 -69.742188 887.472656 -108.304688 894.054688 C -151.570312 901.390625 -185.617188 889.917969 -215.339844 857.5625 C -272.902344 794.546875 -233.398438 732.660156 -191.449219 667.007812 C -184.300781 655.910156 -176.964844 644.4375 -170.195312 632.960938 C -140.472656 582.546875 -117.898438 527.996094 -155.898438 471 C -206.6875 394.816406 -245.0625 297.375 -261.425781 203.511719 C -276.476562 116.980469 -269.703125 50.578125 -243.554688 30.074219 C -206.5 0.917969 -155.710938 45.121094 -101.910156 91.960938 C -62.21875 126.386719 -21.398438 162.125 13.589844 165.886719 C 35.785156 168.144531 59.863281 133.15625 83.1875 99.109375 C 108.769531 61.863281 133.035156 26.6875 156.363281 34.210938 C 171.035156 38.914062 176.488281 78.984375 182.320312 121.496094 C 187.964844 162.125 193.609375 204.261719 207.714844 207.835938 C 216.367188 209.90625 236.871094 192.789062 256.625 175.859375 C 280.136719 155.917969 302.335938 137.296875 311.550781 143.503906 C 342.777344 164.949219 327.164062 213.292969 312.117188 259.941406 L 311.363281 262.386719 C 300.640625 295.683594 289.355469 330.105469 294.808594 354.183594 C 300.828125 380.519531 334.878906 409.300781 363.847656 431.496094 C 378.332031 442.597656 394.132812 453.882812 409.554688 464.792969 C 459.78125 500.722656 511.886719 537.96875 521.855469 570.886719 C 524.679688 579.914062 524.113281 587.4375 520.351562 594.023438 C 511.511719 609.824219 484.613281 616.40625 459.027344 622.804688 C 433.257812 629.199219 406.734375 635.785156 397.707031 651.019531 C 394.132812 657.226562 393.378906 664.375 395.636719 672.839844 C 401.28125 694.285156 417.832031 721.371094 434.386719 747.519531 L 441.160156 758.054688 C 477.652344 815.613281 515.460938 875.058594 485.742188 908.730469 C 478.78125 917.195312 468.808594 921.519531 458.277344 921.332031 Z M 198.6875 781.945312 C 205.457031 781.945312 212.230469 782.320312 219.003906 783.070312 C 251.546875 786.457031 295.1875 819.753906 337.324219 851.730469 C 395.070312 895.75 454.890625 941.082031 484.046875 907.976562 C 512.828125 875.433594 475.394531 816.554688 439.277344 759.558594 L 432.695312 749.023438 C 416.140625 722.6875 399.585938 695.414062 393.753906 673.78125 C 391.308594 664.753906 392.0625 657.039062 396.011719 650.457031 C 405.417969 634.464844 432.316406 627.695312 458.464844 621.300781 C 483.859375 614.902344 510.195312 608.507812 518.660156 593.457031 C 522.046875 587.4375 522.609375 580.292969 519.976562 571.828125 C 510.195312 539.472656 458.464844 502.414062 408.429688 466.675781 C 393.003906 455.761719 377.203125 444.289062 362.71875 433.191406 C 333.5625 410.804688 299.136719 381.835938 293.117188 354.75 C 287.472656 330.296875 298.761719 295.496094 309.671875 262.011719 L 310.421875 259.566406 C 325.285156 213.480469 340.707031 165.886719 310.613281 145.195312 C 302.710938 139.742188 278.820312 159.679688 257.941406 177.363281 C 237.0625 195.046875 216.746094 211.976562 207.339844 209.53125 C 192.101562 205.765625 186.648438 164.949219 180.628906 121.683594 C 175.363281 81.617188 169.71875 40.230469 155.988281 35.90625 C 133.976562 28.757812 109.148438 65.0625 85.070312 100.050781 C 61.367188 134.472656 36.914062 170.027344 13.777344 167.582031 C -21.777344 163.820312 -62.785156 127.890625 -102.664062 93.277344 C -155.898438 47.003906 -206.121094 3.175781 -242.050781 31.390625 C -267.257812 51.140625 -274.03125 118.484375 -259.355469 202.945312 C -243.179688 296.625 -204.804688 393.875 -154.203125 469.683594 C -115.640625 527.433594 -138.214844 582.546875 -168.5 633.714844 C -175.273438 645.1875 -182.609375 656.664062 -189.757812 667.761719 C -231.140625 732.847656 -270.457031 794.171875 -213.648438 856.058594 C -184.488281 887.847656 -151.007812 899.324219 -108.304688 891.988281 C -70.121094 885.402344 -29.300781 864.898438 13.777344 843.078125 C 73.03125 812.980469 134.542969 781.945312 198.6875 781.945312 Z M 198.6875 781.945312 " fill-opacity="1" fill-rule="nonzero"/></g><g clip-path="url(#c7af4e627f)"><path fill="#2dc449" d="M 474.078125 941.648438 C 440.03125 941.648438 392.625 905.34375 346.351562 869.976562 C 302.335938 836.496094 256.8125 801.695312 223.515625 798.121094 C 149.214844 790.21875 78.109375 826.335938 9.261719 861.324219 C -36.074219 884.273438 -78.773438 906.09375 -119.027344 913.054688 C -164.363281 920.957031 -199.914062 908.726562 -230.953125 875.058594 C -291.335938 809.40625 -249.574219 744.699219 -205.371094 676.039062 C -163.234375 610.765625 -119.78125 543.234375 -167.371094 472.128906 C -220.230469 392.371094 -260.671875 290.417969 -277.980469 192.035156 C -293.96875 101.554688 -287.007812 32.144531 -259.921875 10.886719 C -221.171875 -19.585938 -167.9375 26.875 -111.691406 76.160156 C -70.121094 112.464844 -27.230469 150.085938 9.261719 154.039062 C 32.585938 156.484375 57.792969 119.613281 82.246094 83.875 C 109.148438 44.746094 134.355469 7.878906 158.808594 15.964844 C 173.855469 21.046875 179.5 63.179688 185.332031 107.761719 C 190.972656 150.464844 196.804688 194.855469 211.289062 198.429688 C 220.320312 200.6875 241.765625 182.441406 262.457031 164.949219 C 286.910156 144.257812 310.046875 124.503906 319.453125 131.089844 C 351.808594 153.472656 335.066406 204.828125 318.886719 254.300781 C 307.414062 289.476562 295.5625 325.78125 301.394531 350.988281 C 309.859375 386.726562 366.855469 426.984375 421.972656 466.109375 C 475.019531 503.542969 529.757812 542.292969 540.292969 576.527344 C 543.113281 585.933594 542.738281 593.835938 538.785156 600.605469 C 529.382812 616.972656 501.351562 623.933594 474.265625 630.515625 C 447.179688 637.101562 419.339844 643.871094 409.746094 660.050781 C 405.984375 666.445312 405.230469 673.96875 407.675781 682.808594 C 414.257812 707.640625 434.199219 738.867188 455.453125 771.972656 C 493.640625 831.980469 533.144531 894.054688 502.292969 929.042969 C 495.332031 937.507812 484.988281 942.023438 474.078125 941.648438 Z M 202.449219 795.109375 C 209.597656 795.109375 216.746094 795.488281 223.707031 796.238281 C 257.566406 799.8125 303.273438 834.800781 347.480469 868.472656 C 407.863281 914.558594 470.316406 962.339844 500.789062 927.726562 C 530.699219 893.679688 491.570312 832.355469 453.761719 772.914062 C 432.503906 739.617188 412.378906 708.203125 405.792969 683.1875 C 403.347656 673.78125 404.101562 665.878906 408.050781 658.921875 C 418.019531 642.179688 446.238281 635.21875 473.703125 628.636719 C 500.414062 622.050781 528.066406 615.28125 537.09375 599.667969 C 540.667969 593.269531 541.230469 585.933594 538.410156 577.09375 C 528.066406 543.234375 473.511719 504.859375 420.84375 467.613281 C 365.351562 428.488281 307.976562 387.855469 299.511719 351.363281 C 293.492188 325.59375 305.34375 289.097656 317.007812 253.734375 C 332.996094 204.828125 349.550781 154.226562 318.324219 132.59375 C 310.046875 126.949219 285.40625 147.832031 263.585938 166.453125 C 241.765625 185.074219 220.695312 202.945312 210.726562 200.3125 C 195.113281 196.363281 189.46875 153.472656 183.449219 107.949219 C 177.808594 65.816406 172.164062 22.363281 158.054688 17.660156 C 135.105469 10.136719 108.960938 48.132812 83.753906 84.8125 C 58.921875 120.929688 33.339844 158.363281 9.074219 155.730469 C -27.984375 151.59375 -71.25 113.96875 -113.007812 77.476562 C -168.6875 28.757812 -221.171875 -17.140625 -258.792969 12.203125 C -284.941406 32.707031 -291.710938 103.25 -276.285156 191.847656 C -258.980469 290.039062 -218.726562 391.808594 -165.867188 471 C -117.710938 543.234375 -161.539062 611.140625 -203.863281 676.980469 C -247.695312 744.886719 -289.078125 809.03125 -229.636719 873.742188 C -198.972656 907.035156 -163.984375 918.886719 -119.40625 911.363281 C -79.527344 904.402344 -36.824219 882.769531 8.320312 859.820312 C 70.960938 827.84375 135.484375 795.109375 202.449219 795.109375 Z M 202.449219 795.109375 " fill-opacity="1" fill-rule="nonzero"/></g></g></g></g><path fill="#2dc449" d="M 320.703125 787.746094 C 293.058594 786.410156 268.53125 749.621094 241.332031 731.898438 C 236.425781 728.664062 231.410156 725.765625 226.28125 723.089844 C 232.191406 757.3125 218.480469 782.730469 192.949219 781.503906 C 165.304688 780.167969 140.78125 743.378906 113.578125 725.65625 C 113.46875 725.542969 113.355469 725.542969 113.246094 725.433594 C 97.414062 715.175781 80.804688 709.601562 65.308594 708.820312 L 42.457031 707.707031 C 32.421875 707.261719 22.835938 708.820312 14.585938 712.613281 C 5.113281 716.960938 -3.695312 722.757812 -11.386719 729.445312 C -38.921875 753.191406 -45.722656 807.367188 -87.972656 805.359375 C -130.890625 803.242188 -179.382812 752.519531 -196.21875 692.101562 C -213.050781 631.566406 -191.871094 584.300781 -148.839844 586.417969 C -106.699219 588.425781 -69.019531 644.832031 -27.664062 671.921875 C -15.847656 679.613281 -3.695312 686.414062 8.566406 691.765625 C 19.269531 696.558594 29.859375 699.121094 40.003906 699.570312 L 62.855469 700.683594 C 78.351562 701.351562 92.285156 697.339844 102.765625 688.308594 C 102.878906 688.199219 102.878906 688.199219 102.988281 688.085938 C 121.046875 672.589844 125.507812 637.140625 153.042969 638.480469 C 178.570312 639.707031 206.996094 667.128906 220.261719 701.796875 C 223.941406 699.570312 227.507812 697.003906 230.742188 694.21875 C 248.800781 678.722656 253.261719 643.273438 280.796875 644.609375 C 308.886719 645.949219 340.546875 679.058594 351.582031 718.519531 C 362.621094 758.09375 348.796875 788.972656 320.703125 787.746094 Z M 320.703125 787.746094 " fill-opacity="1" fill-rule="nonzero"/><g clip-path="url(#d851ee7c58)"><path fill="#2dc449" d="M 1403.773438 324 L 1403.773438 287.773438 L 1440 287.773438 L 1440 324 Z M 1440 72.453125 L 1440 36.226562 L 1403.773438 36.226562 L 1403.773438 62.886719 L 1367.546875 62.886719 L 1367.546875 99.113281 L 1403.773438 99.113281 L 1403.773438 72.453125 Z M 1367.546875 251.546875 L 1367.546875 287.773438 L 1403.773438 287.773438 L 1403.773438 261.113281 L 1440 261.113281 L 1440 224.886719 L 1403.773438 224.886719 L 1403.773438 251.546875 Z M 1367.546875 188.660156 L 1367.546875 224.886719 L 1403.773438 224.886719 L 1403.773438 198.226562 L 1440 198.226562 L 1440 162 L 1403.773438 162 L 1403.773438 188.660156 Z M 1367.546875 125.773438 L 1367.546875 162 L 1403.773438 162 L 1403.773438 135.339844 L 1440 135.339844 L 1440 99.113281 L 1403.773438 99.113281 L 1403.773438 125.773438 Z M 1367.546875 0 L 1367.546875 36.226562 L 1403.773438 36.226562 L 1403.773438 0 Z M 1367.546875 0 " fill-opacity="1" fill-rule="nonzero"/></g></svg>