<svg xmlns="http://www.w3.org/2000/svg" xmlns:xlink="http://www.w3.org/1999/xlink" width="1920" zoomAndPan="magnify" viewBox="0 0 1440 809.999993" height="1080" preserveAspectRatio="xMidYMid meet" version="1.0"><defs><filter x="0%" y="0%" width="100%" height="100%" id="e951549fc7"><feColorMatrix values="0 0 0 0 1 0 0 0 0 1 0 0 0 0 1 0 0 0 1 0" color-interpolation-filters="sRGB"/></filter><mask id="37332e6128"><g filter="url(#e951549fc7)"><rect x="-144" width="1728" fill="#000000" y="-80.999999" height="971.999992" fill-opacity="0.55"/></g></mask><clipPath id="704ffc3a11"><path d="M 193 0 L 259 0 L 259 83 L 193 83 Z M 193 0 " clip-rule="nonzero"/></clipPath><clipPath id="31acab19d5"><path d="M 184 0 L 269 0 L 269 94 L 184 94 Z M 184 0 " clip-rule="nonzero"/></clipPath><clipPath id="3718e6e666"><path d="M 175 0 L 277 0 L 277 105 L 175 105 Z M 175 0 " clip-rule="nonzero"/></clipPath><clipPath id="f91f665b0e"><path d="M 165 0 L 277 0 L 277 116 L 165 116 Z M 165 0 " clip-rule="nonzero"/></clipPath><clipPath id="491479b5af"><path d="M 156 0 L 277 0 L 277 128 L 156 128 Z M 156 0 " clip-rule="nonzero"/></clipPath><clipPath id="cb9435f5eb"><path d="M 146 0 L 277 0 L 277 139 L 146 139 Z M 146 0 " clip-rule="nonzero"/></clipPath><clipPath id="71aef1315f"><path d="M 136 0 L 277 0 L 277 151 L 136 151 Z M 136 0 " clip-rule="nonzero"/></clipPath><clipPath id="eb369fbbd5"><path d="M 127 0 L 277 0 L 277 162 L 127 162 Z M 127 0 " clip-rule="nonzero"/></clipPath><clipPath id="3a930c4e46"><path d="M 117 0 L 277 0 L 277 174 L 117 174 Z M 117 0 " clip-rule="nonzero"/></clipPath><clipPath id="ba4eaba754"><path d="M 108 0 L 277 0 L 277 185 L 108 185 Z M 108 0 " clip-rule="nonzero"/></clipPath><clipPath id="29dad4d277"><path d="M 98 0 L 277 0 L 277 197 L 98 197 Z M 98 0 " clip-rule="nonzero"/></clipPath><clipPath id="eaf11e626f"><path d="M 88 0 L 277 0 L 277 208 L 88 208 Z M 88 0 " clip-rule="nonzero"/></clipPath><clipPath id="d298aed3c8"><path d="M 79 0 L 277 0 L 277 219 L 79 219 Z M 79 0 " clip-rule="nonzero"/></clipPath><clipPath id="3409d44bfe"><path d="M 69 0 L 277 0 L 277 231 L 69 231 Z M 69 0 " clip-rule="nonzero"/></clipPath><clipPath id="1919f7e7f9"><path d="M 59 0 L 277 0 L 277 242 L 59 242 Z M 59 0 " clip-rule="nonzero"/></clipPath><clipPath id="c42fa7d993"><path d="M 50 0 L 277 0 L 277 254 L 50 254 Z M 50 0 " clip-rule="nonzero"/></clipPath><clipPath id="cfeb4d7fd0"><path d="M 40 0 L 277 0 L 277 265 L 40 265 Z M 40 0 " clip-rule="nonzero"/></clipPath><clipPath id="6272ef89ca"><path d="M 30 0 L 277 0 L 277 277 L 30 277 Z M 30 0 " clip-rule="nonzero"/></clipPath><clipPath id="30292c3904"><path d="M 21 0 L 277 0 L 277 288 L 21 288 Z M 21 0 " clip-rule="nonzero"/></clipPath><clipPath id="05a5e2fbea"><path d="M 11 0 L 277 0 L 277 300 L 11 300 Z M 11 0 " clip-rule="nonzero"/></clipPath><clipPath id="f779fac87c"><path d="M 1 0 L 277 0 L 277 311 L 1 311 Z M 1 0 " clip-rule="nonzero"/></clipPath><clipPath id="8d7f477251"><rect x="0" width="277" y="0" height="312"/></clipPath><clipPath id="dc99cf647a"><path d="M 95.925781 348.734375 L 230.925781 348.734375 L 230.925781 483.734375 L 95.925781 483.734375 Z M 95.925781 348.734375 " clip-rule="nonzero"/></clipPath><clipPath id="8f388d1d5f"><path d="M 1141.824219 51.976562 L 1147.230469 51.976562 L 1147.230469 57.382812 L 1141.824219 57.382812 Z M 1141.824219 51.976562 " clip-rule="nonzero"/></clipPath><clipPath id="a515ec1818"><path d="M 1144.527344 51.976562 C 1143.035156 51.976562 1141.824219 53.1875 1141.824219 54.679688 C 1141.824219 56.171875 1143.035156 57.382812 1144.527344 57.382812 C 1146.019531 57.382812 1147.230469 56.171875 1147.230469 54.679688 C 1147.230469 53.1875 1146.019531 51.976562 1144.527344 51.976562 Z M 1144.527344 51.976562 " clip-rule="nonzero"/></clipPath><clipPath id="b8f9bf8475"><path d="M 0.824219 0.976562 L 6.230469 0.976562 L 6.230469 6.382812 L 0.824219 6.382812 Z M 0.824219 0.976562 " clip-rule="nonzero"/></clipPath><clipPath id="f29338a88e"><path d="M 3.527344 0.976562 C 2.035156 0.976562 0.824219 2.1875 0.824219 3.679688 C 0.824219 5.171875 2.035156 6.382812 3.527344 6.382812 C 5.019531 6.382812 6.230469 5.171875 6.230469 3.679688 C 6.230469 2.1875 5.019531 0.976562 3.527344 0.976562 Z M 3.527344 0.976562 " clip-rule="nonzero"/></clipPath><clipPath id="2e35747fe9"><rect x="0" width="7" y="0" height="7"/></clipPath><clipPath id="b11ac89169"><path d="M 1257.363281 51.976562 L 1262.769531 51.976562 L 1262.769531 57.382812 L 1257.363281 57.382812 Z M 1257.363281 51.976562 " clip-rule="nonzero"/></clipPath><clipPath id="daa8ae26e2"><path d="M 1260.066406 51.976562 C 1258.574219 51.976562 1257.363281 53.1875 1257.363281 54.679688 C 1257.363281 56.171875 1258.574219 57.382812 1260.066406 57.382812 C 1261.5625 57.382812 1262.769531 56.171875 1262.769531 54.679688 C 1262.769531 53.1875 1261.5625 51.976562 1260.066406 51.976562 Z M 1260.066406 51.976562 " clip-rule="nonzero"/></clipPath><clipPath id="3ee67586e2"><path d="M 0.363281 0.976562 L 5.769531 0.976562 L 5.769531 6.382812 L 0.363281 6.382812 Z M 0.363281 0.976562 " clip-rule="nonzero"/></clipPath><clipPath id="e0898d4505"><path d="M 3.066406 0.976562 C 1.574219 0.976562 0.363281 2.1875 0.363281 3.679688 C 0.363281 5.171875 1.574219 6.382812 3.066406 6.382812 C 4.5625 6.382812 5.769531 5.171875 5.769531 3.679688 C 5.769531 2.1875 4.5625 0.976562 3.066406 0.976562 Z M 3.066406 0.976562 " clip-rule="nonzero"/></clipPath><clipPath id="94e5b3d834"><rect x="0" width="6" y="0" height="7"/></clipPath><clipPath id="f3f14a714a"><path d="M 1017.71875 548.503906 L 1136.96875 548.503906 L 1136.96875 810 L 1017.71875 810 Z M 1017.71875 548.503906 " clip-rule="nonzero"/></clipPath></defs><rect x="-144" width="1728" fill="#ffffff" y="-80.999999" height="971.999992" fill-opacity="1"/><rect x="-144" width="1728" fill="#000000" y="-80.999999" height="971.999992" fill-opacity="1"/><g mask="url(#37332e6128)"><g transform="matrix(1, 0, 0, 1, 1163, 0.000000000000039746)"><g clip-path="url(#8d7f477251)"><path fill="#2dc449" d="M 234.207031 72.628906 L 232.191406 72.628906 C 226.359375 72.414062 220.53125 71.671875 217.453125 67.433594 C 215.015625 63.933594 215.335938 59.585938 215.757812 55.238281 C 216.078125 51.316406 216.5 47.394531 214.59375 44.210938 C 213.320312 41.984375 211.09375 40.5 208.761719 38.910156 C 206.425781 37.320312 203.882812 35.519531 202.503906 32.867188 C 198.792969 25.761719 204.941406 18.871094 209.398438 13.886719 L 209.925781 13.359375 C 213.320312 9.753906 217.453125 7.101562 222.121094 5.617188 C 226.679688 3.816406 231.554688 2.542969 236.433594 1.800781 C 239.71875 1.269531 243.21875 1.484375 246.398438 2.542969 C 249.898438 3.921875 252.445312 6.890625 252.867188 10.070312 C 253.292969 13.886719 250.851562 17.070312 248.519531 20.144531 C 247.460938 21.523438 246.507812 22.902344 245.550781 24.386719 C 243.324219 28.519531 242.902344 33.925781 244.386719 40.5 C 244.914062 42.941406 245.65625 45.378906 246.398438 47.710938 C 247.355469 50.679688 248.203125 53.753906 248.839844 56.828125 C 249.6875 61.707031 249.261719 65.3125 247.25 67.960938 C 244.492188 71.78125 239.507812 72.628906 234.207031 72.628906 Z M 240.460938 2.648438 C 239.191406 2.648438 237.917969 2.753906 236.644531 2.859375 C 231.875 3.496094 227.101562 4.769531 222.542969 6.570312 C 217.242188 8.585938 213.636719 10.8125 210.773438 13.996094 L 210.246094 14.523438 C 206.003906 19.296875 200.066406 25.761719 203.457031 32.230469 C 204.730469 34.667969 206.957031 36.152344 209.398438 37.851562 C 211.835938 39.546875 214.0625 41.03125 215.546875 43.46875 C 217.5625 46.96875 217.242188 51.105469 216.820312 55.132812 C 216.394531 59.375 216.078125 63.402344 218.304688 66.582031 C 221.164062 70.71875 226.996094 71.144531 232.191406 71.355469 C 237.8125 71.566406 243.539062 71.144531 246.398438 67.21875 C 248.203125 64.78125 248.625 61.496094 247.777344 56.933594 C 247.140625 53.859375 246.398438 50.890625 245.339844 47.921875 C 244.597656 45.589844 243.855469 43.046875 243.324219 40.605469 C 241.734375 33.820312 242.160156 28.097656 244.597656 23.75 C 245.445312 22.160156 246.507812 20.78125 247.671875 19.296875 C 250.003906 16.328125 252.125 13.464844 251.808594 9.964844 C 251.488281 7.101562 249.261719 4.558594 246.082031 3.285156 C 244.28125 2.859375 242.371094 2.542969 240.460938 2.648438 Z M 240.460938 2.648438 " fill-opacity="1" fill-rule="nonzero"/><g clip-path="url(#704ffc3a11)"><path fill="#2dc449" d="M 249.582031 82.277344 C 246.824219 82.171875 244.066406 81.746094 241.417969 81.109375 C 239.296875 80.578125 237.070312 80.261719 234.949219 80.050781 C 231.875 79.945312 228.695312 80.261719 225.617188 80.792969 C 219.152344 81.746094 212.894531 82.59375 208.65625 77.1875 C 204.835938 72.308594 205.792969 66.265625 206.746094 60.328125 C 207.488281 56.085938 208.125 52.164062 207.0625 48.664062 C 206.109375 45.378906 203.882812 42.941406 201.445312 40.394531 C 199.324219 38.273438 197.519531 35.941406 196.035156 33.503906 C 189.464844 21.839844 194.765625 8.375 200.597656 2.542969 C 203.035156 0.210938 206.003906 0.632812 208.972656 1.058594 C 210.773438 1.484375 212.578125 1.484375 214.378906 1.269531 C 215.652344 0.953125 217.03125 -0.320312 218.515625 -1.484375 C 220.105469 -2.863281 221.800781 -4.347656 223.5 -4.667969 C 226.253906 -4.984375 228.90625 -4.773438 231.554688 -4.136719 C 233.78125 -3.605469 236.117188 -3.289062 238.449219 -3.394531 C 239.828125 -3.5 241.097656 -3.820312 242.476562 -4.136719 C 245.445312 -4.773438 248.414062 -5.515625 250.851562 -4.453125 C 254.671875 -2.757812 257.003906 1.269531 257.003906 6.042969 C 257.003906 9.542969 255.625 12.722656 254.246094 15.691406 C 252.867188 18.339844 252.019531 21.308594 251.59375 24.277344 C 251.066406 29.15625 252.550781 34.777344 253.929688 40.289062 C 254.246094 41.457031 254.5625 42.621094 254.777344 43.683594 C 255.304688 46.015625 255.199219 48.347656 254.457031 50.574219 C 253.820312 52.695312 253.714844 54.921875 254.246094 57.148438 C 254.671875 58.632812 255.199219 60.222656 255.730469 61.917969 C 255.941406 62.660156 256.261719 63.402344 256.472656 64.144531 C 258.167969 69.445312 259.546875 75.277344 256.472656 79.308594 C 254.988281 81.535156 252.445312 82.277344 249.582031 82.277344 Z M 233.464844 78.988281 C 233.996094 78.988281 234.523438 78.988281 235.054688 78.988281 C 237.28125 79.203125 239.507812 79.519531 241.734375 80.050781 C 247.25 81.214844 253.078125 82.382812 256.046875 78.566406 C 258.804688 74.960938 257.53125 69.339844 255.941406 64.355469 C 255.730469 63.613281 255.414062 62.871094 255.199219 62.128906 C 254.671875 60.433594 254.140625 58.84375 253.714844 57.359375 C 253.078125 55.027344 253.1875 52.589844 253.929688 50.253906 C 254.5625 48.136719 254.671875 45.910156 254.246094 43.789062 C 253.929688 42.621094 253.714844 41.5625 253.398438 40.394531 C 251.914062 34.882812 250.429688 29.15625 250.960938 24.066406 C 251.382812 20.992188 252.230469 18.023438 253.714844 15.160156 C 254.988281 12.296875 256.367188 9.222656 256.367188 5.9375 C 256.367188 1.589844 254.351562 -2.015625 250.851562 -3.605469 C 248.839844 -4.453125 245.976562 -3.820312 243.21875 -3.183594 C 241.839844 -2.863281 240.460938 -2.546875 238.976562 -2.441406 C 236.539062 -2.335938 234.101562 -2.652344 231.769531 -3.183594 C 229.222656 -3.925781 226.679688 -4.03125 224.027344 -3.710938 C 222.648438 -3.5 221.058594 -2.121094 219.574219 -0.851562 C 218.089844 0.421875 216.5 1.800781 215.015625 2.117188 C 213.109375 2.4375 211.09375 2.332031 209.183594 2.011719 C 206.320312 1.589844 203.671875 1.164062 201.65625 3.179688 C 196.035156 8.796875 190.949219 21.734375 197.203125 32.867188 C 198.6875 35.304688 200.488281 37.53125 202.503906 39.546875 C 204.941406 42.199219 207.277344 44.742188 208.335938 48.242188 C 209.398438 51.953125 208.761719 56.300781 208.019531 60.433594 C 207.0625 66.054688 206.109375 71.886719 209.714844 76.445312 C 213.53125 81.320312 219.152344 80.578125 225.617188 79.625 C 228.058594 79.203125 230.707031 78.988281 233.464844 78.988281 Z M 233.464844 78.988281 " fill-opacity="1" fill-rule="nonzero"/></g><g clip-path="url(#31acab19d5)"><path fill="#2dc449" d="M 259.757812 93.304688 C 256.15625 93.304688 252.019531 91.820312 247.882812 90.335938 C 244.28125 89.0625 240.675781 87.789062 237.492188 87.578125 C 232.296875 87.257812 227.101562 88.53125 222.121094 89.804688 C 213.636719 92.03125 205.683594 94.046875 199.855469 86.941406 C 194.550781 80.578125 196.355469 72.839844 198.15625 65.417969 C 199.21875 61.070312 200.171875 56.933594 199.746094 53.222656 C 199.21875 48.136719 196.671875 44.425781 193.703125 40.078125 C 192.433594 38.273438 191.160156 36.367188 189.78125 34.140625 C 180.132812 17.917969 184.269531 -1.59375 191.582031 -8.273438 C 194.976562 -11.453125 199.429688 -9.542969 203.671875 -7.742188 C 206.640625 -6.46875 209.714844 -5.195312 212.367188 -5.515625 C 214.378906 -5.726562 216.710938 -8.058594 218.832031 -10.285156 C 221.058594 -12.511719 222.96875 -14.421875 224.984375 -15.058594 C 228.164062 -16.011719 230.921875 -13.996094 233.570312 -11.984375 C 235.796875 -10.285156 238.023438 -8.589844 240.675781 -8.589844 L 240.78125 -8.589844 C 242.6875 -8.800781 244.597656 -9.332031 246.398438 -10.179688 C 249.6875 -11.453125 253.1875 -12.726562 255.519531 -11.558594 C 259.757812 -9.542969 261.878906 -4.667969 261.351562 1.800781 C 260.925781 5.085938 260.183594 8.375 258.910156 11.554688 C 258.699219 12.296875 258.382812 13.039062 258.167969 13.675781 C 257.109375 17.070312 257.003906 20.566406 257.746094 23.960938 C 258.699219 28.203125 260.078125 32.335938 261.878906 36.261719 C 263.363281 39.652344 264.53125 43.046875 265.589844 46.652344 C 266.546875 50.46875 264.953125 52.695312 263.363281 55.027344 C 261.773438 57.253906 260.394531 59.160156 261.351562 62.449219 C 262.199219 65.097656 263.152344 67.644531 264.210938 70.1875 L 264.636719 71.25 C 267.5 78.246094 270.042969 85.5625 266.121094 90.441406 C 264.742188 92.347656 262.304688 93.410156 259.757812 93.304688 Z M 235.796875 86.410156 C 236.433594 86.410156 237.070312 86.410156 237.707031 86.515625 C 240.886719 86.730469 244.703125 88.109375 248.308594 89.378906 C 254.988281 91.710938 261.878906 94.152344 265.378906 89.804688 C 268.878906 85.457031 266.546875 78.460938 263.789062 71.671875 L 263.363281 70.613281 C 262.304688 68.066406 261.351562 65.417969 260.5 62.765625 C 259.441406 58.949219 261.03125 56.617188 262.621094 54.390625 C 264.105469 52.164062 265.589844 50.253906 264.636719 46.96875 C 263.683594 43.46875 262.410156 40.078125 261.03125 36.789062 C 259.230469 32.761719 257.851562 28.625 256.898438 24.277344 C 256.15625 20.675781 256.367188 16.964844 257.425781 13.464844 C 257.640625 12.828125 257.851562 12.085938 258.167969 11.34375 C 259.335938 8.269531 260.078125 5.085938 260.5 1.800781 C 260.820312 -1.699219 260.5 -8.058594 255.304688 -10.5 C 253.292969 -11.453125 250.109375 -10.285156 246.929688 -9.121094 C 245.023438 -8.273438 243.007812 -7.742188 240.886719 -7.53125 C 237.917969 -7.53125 235.375 -9.332031 233.039062 -11.132812 C 230.601562 -12.9375 228.164062 -14.84375 225.40625 -13.996094 C 223.710938 -13.46875 221.589844 -11.453125 219.679688 -9.542969 C 217.347656 -7.210938 214.910156 -4.773438 212.578125 -4.453125 C 209.609375 -4.136719 206.429688 -5.515625 203.351562 -6.789062 C 199.21875 -8.589844 195.292969 -10.179688 192.433594 -7.53125 C 185.644531 -1.167969 181.617188 18.023438 190.839844 33.609375 C 192.113281 35.835938 193.492188 37.636719 194.660156 39.546875 C 197.734375 44 200.382812 47.921875 200.914062 53.222656 C 201.339844 57.148438 200.277344 61.601562 199.324219 65.734375 C 197.628906 72.945312 195.929688 80.367188 200.808594 86.410156 C 206.214844 92.984375 213.53125 91.078125 222.015625 88.851562 C 226.46875 87.578125 231.132812 86.410156 235.796875 86.410156 Z M 235.796875 86.410156 " fill-opacity="1" fill-rule="nonzero"/></g><g clip-path="url(#3718e6e666)"><path fill="#2dc449" d="M 269.195312 104.542969 C 264.742188 104.542969 259.335938 102.101562 254.035156 99.664062 C 249.261719 97.542969 244.28125 95.316406 240.355469 95 C 233.253906 94.363281 226.148438 96.695312 219.152344 98.921875 C 208.546875 102.316406 198.582031 105.601562 191.160156 96.695312 C 184.480469 88.742188 187.128906 79.414062 189.78125 70.402344 C 191.054688 65.949219 192.324219 61.707031 192.433594 57.675781 C 192.644531 49.726562 189.25 44.105469 184.160156 35.730469 L 183.527344 34.667969 C 171.015625 14.101562 174.195312 -11.769531 182.464844 -19.296875 C 186.8125 -23.222656 192.644531 -19.933594 198.371094 -16.753906 C 202.398438 -14.527344 206.640625 -12.195312 210.246094 -12.300781 C 212.789062 -12.40625 215.757812 -15.695312 218.621094 -18.769531 C 221.484375 -21.84375 224.027344 -24.8125 226.679688 -25.34375 C 230.179688 -26.085938 232.828125 -22.902344 235.480469 -19.722656 C 237.8125 -16.859375 240.25 -13.890625 243.21875 -13.890625 C 244.914062 -13.890625 247.671875 -15.164062 250.21875 -16.328125 C 254.035156 -18.132812 257.957031 -19.933594 260.5 -18.664062 C 265.273438 -16.222656 267.074219 -10.605469 266.015625 -2.335938 C 265.484375 0.742188 264.847656 3.816406 263.894531 6.785156 C 263.363281 8.585938 262.941406 10.285156 262.621094 11.769531 C 261.878906 15.265625 262.410156 19.082031 264.320312 23.855469 C 265.910156 27.566406 267.710938 31.171875 269.726562 34.5625 C 272.484375 39.652344 275.347656 44.847656 276.617188 49.621094 C 277.890625 54.496094 275.132812 56.828125 272.484375 59.160156 C 269.832031 61.601562 267.605469 63.613281 268.667969 67.644531 C 269.832031 71.144531 271.210938 74.535156 272.800781 77.929688 L 273.011719 78.351562 C 276.300781 85.5625 280.964844 95.53125 275.980469 101.574219 C 274.179688 103.585938 271.742188 104.648438 269.195312 104.542969 Z M 238.023438 93.832031 C 238.871094 93.832031 239.613281 93.832031 240.355469 93.9375 C 244.492188 94.257812 249.582031 96.484375 254.351562 98.710938 C 262.304688 102.316406 270.574219 106.027344 274.816406 100.9375 C 278.949219 95.847656 275.664062 87.578125 271.636719 78.882812 L 271.421875 78.566406 C 269.726562 75.171875 268.347656 71.671875 267.179688 68.175781 C 265.910156 63.507812 268.664062 60.964844 271.316406 58.632812 C 273.96875 56.300781 276.195312 54.179688 275.132812 50.148438 C 273.863281 45.484375 271 40.289062 268.347656 35.304688 C 266.332031 31.808594 264.53125 28.203125 262.941406 24.386719 C 260.925781 19.296875 260.394531 15.371094 261.136719 11.660156 C 261.457031 10.070312 261.984375 8.375 262.515625 6.574219 C 263.46875 3.601562 264.105469 0.632812 264.636719 -2.441406 C 265.378906 -7.847656 265.167969 -14.84375 259.757812 -17.707031 C 257.746094 -18.769531 254.035156 -16.964844 250.429688 -15.375 C 247.671875 -14.101562 245.023438 -12.832031 243.007812 -12.832031 L 242.902344 -12.832031 C 239.402344 -12.832031 236.859375 -16.011719 234.417969 -19.085938 C 231.875 -22.160156 229.542969 -25.023438 226.679688 -24.386719 C 224.347656 -23.859375 221.695312 -20.890625 219.152344 -18.132812 C 216.183594 -14.84375 213.109375 -11.453125 210.03125 -11.242188 C 206.109375 -11.027344 201.761719 -13.46875 197.628906 -15.800781 C 192.007812 -18.875 186.8125 -21.84375 182.996094 -18.449219 L 182.675781 -18.875 L 182.996094 -18.449219 C 175.042969 -11.242188 171.96875 13.996094 184.269531 34.140625 L 184.902344 35.199219 C 189.992188 43.46875 193.597656 49.40625 193.386719 57.785156 C 193.28125 61.917969 192.007812 66.371094 190.734375 70.71875 C 188.191406 79.519531 185.539062 88.53125 191.902344 96.058594 C 198.898438 104.4375 208.125 101.359375 218.832031 97.96875 C 225.089844 95.953125 231.449219 93.832031 238.023438 93.832031 Z M 238.023438 93.832031 " fill-opacity="1" fill-rule="nonzero"/></g><g clip-path="url(#f91f665b0e)"><path fill="#2dc449" d="M 278.421875 115.886719 C 273.121094 115.886719 266.4375 112.492188 259.972656 109.101562 C 254.035156 106.027344 247.882812 102.953125 243.007812 102.527344 C 233.890625 101.785156 224.984375 105.070312 216.289062 108.148438 C 203.566406 112.8125 191.582031 117.265625 182.464844 106.554688 C 174.300781 97.015625 178.011719 86.09375 181.617188 75.492188 C 183.207031 71.25 184.375 66.902344 185.222656 62.449219 C 186.496094 52.589844 183.417969 45.378906 177.269531 35.410156 C 161.472656 9.964844 164.015625 -21.738281 173.347656 -30.007812 C 178.648438 -34.671875 185.964844 -30.007812 192.960938 -25.554688 C 198.050781 -22.265625 203.457031 -18.875 208.019531 -18.980469 C 211.199219 -18.980469 214.699219 -23.222656 218.195312 -27.25 C 221.589844 -31.28125 224.984375 -35.203125 228.269531 -35.734375 C 232.085938 -36.367188 234.738281 -31.808594 237.386719 -27.570312 C 239.828125 -23.539062 242.265625 -19.40625 245.550781 -19.191406 C 247.460938 -19.085938 250.640625 -20.78125 253.820312 -22.480469 C 258.167969 -24.8125 262.621094 -27.25 265.273438 -25.765625 C 270.574219 -22.902344 272.164062 -16.648438 270.46875 -6.574219 C 269.9375 -3.605469 269.195312 -0.742188 268.453125 2.011719 C 267.710938 4.558594 267.074219 7.207031 266.652344 9.859375 C 266.121094 13.78125 267.289062 18.023438 270.46875 23.855469 C 272.269531 27.140625 274.496094 30.429688 276.9375 34.035156 C 281.175781 40.394531 285.628906 46.863281 287.328125 52.90625 C 288.8125 58.527344 284.996094 61.175781 281.285156 63.722656 C 277.574219 66.265625 274.285156 68.492188 275.664062 73.371094 C 277.042969 77.71875 278.84375 81.851562 280.964844 85.882812 C 285.523438 95 291.144531 106.34375 285.523438 113.128906 C 283.511719 114.933594 280.964844 115.992188 278.421875 115.886719 Z M 240.25 101.359375 C 241.203125 101.359375 242.160156 101.359375 243.113281 101.46875 C 248.203125 101.890625 254.351562 105.070312 260.394531 108.253906 C 269.832031 113.128906 279.480469 118.113281 284.359375 112.28125 C 289.449219 106.027344 284.039062 95.105469 279.691406 86.199219 C 277.574219 81.851562 275.347656 77.398438 274.285156 73.476562 C 272.800781 67.855469 276.617188 65.207031 280.328125 62.660156 C 284.039062 60.117188 287.222656 57.890625 285.949219 53.011719 C 284.359375 47.179688 280.011719 40.714844 275.769531 34.457031 C 273.332031 30.851562 271.105469 27.460938 269.195312 24.171875 C 266.96875 20.144531 264.53125 14.84375 265.167969 9.539062 C 265.589844 6.890625 266.226562 4.238281 266.96875 1.589844 C 267.710938 -1.167969 268.453125 -3.925781 268.984375 -6.894531 C 270.679688 -16.542969 269.195312 -22.480469 264.320312 -25.023438 C 262.199219 -26.191406 257.746094 -23.859375 253.929688 -21.738281 C 250.535156 -19.933594 247.355469 -18.238281 245.128906 -18.238281 C 241.3125 -18.449219 238.660156 -22.796875 236.117188 -27.144531 C 233.570312 -31.386719 231.238281 -35.308594 228.058594 -34.882812 C 225.089844 -34.460938 221.800781 -30.539062 218.621094 -26.828125 C 215.015625 -22.585938 211.304688 -18.238281 207.699219 -18.238281 L 207.59375 -18.238281 C 202.714844 -18.238281 197.308594 -21.632812 192.113281 -25.023438 C 185.117188 -29.476562 178.4375 -33.71875 173.769531 -29.582031 C 164.652344 -21.632812 162.425781 9.433594 177.90625 34.457031 C 184.054688 44.316406 187.34375 52.058594 186.070312 62.238281 C 185.328125 66.796875 184.054688 71.25 182.464844 75.492188 C 178.964844 85.773438 175.363281 96.484375 183.101562 105.601562 C 191.796875 115.78125 202.929688 111.644531 215.863281 106.875 C 223.816406 104.328125 231.875 101.359375 240.25 101.359375 Z M 240.25 101.359375 " fill-opacity="1" fill-rule="nonzero"/></g><g clip-path="url(#491479b5af)"><path fill="#2dc449" d="M 287.433594 127.335938 C 281.285156 127.335938 273.4375 122.882812 265.804688 118.644531 C 258.699219 114.71875 251.488281 110.585938 245.65625 110.054688 C 234.632812 108.996094 223.816406 113.34375 213.320312 117.476562 C 198.476562 123.414062 184.375 128.929688 173.453125 116.417969 C 163.804688 105.285156 168.574219 92.667969 173.136719 80.578125 C 174.9375 76.234375 176.421875 71.671875 177.480469 67.113281 C 179.707031 56.300781 177.800781 47.605469 170.484375 36.046875 C 151.824219 6.464844 153.097656 -31.597656 163.699219 -40.714844 L 164.015625 -40.292969 L 163.699219 -40.714844 C 169.953125 -46.125 178.648438 -40.1875 187.023438 -34.355469 C 193.28125 -30.113281 199.640625 -25.660156 205.15625 -25.554688 L 205.261719 -25.554688 C 208.972656 -25.554688 213.109375 -30.644531 217.136719 -35.519531 C 221.273438 -40.609375 225.195312 -45.382812 229.222656 -45.804688 C 233.253906 -46.230469 235.902344 -40.714844 238.660156 -34.992188 C 241.097656 -29.796875 243.644531 -24.386719 247.25 -24.175781 C 249.367188 -24.070312 253.078125 -26.191406 256.683594 -28.417969 C 261.5625 -31.28125 266.546875 -34.25 269.300781 -32.65625 C 276.832031 -28.417969 275.664062 -18.027344 274.179688 -10.5 C 273.648438 -7.742188 272.90625 -5.089844 272.269531 -2.441406 C 271.210938 1.058594 270.46875 4.558594 270.042969 8.164062 C 269.726562 12.507812 271.527344 17.28125 276.089844 23.960938 C 278.316406 27.246094 280.859375 30.535156 283.617188 34.035156 C 289.449219 41.457031 295.492188 49.089844 297.398438 56.085938 C 299.203125 62.554688 294.21875 65.3125 289.449219 68.066406 C 284.675781 70.824219 280.433594 73.15625 282.027344 78.882812 C 283.191406 83.230469 285.949219 88.53125 288.386719 93.195312 C 294.113281 104.328125 300.6875 116.945312 294.429688 124.367188 C 292.945312 126.277344 290.191406 127.445312 287.433594 127.335938 Z M 242.371094 108.78125 C 243.539062 108.78125 244.597656 108.78125 245.765625 108.890625 C 251.703125 109.417969 259.125 113.554688 266.226562 117.582031 C 277.042969 123.625 288.175781 129.988281 293.6875 123.308594 C 299.519531 116.3125 293.160156 104.117188 287.539062 93.304688 C 285.101562 88.53125 282.34375 83.230469 281.070312 78.777344 C 279.375 72.308594 284.253906 69.550781 289.023438 66.796875 C 293.792969 64.039062 298.035156 61.707031 296.445312 56.085938 C 294.535156 49.300781 288.597656 41.667969 282.769531 34.351562 C 280.011719 30.851562 277.359375 27.566406 275.132812 24.277344 C 271.847656 19.402344 268.558594 13.675781 268.878906 7.84375 C 269.300781 4.132812 270.042969 0.527344 271.105469 -2.96875 C 271.742188 -5.515625 272.484375 -8.273438 273.011719 -10.921875 C 275.347656 -22.265625 273.96875 -28.945312 268.664062 -31.914062 C 266.4375 -33.1875 261.457031 -30.21875 257.109375 -27.675781 C 253.1875 -25.34375 249.476562 -23.117188 247.035156 -23.328125 C 242.902344 -23.644531 240.25 -29.265625 237.601562 -34.777344 C 235.160156 -39.972656 232.617188 -45.382812 229.222656 -44.957031 C 225.617188 -44.640625 221.695312 -39.761719 217.878906 -34.992188 C 213.53125 -29.6875 209.398438 -24.601562 205.15625 -24.601562 L 205.050781 -24.601562 C 199.21875 -24.707031 192.644531 -29.160156 186.28125 -33.507812 C 177.800781 -39.335938 169.847656 -44.746094 164.230469 -39.972656 C 153.839844 -31.066406 152.882812 6.359375 171.226562 35.519531 C 178.648438 47.285156 180.664062 56.191406 178.332031 67.324219 C 177.164062 71.992188 175.679688 76.550781 173.878906 80.898438 C 169.316406 92.773438 164.652344 105.070312 173.984375 115.675781 C 184.375 127.65625 197.414062 122.460938 212.578125 116.417969 C 222.542969 112.707031 232.296875 108.78125 242.371094 108.78125 Z M 242.371094 108.78125 " fill-opacity="1" fill-rule="nonzero"/></g><g clip-path="url(#cb9435f5eb)"><path fill="#2dc449" d="M 296.550781 138.789062 C 289.554688 138.789062 280.542969 133.382812 271.742188 128.078125 C 263.578125 123.203125 255.09375 118.113281 248.519531 117.476562 C 235.585938 116.3125 222.863281 121.507812 210.667969 126.703125 C 193.597656 133.804688 177.480469 140.589844 164.863281 126.171875 C 153.730469 113.449219 159.5625 99.242188 165.289062 85.457031 C 167.304688 81.003906 169 76.339844 170.378906 71.671875 C 173.878906 58.84375 172.074219 48.769531 164.441406 36.683594 C 142.386719 2.117188 142.8125 -41.457031 154.792969 -51.53125 C 162.003906 -57.679688 172.179688 -50.363281 181.933594 -43.261719 C 189.25 -37.960938 196.777344 -32.550781 203.246094 -32.339844 L 203.351562 -32.339844 C 207.488281 -32.339844 212.046875 -38.277344 216.5 -44.109375 C 221.484375 -50.683594 226.253906 -56.832031 231.132812 -56.195312 C 235.375 -55.667969 237.917969 -49.304688 240.570312 -42.730469 C 243.113281 -36.367188 245.765625 -29.902344 249.6875 -29.476562 C 252.019531 -29.265625 256.261719 -31.914062 260.394531 -34.566406 C 266.015625 -38.171875 271.316406 -41.457031 274.285156 -39.761719 C 282.238281 -35.203125 280.964844 -24.492188 278.84375 -14.738281 C 278.316406 -12.195312 277.574219 -9.648438 276.9375 -7.210938 C 275.664062 -2.335938 274.390625 2.332031 274.285156 6.148438 C 274.179688 12.191406 278.316406 18.449219 282.449219 23.75 C 284.996094 27.035156 287.964844 30.429688 291.039062 33.925781 C 298.460938 42.410156 306.09375 50.996094 308.320312 58.949219 C 310.441406 66.265625 304.398438 69.234375 298.566406 72.097656 C 292.734375 74.960938 287.539062 77.503906 289.234375 83.972656 C 290.507812 88.53125 293.265625 94.046875 296.65625 100.089844 L 296.871094 100.511719 C 303.550781 112.917969 311.183594 127.019531 304.292969 135.289062 C 302.277344 137.621094 299.414062 138.894531 296.550781 138.789062 Z M 244.703125 116.3125 C 245.976562 116.3125 247.355469 116.417969 248.625 116.523438 C 255.414062 117.160156 264 122.25 272.269531 127.230469 C 284.464844 134.546875 297.1875 142.074219 303.441406 134.761719 C 309.910156 127.019531 302.488281 113.34375 295.914062 101.148438 L 295.703125 100.726562 C 292.203125 94.257812 289.554688 89.0625 288.175781 84.289062 C 286.160156 76.976562 292.203125 74.007812 298.035156 71.144531 C 303.867188 68.28125 309.0625 65.734375 307.261719 59.269531 C 305.035156 51.527344 297.503906 42.941406 290.191406 34.667969 C 287.222656 31.277344 284.144531 27.777344 281.496094 24.386719 C 277.253906 18.976562 272.90625 12.511719 273.011719 6.042969 C 273.121094 2.117188 274.390625 -2.546875 275.664062 -7.53125 C 276.300781 -9.96875 276.9375 -12.511719 277.574219 -15.058594 C 279.691406 -24.492188 280.859375 -34.777344 273.542969 -38.914062 C 271.105469 -40.292969 265.695312 -36.792969 260.820312 -33.71875 C 256.367188 -30.855469 252.125 -28.203125 249.476562 -28.417969 C 244.914062 -28.839844 242.160156 -35.734375 239.507812 -42.304688 C 237.070312 -48.351562 234.523438 -54.710938 230.921875 -55.136719 C 226.679688 -55.667969 221.90625 -49.410156 217.347656 -43.472656 C 212.578125 -37.21875 208.019531 -31.28125 203.351562 -31.28125 L 203.246094 -31.28125 C 196.460938 -31.492188 188.722656 -37.003906 181.300781 -42.414062 C 171.4375 -49.621094 162.109375 -56.300781 155.535156 -50.683594 C 144.1875 -41.035156 143.976562 2.648438 165.394531 36.261719 C 173.242188 48.664062 175.042969 59.054688 171.4375 72.097656 C 170.058594 76.867188 168.257812 81.535156 166.347656 86.09375 C 160.730469 99.558594 155.003906 113.449219 165.714844 125.640625 C 177.800781 139.425781 192.855469 133.167969 210.246094 125.851562 C 221.273438 121.082031 232.722656 116.3125 244.703125 116.3125 Z M 244.703125 116.3125 " fill-opacity="1" fill-rule="nonzero"/></g><g clip-path="url(#71aef1315f)"><path fill="#2dc449" d="M 305.457031 150.238281 C 297.613281 150.238281 287.433594 143.878906 277.464844 137.515625 C 268.136719 131.683594 258.59375 125.640625 251.171875 125.003906 C 236.222656 123.625 221.800781 129.882812 207.699219 135.925781 C 188.402344 144.300781 170.273438 152.148438 155.957031 135.925781 C 143.234375 121.507812 150.339844 105.707031 157.125 90.335938 C 159.246094 85.773438 161.152344 81.003906 162.851562 76.234375 C 167.621094 61.386719 166.136719 50.042969 157.867188 37.214844 C 132.949219 -1.59375 132.421875 -51.636719 145.355469 -62.453125 C 153.625 -69.34375 164.546875 -61.074219 176.210938 -52.273438 C 184.585938 -45.910156 193.28125 -39.445312 200.703125 -39.125 C 205.472656 -38.914062 210.667969 -45.910156 215.757812 -52.695312 C 221.484375 -60.332031 226.785156 -67.433594 232.296875 -66.585938 C 236.859375 -65.84375 239.402344 -58.421875 242.160156 -50.578125 C 244.808594 -43.046875 247.460938 -35.308594 251.703125 -34.777344 C 254.140625 -34.460938 259.015625 -37.640625 263.578125 -40.820312 C 269.726562 -44.957031 275.558594 -48.773438 278.632812 -46.972656 C 287.007812 -41.988281 285.628906 -30.644531 282.875 -18.980469 C 282.34375 -16.542969 281.601562 -14.210938 281.070312 -11.875 C 279.480469 -5.9375 277.890625 -0.214844 277.996094 4.238281 C 278.101562 10.917969 283.296875 17.8125 288.386719 23.75 C 291.355469 27.140625 294.75 30.746094 298.140625 34.246094 C 307.046875 43.574219 316.273438 53.332031 318.816406 62.023438 C 321.148438 70.1875 314.046875 73.265625 307.152344 76.339844 C 300.261719 79.414062 294.007812 82.171875 296.019531 89.484375 C 297.398438 94.574219 300.6875 100.617188 304.503906 107.511719 L 304.925781 108.359375 C 312.5625 122.140625 321.253906 137.730469 313.621094 146.742188 C 311.605469 148.96875 308.636719 150.347656 305.457031 150.238281 Z M 246.824219 123.734375 C 248.308594 123.734375 249.792969 123.839844 251.277344 123.945312 C 258.910156 124.6875 268.558594 130.730469 277.996094 136.667969 C 291.675781 145.257812 305.777344 154.058594 312.773438 145.894531 C 319.984375 137.410156 311.5 122.25 303.972656 108.78125 L 303.550781 107.933594 C 299.730469 101.042969 296.445312 94.894531 295.066406 89.699219 C 292.839844 81.535156 299.945312 78.351562 306.835938 75.382812 C 313.726562 72.414062 319.984375 69.660156 317.863281 62.34375 C 315.425781 53.753906 306.199219 44.210938 297.398438 34.988281 C 294.007812 31.488281 290.613281 27.882812 287.644531 24.386719 C 282.449219 18.339844 277.148438 11.238281 277.042969 4.238281 C 276.9375 -0.425781 278.527344 -6.152344 280.117188 -12.195312 C 280.753906 -14.527344 281.390625 -16.859375 281.917969 -19.296875 C 284.570312 -30.429688 285.949219 -41.457031 278.207031 -46.125 C 275.664062 -47.609375 269.621094 -43.578125 264.320312 -39.972656 C 259.335938 -36.582031 254.5625 -33.507812 251.703125 -33.824219 C 246.824219 -34.355469 244.171875 -42.09375 241.3125 -50.257812 C 238.765625 -57.46875 236.222656 -64.996094 232.296875 -65.632812 C 227.527344 -66.375 222.015625 -59.164062 216.820312 -52.167969 C 211.304688 -44.851562 206.214844 -37.960938 200.808594 -38.171875 C 193.066406 -38.488281 184.269531 -45.167969 175.785156 -51.53125 C 164.441406 -60.011719 153.839844 -68.070312 146.203125 -61.710938 C 133.480469 -51.105469 134.222656 -1.804688 158.925781 36.578125 C 167.410156 49.726562 168.894531 61.28125 164.015625 76.550781 C 162.320312 81.429688 160.410156 86.09375 158.292969 90.757812 C 151.613281 105.8125 144.613281 121.292969 156.914062 135.183594 C 170.695312 150.769531 187.660156 143.347656 207.382812 134.867188 C 220 129.457031 233.148438 123.734375 246.824219 123.734375 Z M 246.824219 123.734375 " fill-opacity="1" fill-rule="nonzero"/></g><g clip-path="url(#eb369fbbd5)"><path fill="#2dc449" d="M 314.363281 161.691406 C 305.777344 161.691406 294.324219 154.269531 283.191406 147.058594 C 272.800781 140.273438 261.984375 133.277344 253.820312 132.53125 C 236.964844 130.941406 220.636719 138.152344 204.835938 145.257812 C 183.417969 154.800781 163.167969 163.8125 147.160156 145.894531 C 132.949219 129.882812 141.21875 112.386719 149.171875 95.53125 C 151.398438 90.757812 153.730469 85.773438 155.535156 81.003906 C 159.988281 68.703125 162.53125 55.027344 151.613281 37.957031 C 123.40625 -5.832031 122.136719 -61.390625 136.34375 -73.160156 C 145.566406 -80.792969 157.867188 -71.253906 171.015625 -61.074219 C 180.449219 -53.757812 190.207031 -46.230469 198.476562 -45.699219 C 203.777344 -45.488281 209.714844 -53.441406 215.441406 -61.179688 C 221.800781 -69.769531 227.84375 -77.933594 233.890625 -76.871094 C 238.660156 -76.023438 241.3125 -67.433594 244.066406 -58.316406 C 246.71875 -49.621094 249.476562 -40.609375 253.929688 -39.972656 C 256.578125 -39.65625 261.878906 -43.261719 267.074219 -46.867188 C 273.753906 -51.53125 280.117188 -55.984375 283.296875 -53.96875 C 292.203125 -48.5625 290.507812 -35.945312 287.222656 -23.117188 C 286.691406 -20.890625 286.054688 -18.664062 285.417969 -16.4375 C 283.511719 -9.4375 281.707031 -2.757812 281.917969 2.4375 C 282.238281 9.753906 288.492188 17.28125 294.535156 23.75 C 297.824219 27.355469 301.640625 31.066406 305.351562 34.667969 C 315.847656 44.953125 326.664062 55.558594 329.421875 65.207031 C 332.070312 74.21875 323.90625 77.503906 315.953125 80.6875 C 308.003906 83.867188 300.6875 86.835938 302.914062 94.894531 C 304.398438 100.511719 308.109375 107.191406 312.347656 114.71875 L 313.089844 115.992188 C 321.679688 131.050781 331.328125 148.121094 323.058594 157.875 C 320.832031 160.417969 317.652344 161.796875 314.363281 161.691406 Z M 248.945312 131.15625 C 250.640625 131.15625 252.335938 131.261719 253.929688 131.367188 C 262.410156 132.214844 273.226562 139.214844 283.722656 146.105469 C 298.882812 155.859375 314.46875 166.039062 322.210938 157.027344 C 330.054688 147.800781 320.511719 131.046875 312.136719 116.3125 L 311.394531 115.039062 C 307.046875 107.40625 303.441406 100.726562 301.851562 94.894531 C 299.414062 85.882812 307.578125 82.59375 315.53125 79.414062 C 323.480469 76.234375 330.691406 73.371094 328.359375 65.207031 C 325.601562 55.875 314.894531 45.378906 304.503906 35.199219 C 300.792969 31.59375 296.976562 27.777344 293.6875 24.171875 C 287.539062 17.597656 281.175781 9.753906 280.859375 2.117188 C 280.648438 -3.289062 282.449219 -9.96875 284.359375 -17.070312 C 284.996094 -19.191406 285.523438 -21.417969 286.160156 -23.644531 C 289.765625 -38.066406 290.613281 -48.667969 282.660156 -53.332031 C 280.011719 -54.925781 273.332031 -50.363281 267.5 -46.230469 C 261.984375 -42.414062 256.683594 -38.703125 253.609375 -39.125 C 248.519531 -39.761719 245.765625 -48.773438 242.902344 -58.210938 C 240.355469 -66.585938 237.707031 -75.28125 233.570312 -76.023438 C 228.164062 -76.976562 222.121094 -68.8125 216.183594 -60.753906 C 210.03125 -52.378906 204.308594 -44.53125 198.371094 -44.851562 C 189.675781 -45.382812 179.816406 -53.015625 170.167969 -60.4375 C 157.441406 -70.296875 145.355469 -79.628906 136.875 -72.523438 C 129.769531 -66.691406 126.800781 -50.046875 129.132812 -29.054688 C 131.679688 -5.9375 140.160156 18.234375 152.460938 37.214844 C 163.699219 54.601562 161.046875 68.597656 156.488281 81.214844 C 154.6875 85.988281 152.355469 90.96875 150.128906 95.742188 C 142.28125 112.28125 134.222656 129.457031 147.898438 144.9375 C 163.378906 162.328125 182.359375 153.84375 204.414062 144.089844 C 218.832031 137.835938 233.675781 131.15625 248.945312 131.15625 Z M 248.945312 131.15625 " fill-opacity="1" fill-rule="nonzero"/></g><g clip-path="url(#3a930c4e46)"><path fill="#2dc449" d="M 323.375 173.140625 C 313.941406 173.140625 301.324219 164.765625 289.023438 156.496094 C 277.464844 148.863281 265.589844 140.910156 256.578125 139.957031 C 237.8125 138.046875 219.679688 146.421875 202.082031 154.375 C 178.4375 165.191406 156.171875 175.367188 138.464844 155.542969 C 122.664062 137.941406 132.101562 118.855469 141.328125 100.40625 C 143.765625 95.53125 146.308594 90.441406 148.21875 85.5625 C 153.625 71.886719 157.019531 56.722656 145.25 38.488281 C 131.570312 17.386719 121.921875 -9.4375 118.847656 -35.203125 C 115.984375 -58.847656 119.167969 -77.507812 127.117188 -84.082031 C 137.296875 -92.457031 150.976562 -81.644531 165.5 -70.085938 C 176.105469 -61.710938 186.917969 -53.121094 196.144531 -52.589844 C 202.082031 -52.167969 208.65625 -61.179688 214.910156 -69.875 C 221.90625 -79.523438 228.585938 -88.640625 235.265625 -87.261719 C 240.355469 -86.203125 243.007812 -76.449219 245.871094 -66.164062 C 248.625 -56.300781 251.382812 -46.015625 256.15625 -45.273438 C 259.015625 -44.851562 264.847656 -48.984375 270.46875 -53.121094 C 277.679688 -58.316406 284.570312 -63.300781 287.964844 -61.179688 C 297.929688 -55.03125 295.066406 -40.503906 291.566406 -27.460938 C 291.039062 -25.34375 290.402344 -23.328125 289.871094 -21.3125 C 287.644531 -13.253906 285.417969 -5.621094 285.949219 0.316406 C 286.585938 8.164062 293.792969 16.433594 300.6875 23.535156 C 304.398438 27.246094 308.636719 31.171875 312.667969 34.988281 C 324.648438 46.121094 337.054688 57.675781 340.128906 68.066406 C 342.992188 77.929688 333.765625 81.320312 324.859375 84.714844 C 315.953125 88.109375 307.472656 91.183594 309.910156 100.089844 C 311.605469 106.238281 315.847656 113.871094 320.40625 121.824219 L 321.363281 123.519531 C 330.902344 139.847656 341.613281 158.402344 332.601562 169.007812 C 330.269531 171.761719 326.875 173.246094 323.375 173.140625 Z M 251.171875 138.683594 C 252.972656 138.683594 254.882812 138.789062 256.683594 139 C 266.015625 139.957031 277.996094 147.90625 289.660156 155.648438 C 306.199219 166.675781 323.375 178.125 331.753906 168.371094 C 340.339844 158.402344 329.738281 140.167969 320.40625 124.15625 L 319.453125 122.566406 C 314.789062 114.613281 310.546875 106.875 308.851562 100.617188 C 306.199219 90.757812 315.425781 87.257812 324.4375 83.972656 C 333.449219 80.578125 341.71875 77.609375 339.070312 68.597656 C 336.101562 58.417969 323.800781 47.074219 311.925781 35.941406 C 307.789062 32.125 303.65625 28.203125 299.945312 24.492188 C 292.839844 17.28125 285.523438 8.90625 284.886719 0.632812 C 284.464844 -5.515625 286.585938 -13.148438 288.917969 -21.3125 C 289.449219 -23.328125 290.082031 -25.449219 290.613281 -27.460938 C 294.007812 -40.1875 296.761719 -54.289062 287.433594 -60.011719 C 284.675781 -61.710938 277.464844 -56.621094 271.105469 -52.0625 C 265.0625 -47.714844 259.335938 -43.578125 256.046875 -44.109375 C 250.640625 -44.957031 247.882812 -55.03125 244.914062 -65.738281 C 242.265625 -75.28125 239.613281 -85.140625 235.160156 -86.097656 C 229.117188 -87.261719 222.4375 -78.039062 215.863281 -69.132812 C 209.078125 -59.800781 202.714844 -51 196.144531 -51.425781 C 186.496094 -52.0625 175.46875 -60.753906 164.863281 -69.132812 C 150.65625 -80.371094 137.296875 -90.972656 127.859375 -83.128906 L 127.542969 -83.550781 L 127.859375 -83.128906 C 113.015625 -70.933594 115.457031 -9.226562 146.203125 38.0625 C 158.292969 56.617188 154.792969 72.097656 149.277344 86.09375 C 147.265625 91.078125 144.824219 96.164062 142.386719 101.042969 C 133.375 119.171875 124.042969 137.941406 139.3125 155.011719 C 156.488281 174.203125 177.480469 164.660156 201.761719 153.632812 C 217.5625 146.210938 234.101562 138.683594 251.171875 138.683594 Z M 251.171875 138.683594 " fill-opacity="1" fill-rule="nonzero"/></g><g clip-path="url(#ba4eaba754)"><path fill="#2dc449" d="M 332.28125 184.59375 C 321.996094 184.59375 308.214844 175.15625 294.855469 166.039062 C 282.238281 157.449219 269.195312 148.542969 259.335938 147.484375 C 238.660156 145.363281 218.621094 154.691406 199.324219 163.707031 C 173.558594 175.6875 149.171875 187.03125 129.664062 165.402344 C 112.382812 146.105469 123.089844 125.429688 133.375 105.496094 C 135.917969 100.511719 138.675781 95.316406 140.796875 90.226562 C 147.265625 75.171875 151.503906 58.527344 138.886719 39.121094 C 106.972656 -9.863281 99.765625 -80.160156 117.894531 -94.894531 C 129.027344 -104.015625 144.082031 -91.820312 160.09375 -78.992188 C 171.757812 -69.660156 183.738281 -59.90625 193.917969 -59.269531 C 200.382812 -58.847656 207.59375 -68.8125 214.59375 -78.355469 C 222.332031 -89.066406 229.542969 -99.136719 236.859375 -97.546875 C 242.160156 -96.378906 244.914062 -85.460938 247.777344 -73.902344 C 250.535156 -62.769531 253.398438 -51.320312 258.382812 -50.46875 C 261.457031 -49.941406 267.816406 -54.710938 273.863281 -59.164062 C 281.601562 -64.890625 289.023438 -70.296875 292.628906 -68.070312 C 303.125 -61.496094 300.050781 -46.335938 295.914062 -31.386719 C 295.386719 -29.476562 294.855469 -27.570312 294.324219 -25.660156 C 291.675781 -16.542969 289.234375 -7.953125 289.871094 -1.273438 C 290.71875 7.207031 298.882812 16.113281 306.835938 23.75 C 310.863281 27.671875 315.53125 31.808594 319.984375 35.730469 C 333.554688 47.710938 347.445312 60.222656 350.835938 71.355469 C 354.019531 82.0625 343.628906 85.667969 333.660156 89.167969 C 323.695312 92.667969 314.257812 95.953125 316.910156 105.707031 C 318.710938 112.386719 323.375 120.65625 328.464844 129.246094 L 329.632812 131.261719 C 340.554688 149.816406 351.898438 169.007812 342.144531 180.351562 C 339.492188 183.109375 335.992188 184.699219 332.28125 184.59375 Z M 253.292969 146.105469 C 255.304688 146.105469 257.320312 146.210938 259.335938 146.421875 C 269.40625 147.484375 282.660156 156.390625 295.277344 165.082031 C 313.304688 177.382812 331.964844 190.105469 341.082031 179.503906 C 350.203125 168.902344 338.75 149.074219 328.464844 131.683594 L 327.300781 129.671875 C 322.210938 120.976562 317.542969 112.707031 315.636719 105.8125 C 312.773438 95.105469 323.058594 91.394531 333.132812 88 C 343.203125 84.609375 352.429688 81.214844 349.566406 71.566406 C 346.382812 60.644531 332.496094 48.242188 319.027344 36.367188 C 314.574219 32.441406 309.910156 28.308594 305.882812 24.386719 C 297.824219 16.644531 289.449219 7.527344 288.597656 -1.273438 C 287.964844 -8.058594 290.402344 -16.753906 293.050781 -25.976562 C 293.582031 -27.886719 294.113281 -29.796875 294.644531 -31.703125 C 298.671875 -46.230469 301.640625 -60.96875 291.78125 -67.222656 C 288.8125 -69.132812 281.070312 -63.40625 274.285156 -58.316406 C 267.710938 -53.4375 261.457031 -48.773438 257.957031 -49.410156 C 252.230469 -50.363281 249.476562 -61.605469 246.507812 -73.585938 C 243.855469 -84.292969 241.097656 -95.425781 236.433594 -96.488281 C 229.859375 -97.972656 222.4375 -87.6875 215.226562 -77.71875 C 208.019531 -67.753906 200.808594 -57.679688 193.703125 -58.210938 C 183.101562 -58.953125 171.015625 -68.707031 159.246094 -78.144531 C 143.660156 -90.761719 128.921875 -102.53125 118.425781 -94.046875 C 102.414062 -80.902344 105.59375 -13.46875 139.628906 38.59375 C 152.566406 58.417969 148.21875 75.277344 141.644531 90.652344 C 139.417969 95.742188 136.765625 100.9375 134.222656 105.921875 C 124.042969 125.640625 113.546875 146 130.300781 164.660156 C 149.171875 185.652344 172.179688 175.050781 198.6875 162.75 C 216.394531 154.585938 234.523438 146.105469 253.292969 146.105469 Z M 253.292969 146.105469 " fill-opacity="1" fill-rule="nonzero"/></g><g clip-path="url(#29dad4d277)"><path fill="#2dc449" d="M 341.1875 196.042969 C 330.160156 196.042969 315.210938 185.652344 300.582031 175.472656 C 286.796875 165.933594 272.589844 155.964844 261.984375 154.90625 C 239.296875 152.574219 217.453125 162.855469 196.355469 172.824219 C 168.363281 186.078125 141.960938 198.484375 120.863281 175.050781 C 102.097656 154.164062 113.972656 131.898438 125.527344 110.375 C 128.285156 105.285156 131.148438 99.984375 133.480469 94.789062 C 140.902344 78.351562 145.992188 60.222656 132.527344 39.652344 C 116.09375 14.628906 104.324219 -17.390625 100.082031 -48.03125 C 96.265625 -76.234375 99.550781 -98.394531 108.671875 -105.816406 C 120.757812 -115.679688 137.191406 -102.210938 154.582031 -88.003906 C 167.304688 -77.613281 180.34375 -67.011719 191.582031 -66.058594 C 198.6875 -65.527344 206.535156 -76.449219 214.0625 -87.050781 C 222.4375 -98.714844 230.390625 -109.847656 238.234375 -107.9375 C 243.855469 -106.558594 246.613281 -94.578125 249.476562 -81.75 C 252.230469 -69.449219 255.199219 -56.726562 260.5 -55.773438 C 263.683594 -55.242188 270.574219 -60.4375 277.253906 -65.421875 C 285.628906 -71.675781 293.476562 -77.71875 297.1875 -75.28125 C 308.320312 -68.175781 304.820312 -51.847656 300.15625 -35.734375 C 299.625 -33.824219 299.097656 -32.023438 298.566406 -30.113281 C 295.703125 -20.039062 292.945312 -10.605469 293.792969 -3.394531 C 294.855469 5.722656 304.078125 15.265625 312.984375 23.535156 C 317.4375 27.671875 322.527344 32.019531 327.300781 36.152344 C 342.355469 48.984375 357.941406 62.34375 361.441406 74.324219 C 364.832031 85.882812 353.488281 89.59375 342.460938 93.195312 C 331.433594 96.800781 320.9375 100.300781 323.800781 110.902344 C 325.707031 118.113281 330.796875 127.019531 336.3125 136.351562 L 337.796875 138.789062 C 349.671875 158.722656 361.96875 179.398438 351.578125 191.378906 C 348.929688 194.453125 345.113281 196.148438 341.1875 196.042969 Z M 255.414062 153.527344 C 257.640625 153.527344 259.867188 153.632812 262.09375 153.84375 C 273.011719 154.90625 287.328125 164.871094 301.214844 174.519531 C 320.621094 188.089844 340.765625 201.980469 350.625 190.636719 C 360.484375 179.292969 347.867188 157.980469 336.734375 139.214844 L 335.25 136.773438 C 329.738281 127.445312 324.648438 118.429688 322.527344 111.117188 C 319.347656 99.453125 330.796875 95.742188 341.929688 92.03125 C 352.957031 88.320312 363.347656 84.925781 360.273438 74.429688 C 356.773438 62.765625 341.402344 49.511719 326.449219 36.789062 C 321.574219 32.65625 316.589844 28.308594 312.03125 24.171875 C 303.019531 15.796875 293.6875 6.042969 292.523438 -3.289062 C 291.566406 -10.710938 294.429688 -20.359375 297.292969 -30.429688 C 297.824219 -32.339844 298.355469 -34.140625 298.882812 -36.050781 C 303.335938 -51.847656 306.835938 -67.753906 296.339844 -74.433594 C 293.265625 -76.449219 284.886719 -70.085938 277.574219 -64.574219 C 270.46875 -59.164062 263.683594 -54.074219 259.972656 -54.710938 C 253.929688 -55.773438 251.171875 -68.285156 248.097656 -81.429688 C 245.339844 -93.304688 242.582031 -105.605469 237.601562 -106.878906 C 230.496094 -108.574219 222.332031 -97.335938 214.59375 -86.414062 C 206.746094 -75.492188 198.898438 -64.464844 191.160156 -64.996094 C 179.601562 -65.84375 166.457031 -76.660156 153.625 -87.15625 C 136.554688 -101.046875 120.4375 -114.191406 108.988281 -104.96875 C 100.082031 -97.757812 97.007812 -76.023438 100.824219 -48.136719 C 105.066406 -17.601562 116.726562 14.207031 133.054688 39.121094 C 146.839844 60.117188 141.644531 78.460938 134.117188 95.210938 C 131.785156 100.40625 128.921875 105.707031 126.164062 110.902344 C 114.820312 132.109375 103.050781 154.058594 121.394531 174.414062 C 141.960938 197.316406 166.878906 185.546875 195.71875 171.871094 C 215.015625 162.964844 234.84375 153.527344 255.414062 153.527344 Z M 255.414062 153.527344 " fill-opacity="1" fill-rule="nonzero"/></g><g clip-path="url(#eaf11e626f)"><path fill="#2dc449" d="M 350.09375 207.496094 C 338.21875 207.496094 322.105469 196.148438 306.410156 185.015625 C 291.566406 174.519531 276.195312 163.707031 264.742188 162.539062 C 240.144531 159.996094 216.5 171.339844 193.597656 182.261719 C 163.378906 196.679688 134.964844 210.359375 112.167969 185.015625 C 91.8125 162.539062 104.960938 138.683594 117.789062 115.570312 C 120.652344 110.265625 123.621094 104.859375 126.269531 99.558594 C 134.753906 81.746094 140.691406 62.238281 126.269531 40.5 C 108.5625 13.464844 95.628906 -21.101562 90.859375 -54.183594 C 86.511719 -84.71875 89.796875 -108.46875 99.65625 -116.421875 L 99.976562 -115.996094 L 99.445312 -116.527344 C 112.59375 -127.128906 130.300781 -112.390625 149.171875 -96.804688 C 162.957031 -85.460938 177.058594 -73.691406 189.25 -72.738281 C 196.992188 -72.101562 205.367188 -83.976562 213.636719 -95.53125 C 222.648438 -108.253906 231.238281 -120.34375 239.71875 -118.222656 C 245.65625 -116.738281 248.414062 -103.484375 251.382812 -89.488281 C 254.246094 -76.023438 257.109375 -62.027344 262.726562 -60.96875 C 266.121094 -60.332031 273.542969 -66.058594 280.648438 -71.570312 C 289.554688 -78.460938 297.929688 -84.929688 301.851562 -82.386719 C 313.515625 -74.855469 309.804688 -58 304.609375 -39.972656 C 304.078125 -38.277344 303.550781 -36.476562 303.125 -34.777344 C 299.839844 -23.644531 296.761719 -13.253906 297.824219 -5.304688 C 299.203125 4.453125 309.378906 14.738281 319.242188 23.429688 C 324.117188 27.777344 329.527344 32.335938 334.828125 36.683594 C 351.367188 50.46875 368.4375 64.570312 372.253906 77.292969 C 375.964844 89.699219 363.453125 93.621094 351.472656 97.4375 C 339.386719 101.253906 327.828125 104.859375 330.90625 116.3125 C 333.023438 124.15625 338.539062 133.699219 344.476562 143.558594 L 346.171875 146.421875 C 359 167.734375 372.359375 189.789062 361.226562 202.617188 C 358.257812 205.90625 354.230469 207.601562 350.09375 207.496094 Z M 257.53125 161.054688 C 259.972656 161.054688 262.410156 161.160156 264.742188 161.371094 C 276.511719 162.539062 291.992188 173.460938 306.941406 184.0625 C 327.828125 198.90625 349.460938 214.175781 360.0625 201.980469 C 370.664062 189.789062 357.625 168.050781 344.898438 146.953125 L 343.203125 144.089844 C 337.160156 134.125 331.648438 124.476562 329.527344 116.628906 C 326.132812 104.222656 338.644531 100.195312 350.835938 96.378906 C 363.03125 92.5625 374.375 88.957031 370.984375 77.609375 C 367.273438 65.207031 350.308594 51.105469 333.875 37.425781 C 328.570312 33.078125 323.164062 28.519531 318.285156 24.171875 C 308.320312 15.265625 298.035156 4.875 296.65625 -5.195312 C 295.492188 -13.359375 298.671875 -23.964844 301.957031 -35.097656 C 302.488281 -36.792969 303.019531 -38.488281 303.441406 -40.292969 C 308.636719 -58 312.242188 -74.433594 301.214844 -81.535156 C 297.929688 -83.65625 289.128906 -76.765625 281.285156 -70.828125 C 273.4375 -64.785156 266.332031 -59.378906 262.515625 -60.011719 C 256.261719 -61.179688 253.398438 -74.855469 250.324219 -89.277344 C 247.566406 -102.425781 244.703125 -115.890625 239.507812 -117.269531 C 231.769531 -119.175781 222.96875 -106.878906 214.59375 -95.003906 C 206.214844 -83.128906 197.628906 -71.144531 189.25 -71.78125 C 176.847656 -72.84375 162.425781 -84.71875 148.644531 -96.167969 C 130.195312 -111.4375 112.699219 -125.855469 100.292969 -115.890625 C 90.75 -108.253906 87.570312 -84.824219 91.917969 -54.605469 C 96.6875 -21.632812 109.519531 12.828125 127.226562 39.652344 C 141.855469 61.917969 135.917969 81.746094 127.226562 99.769531 C 124.679688 105.070312 121.710938 110.585938 118.742188 115.78125 C 105.59375 139.636719 93.191406 162.113281 113.015625 184.0625 C 135.28125 208.765625 162.214844 195.9375 193.28125 180.988281 C 213.851562 171.234375 235.265625 161.054688 257.53125 161.054688 Z M 257.53125 161.054688 " fill-opacity="1" fill-rule="nonzero"/></g><g clip-path="url(#d298aed3c8)"><path fill="#2dc449" d="M 359 218.945312 C 346.277344 218.945312 328.996094 206.539062 312.136719 194.453125 C 296.234375 183.003906 279.691406 171.128906 267.394531 169.960938 C 240.886719 167.203125 215.441406 179.503906 190.734375 191.378906 C 158.398438 207.070312 127.753906 221.808594 103.261719 194.664062 C 81.421875 170.597656 95.839844 145.042969 109.835938 120.445312 C 112.910156 115.039062 115.984375 109.523438 118.742188 104.117188 C 128.285156 84.925781 134.964844 64.039062 119.804688 41.03125 C 100.71875 11.980469 86.722656 -25.023438 81.421875 -60.648438 C 76.542969 -93.410156 79.9375 -118.964844 90.328125 -127.339844 C 104.429688 -138.6875 123.515625 -122.675781 143.871094 -105.710938 C 158.714844 -93.304688 173.984375 -80.582031 187.023438 -79.417969 C 195.292969 -78.675781 204.414062 -91.609375 213.214844 -104.015625 C 222.96875 -117.796875 232.085938 -130.734375 241.203125 -128.402344 C 247.355469 -126.8125 250.21875 -112.390625 253.1875 -97.121094 C 256.046875 -82.492188 259.015625 -67.328125 264.953125 -66.164062 C 268.558594 -65.421875 276.40625 -71.675781 284.144531 -77.613281 C 293.582031 -85.035156 302.488281 -92.035156 306.519531 -89.382812 C 318.816406 -81.429688 314.683594 -63.300781 308.957031 -44.003906 C 308.53125 -42.414062 308.003906 -40.820312 307.578125 -39.230469 C 303.972656 -27.039062 300.472656 -15.585938 301.851562 -7 C 303.441406 3.390625 314.574219 14.3125 325.390625 23.644531 C 330.691406 28.203125 336.523438 32.972656 342.144531 37.53125 C 360.167969 52.058594 378.828125 67.113281 382.859375 80.578125 C 386.78125 93.832031 373.316406 97.863281 360.273438 101.785156 C 347.019531 105.8125 334.507812 109.523438 337.796875 121.929688 C 340.023438 130.304688 345.960938 140.484375 352.429688 151.089844 L 354.441406 154.269531 C 368.226562 176.957031 382.539062 200.496094 370.769531 214.070312 C 367.589844 217.25 363.347656 219.15625 359 218.945312 Z M 259.757812 168.476562 C 262.304688 168.476562 264.953125 168.582031 267.5 168.902344 C 280.117188 170.171875 296.65625 182.046875 312.773438 193.605469 C 335.144531 209.617188 358.257812 226.261719 369.605469 213.21875 C 380.949219 200.179688 366.847656 177.066406 353.171875 154.691406 L 351.15625 151.40625 C 344.6875 140.699219 338.75 130.414062 336.417969 122.035156 C 332.8125 108.78125 346.492188 104.648438 359.53125 100.726562 C 372.574219 96.800781 385.085938 92.984375 381.480469 80.792969 C 377.554688 67.644531 359 52.695312 341.082031 38.273438 C 335.464844 33.714844 329.527344 28.945312 324.332031 24.386719 C 313.410156 14.949219 302.066406 3.816406 300.472656 -6.894531 C 299.097656 -15.800781 302.59375 -27.355469 306.199219 -39.65625 C 306.625 -41.246094 307.152344 -42.835938 307.578125 -44.320312 C 313.199219 -63.300781 317.226562 -80.902344 305.5625 -88.535156 C 302.171875 -90.761719 292.734375 -83.339844 284.359375 -76.871094 C 276.089844 -70.402344 268.453125 -64.359375 264.320312 -65.207031 C 257.746094 -66.480469 254.882812 -81.324219 251.808594 -97.015625 C 249.050781 -111.226562 246.082031 -125.960938 240.570312 -127.445312 C 232.296875 -129.566406 222.863281 -116.207031 213.742188 -103.273438 C 204.730469 -90.550781 195.507812 -77.402344 186.601562 -78.144531 C 173.242188 -79.308594 157.761719 -92.246094 142.8125 -104.652344 C 122.878906 -121.296875 104.003906 -136.988281 90.644531 -126.28125 C 80.574219 -118.222656 77.285156 -92.988281 82.164062 -60.648438 C 87.464844 -25.128906 101.355469 11.765625 120.4375 40.605469 C 135.917969 64.144531 129.132812 85.351562 119.484375 104.753906 C 116.726562 110.265625 113.652344 115.78125 110.578125 121.1875 C 96.160156 146.636719 82.585938 170.597656 103.898438 194.242188 C 113.652344 204.949219 124.148438 209.085938 135.496094 209.085938 C 152.035156 209.085938 170.273438 200.285156 190.207031 190.636719 C 212.683594 179.609375 235.691406 168.476562 259.757812 168.476562 Z M 259.757812 168.476562 " fill-opacity="1" fill-rule="nonzero"/></g><g clip-path="url(#3409d44bfe)"><path fill="#2dc449" d="M 367.90625 230.398438 C 354.441406 230.398438 335.886719 217.039062 317.863281 203.996094 C 300.792969 191.589844 283.191406 178.867188 270.042969 177.488281 C 241.628906 174.519531 214.273438 187.878906 187.871094 200.816406 C 167.199219 210.886719 147.160156 220.640625 128.816406 220.640625 C 116.515625 220.640625 104.960938 216.296875 94.355469 204.632812 C 70.925781 178.867188 86.617188 151.832031 101.882812 125.640625 C 105.066406 120.128906 108.351562 114.507812 111.214844 108.890625 C 121.816406 88.425781 129.34375 66.160156 113.230469 41.773438 C 92.765625 10.8125 77.605469 -28.734375 71.773438 -66.90625 C 66.363281 -102 69.863281 -129.25 80.890625 -138.050781 L 81.207031 -137.625 L 80.890625 -138.050781 C 95.945312 -150.136719 116.410156 -132.855469 138.144531 -114.511719 C 154.050781 -101.152344 170.484375 -87.367188 184.480469 -85.988281 C 193.386719 -85.140625 203.140625 -99.03125 212.578125 -112.390625 C 222.96875 -127.234375 232.828125 -141.230469 242.476562 -138.578125 C 248.945312 -136.777344 251.808594 -121.191406 254.882812 -104.757812 C 257.746094 -88.851562 260.820312 -72.523438 266.96875 -71.253906 C 270.679688 -70.511719 279.164062 -77.191406 287.328125 -83.65625 C 297.292969 -91.609375 306.730469 -99.136719 310.972656 -96.378906 C 323.800781 -87.898438 319.558594 -69.554688 313.089844 -48.136719 C 312.667969 -46.757812 312.242188 -45.273438 311.820312 -43.898438 C 307.789062 -30.644531 303.972656 -18.238281 305.5625 -8.90625 C 307.367188 2.011719 319.558594 13.675781 331.328125 23.535156 C 336.949219 28.308594 343.308594 33.292969 349.351562 38.0625 C 368.863281 53.4375 389.113281 69.339844 393.355469 83.546875 C 394.519531 87.367188 394.308594 90.652344 392.824219 93.515625 C 389.21875 100.089844 378.933594 103.058594 368.96875 105.921875 C 354.65625 110.054688 341.082031 113.976562 344.582031 127.125 C 346.914062 136.03125 353.382812 146.847656 360.273438 158.085938 L 362.5 161.691406 C 377.34375 185.757812 392.613281 210.675781 380.101562 225.09375 C 376.921875 228.699219 372.46875 230.609375 367.90625 230.398438 Z M 261.878906 176.003906 C 264.636719 176.003906 267.394531 176.109375 270.152344 176.429688 C 283.511719 177.808594 301.324219 190.636719 318.5 203.148438 C 342.355469 220.429688 366.953125 238.242188 379.039062 224.460938 C 391.128906 210.675781 375.964844 186.078125 361.335938 162.328125 L 359.109375 158.722656 C 352.214844 147.378906 345.75 136.457031 343.308594 127.445312 C 339.492188 113.34375 354.230469 108.996094 368.4375 104.859375 C 378.191406 101.996094 388.371094 99.027344 391.765625 92.878906 C 393.140625 90.335938 393.355469 87.367188 392.292969 83.761719 C 388.160156 69.871094 368.121094 54.074219 348.71875 38.804688 C 342.671875 34.035156 336.3125 29.050781 330.691406 24.277344 C 318.816406 14.207031 306.519531 2.542969 304.609375 -8.800781 C 303.019531 -18.34375 306.835938 -30.960938 310.863281 -44.320312 C 311.289062 -45.699219 311.714844 -47.183594 312.136719 -48.5625 C 318.5 -69.554688 322.738281 -87.582031 310.441406 -95.636719 C 306.835938 -97.972656 296.871094 -90.019531 288.070312 -83.019531 C 279.269531 -76.023438 271.105469 -69.554688 266.863281 -70.402344 C 259.972656 -71.78125 257.109375 -87.792969 253.929688 -104.757812 C 251.066406 -120.238281 248.203125 -136.140625 242.265625 -137.730469 C 233.359375 -140.171875 223.285156 -125.855469 213.53125 -111.964844 C 203.988281 -98.289062 194.023438 -84.1875 184.480469 -85.035156 C 170.167969 -86.414062 153.625 -100.304688 137.617188 -113.769531 C 116.199219 -131.792969 96.054688 -148.757812 81.738281 -137.308594 C 60.640625 -120.449219 68.699219 -27.78125 114.289062 41.136719 C 130.617188 65.949219 122.984375 88.636719 112.273438 109.3125 C 109.414062 114.933594 106.019531 120.65625 102.839844 126.171875 C 87.148438 153.207031 72.300781 178.761719 95.203125 203.890625 C 120.96875 232.199219 151.71875 217.144531 187.449219 199.753906 C 211.515625 187.984375 236.222656 176.003906 261.878906 176.003906 Z M 261.878906 176.003906 " fill-opacity="1" fill-rule="nonzero"/></g><g clip-path="url(#1919f7e7f9)"><path fill="#2dc449" d="M 376.8125 241.953125 C 362.5 241.953125 342.886719 227.535156 323.695312 213.539062 C 305.5625 200.179688 286.796875 186.5 272.800781 185.015625 C 242.476562 181.835938 213.320312 196.148438 185.117188 210.039062 C 148.324219 228.0625 113.652344 245.132812 85.664062 214.492188 C 60.746094 187.136719 77.710938 158.402344 94.144531 130.730469 C 97.429688 125.109375 100.929688 119.28125 104.003906 113.554688 C 115.667969 91.710938 124.042969 68.070312 107.078125 42.410156 C 85.238281 9.542969 69.015625 -32.765625 62.652344 -73.265625 C 56.714844 -110.589844 60.214844 -139.535156 71.878906 -148.757812 C 87.890625 -161.480469 109.730469 -143.03125 132.949219 -123.3125 C 149.914062 -108.890625 167.410156 -94.046875 182.359375 -92.667969 C 191.902344 -91.820312 202.292969 -106.664062 212.257812 -120.980469 C 223.285156 -136.882812 233.78125 -151.832031 243.960938 -148.863281 C 250.746094 -146.957031 253.609375 -130.203125 256.683594 -112.496094 C 259.652344 -95.425781 262.726562 -77.824219 269.089844 -76.449219 C 273.011719 -75.597656 282.027344 -82.808594 290.613281 -89.808594 C 301.109375 -98.289062 311.078125 -106.242188 315.425781 -103.378906 C 328.890625 -94.472656 324.222656 -74.964844 317.226562 -52.167969 L 316.058594 -48.351562 C 311.714844 -34.035156 307.472656 -20.570312 309.378906 -10.605469 C 311.5 1.058594 324.648438 13.253906 337.265625 23.75 C 343.308594 28.730469 350.09375 33.925781 356.5625 39.015625 C 377.554688 55.238281 399.292969 71.992188 403.746094 86.941406 C 405.019531 90.96875 404.804688 94.363281 403.109375 97.4375 C 399.292969 104.328125 388.160156 107.511719 377.449219 110.480469 C 362.078125 114.828125 347.445312 118.960938 351.261719 132.851562 C 353.804688 142.289062 360.59375 153.738281 367.90625 165.613281 L 370.347656 169.644531 C 386.144531 195.089844 402.367188 221.492188 389.21875 236.652344 C 386.25 240.046875 381.585938 242.058594 376.8125 241.953125 Z M 264.105469 183.425781 C 267.074219 183.425781 270.042969 183.53125 272.90625 183.851562 C 287.113281 185.335938 305.988281 199.226562 324.332031 212.585938 C 349.671875 231.140625 375.753906 250.222656 388.582031 235.699219 C 401.414062 221.171875 385.191406 195.089844 369.605469 169.960938 L 367.164062 165.933594 C 359.742188 153.949219 352.957031 142.289062 350.414062 132.851562 C 346.382812 117.902344 362.183594 113.449219 377.34375 109.101562 C 387.949219 106.132812 398.761719 103.058594 402.367188 96.589844 C 403.851562 93.832031 404.0625 90.757812 402.898438 86.941406 C 398.550781 72.203125 376.921875 55.664062 356.03125 39.546875 C 349.566406 34.5625 342.78125 29.367188 336.734375 24.277344 C 324.011719 13.675781 310.652344 1.269531 308.425781 -10.605469 C 306.519531 -20.890625 310.757812 -34.460938 315.210938 -48.878906 L 316.378906 -52.699219 C 323.164062 -74.964844 327.828125 -94.152344 315 -102.636719 C 311.289062 -105.074219 300.6875 -96.59375 291.460938 -89.066406 C 282.132812 -81.535156 273.4375 -74.539062 268.984375 -75.492188 C 261.878906 -77.082031 258.910156 -94.261719 255.730469 -112.390625 C 252.867188 -129.039062 249.898438 -146.214844 243.75 -147.910156 C 234.207031 -150.667969 223.5 -135.292969 213.109375 -120.449219 C 202.929688 -105.816406 192.324219 -90.761719 182.253906 -91.714844 C 166.984375 -93.199219 149.277344 -108.148438 132.207031 -122.675781 C 109.414062 -141.972656 87.890625 -160.316406 72.515625 -148.121094 L 72.195312 -148.546875 L 72.515625 -148.121094 C 50.25 -130.308594 59.15625 -31.808594 107.929688 41.773438 C 125.105469 67.855469 116.621094 91.925781 104.960938 113.976562 C 101.882812 119.703125 98.492188 125.535156 95.097656 131.15625 C 78.132812 159.78125 62.125 186.820312 86.511719 213.644531 C 97.539062 225.730469 109.519531 230.398438 122.242188 230.398438 C 141.21875 230.398438 162.109375 220.113281 184.796875 208.980469 C 210.246094 196.363281 236.644531 183.425781 264.105469 183.425781 Z M 264.105469 183.425781 " fill-opacity="1" fill-rule="nonzero"/></g><g clip-path="url(#c42fa7d993)"><path fill="#2dc449" d="M 385.71875 253.40625 C 370.558594 253.40625 349.777344 238.03125 329.417969 222.976562 C 310.121094 208.765625 290.296875 194.027344 275.453125 192.4375 C 243.21875 189.046875 212.257812 204.3125 182.253906 219.15625 C 143.339844 238.453125 106.550781 256.691406 76.863281 224.140625 C 50.460938 195.089844 68.699219 164.871094 86.296875 135.609375 C 89.796875 129.882812 93.296875 123.945312 96.582031 118.113281 C 109.304688 95 118.425781 69.871094 100.613281 42.941406 C 77.390625 8.054688 60.109375 -36.6875 53.113281 -79.839844 C 46.75 -119.496094 50.355469 -150.136719 62.546875 -159.785156 C 79.511719 -173.25 102.734375 -153.421875 127.332031 -132.535156 C 145.355469 -117.164062 164.015625 -101.257812 179.921875 -99.667969 C 189.992188 -98.714844 201.125 -114.511719 211.625 -129.886719 C 223.390625 -146.851562 234.417969 -162.648438 245.234375 -159.46875 C 252.230469 -157.347656 255.199219 -139.429688 258.382812 -120.554688 C 261.351562 -102.316406 264.425781 -83.550781 271.210938 -81.960938 C 275.347656 -81.007812 284.78125 -88.746094 294.007812 -96.167969 C 305.035156 -105.179688 315.53125 -113.664062 320.089844 -110.695312 C 335.25 -100.515625 327.617188 -76.234375 321.574219 -56.621094 L 320.511719 -53.332031 C 315.742188 -37.960938 311.183594 -23.539062 313.304688 -12.726562 C 315.636719 -0.53125 329.84375 12.402344 343.414062 23.429688 C 349.882812 28.730469 357.09375 34.140625 363.984375 39.335938 C 386.460938 56.40625 409.789062 74.007812 414.453125 89.699219 C 415.726562 93.9375 415.515625 97.542969 413.816406 100.726562 C 409.789062 108.039062 397.914062 111.328125 386.355469 114.402344 C 369.816406 118.960938 354.230469 123.203125 358.257812 137.941406 C 360.910156 147.90625 368.121094 159.996094 375.964844 172.613281 L 378.722656 177.066406 C 395.476562 203.890625 412.757812 231.773438 398.867188 247.679688 C 395.476562 251.390625 390.703125 253.511719 385.71875 253.40625 Z M 266.226562 190.847656 C 269.300781 190.847656 272.484375 191.058594 275.558594 191.378906 C 290.613281 192.96875 310.652344 207.707031 330.054688 222.019531 C 356.773438 241.847656 384.449219 262.207031 398.019531 246.832031 C 411.484375 231.457031 394.308594 204.101562 377.875 177.488281 L 375.117188 173.035156 C 367.273438 160.3125 359.957031 148.121094 357.304688 138.046875 C 353.0625 122.140625 369.921875 117.582031 386.144531 113.128906 C 397.488281 110.054688 409.152344 106.875 412.96875 99.984375 C 414.558594 97.121094 414.773438 93.832031 413.5 89.804688 C 408.835938 74.429688 385.71875 56.933594 363.347656 39.972656 C 356.457031 34.777344 349.246094 29.367188 342.78125 24.066406 C 328.996094 12.933594 314.683594 -0.109375 312.347656 -12.726562 C 310.230469 -23.644531 314.789062 -38.277344 319.558594 -53.757812 L 320.621094 -57.042969 C 326.558594 -76.234375 334.085938 -100.199219 319.558594 -109.953125 C 315.636719 -112.601562 304.503906 -103.484375 294.75 -95.53125 C 284.996094 -87.582031 275.664062 -80.050781 271.105469 -81.113281 C 263.683594 -82.808594 260.714844 -101.152344 257.425781 -120.554688 C 254.457031 -138.367188 251.488281 -156.816406 245.023438 -158.617188 C 234.949219 -161.585938 223.605469 -145.257812 212.578125 -129.355469 C 201.761719 -113.769531 190.523438 -97.652344 179.816406 -98.714844 C 163.59375 -100.304688 144.824219 -116.3125 126.695312 -131.898438 C 102.414062 -152.363281 79.617188 -171.871094 63.183594 -158.9375 C 39.644531 -140.277344 49.402344 -35.839844 101.460938 42.410156 C 119.589844 69.765625 110.261719 95.210938 97.429688 118.75 C 94.25 124.582031 90.644531 130.625 87.148438 136.351562 C 68.910156 166.566406 51.734375 195.089844 77.605469 223.609375 C 89.265625 236.441406 101.992188 241.316406 115.351562 241.316406 C 135.496094 241.316406 157.65625 230.398438 181.828125 218.414062 C 209.078125 204.738281 237.070312 190.847656 266.226562 190.847656 Z M 266.226562 190.847656 " fill-opacity="1" fill-rule="nonzero"/></g><g clip-path="url(#cfeb4d7fd0)"><path fill="#2dc449" d="M 394.628906 264.855469 C 378.722656 264.855469 356.667969 248.421875 335.144531 232.410156 C 314.789062 217.25 293.6875 201.558594 278.101562 199.859375 C 243.855469 196.257812 211.09375 212.585938 179.390625 228.382812 C 154.582031 240.789062 130.617188 252.769531 108.5625 252.769531 C 94.039062 252.769531 80.464844 247.574219 67.957031 234 C 55.445312 220.324219 51.308594 205.054688 55.445312 187.5625 C 59.15625 172.082031 68.910156 156.070312 78.347656 140.699219 C 81.953125 134.867188 85.664062 128.714844 89.054688 122.671875 C 102.734375 98.179688 112.804688 71.671875 94.144531 43.46875 C 69.546875 6.570312 51.203125 -40.714844 43.675781 -86.203125 C 36.785156 -128.1875 40.386719 -160.527344 53.21875 -170.601562 C 71.242188 -184.808594 95.734375 -163.707031 121.816406 -141.441406 C 140.902344 -125.007812 160.730469 -108.042969 177.480469 -106.347656 C 188.191406 -105.285156 199.855469 -122.144531 211.09375 -138.367188 C 223.605469 -156.179688 235.265625 -173.144531 246.613281 -169.644531 C 253.929688 -167.417969 256.898438 -148.335938 260.078125 -128.082031 C 263.152344 -108.679688 266.226562 -88.640625 273.226562 -86.945312 C 277.574219 -85.988281 287.539062 -94.152344 297.1875 -102.105469 C 308.851562 -111.648438 319.769531 -120.660156 324.4375 -117.480469 C 340.234375 -106.878906 332.496094 -82.277344 325.601562 -60.542969 L 324.753906 -57.679688 C 319.558594 -41.246094 314.683594 -25.765625 317.015625 -14.316406 C 319.558594 -1.484375 334.828125 12.085938 349.351562 23.644531 C 356.246094 29.15625 363.878906 34.777344 371.195312 40.289062 C 395.15625 58.101562 419.96875 76.550781 424.949219 92.984375 C 426.328125 97.4375 426.117188 101.253906 424.207031 104.4375 C 419.96875 112.175781 407.246094 115.460938 394.945312 118.75 C 382.644531 122.035156 370.132812 125.21875 365.789062 132.746094 C 363.984375 135.820312 363.773438 139.320312 364.832031 143.453125 C 367.589844 153.949219 375.328125 166.78125 383.601562 180.035156 L 386.570312 184.804688 C 404.277344 213.007812 422.511719 242.273438 407.878906 258.917969 C 404.910156 262.734375 399.929688 264.960938 394.628906 264.855469 Z M 268.453125 198.375 C 271.742188 198.375 275.027344 198.589844 278.316406 198.90625 C 294.21875 200.601562 315.316406 216.402344 335.886719 231.667969 C 364.089844 252.664062 393.25 274.398438 407.457031 258.175781 C 421.664062 241.953125 403.425781 213.21875 386.039062 185.230469 C 384.976562 183.636719 384.023438 182.046875 383.070312 180.457031 C 374.800781 167.097656 367.058594 154.269531 364.195312 143.667969 C 363.03125 139.210938 363.347656 135.394531 365.257812 132.109375 C 369.816406 124.261719 382.539062 120.871094 394.945312 117.582031 C 407.03125 114.402344 419.4375 111.117188 423.464844 103.800781 C 425.164062 100.832031 425.375 97.332031 424.101562 93.089844 C 419.226562 76.972656 394.628906 58.632812 370.769531 40.925781 C 363.453125 35.519531 355.820312 29.792969 348.929688 24.277344 C 334.296875 12.617188 318.921875 -1.167969 316.273438 -14.316406 C 313.941406 -25.976562 318.816406 -41.671875 324.011719 -58.210938 L 324.859375 -61.074219 C 331.539062 -82.386719 339.175781 -106.664062 324.117188 -116.84375 C 320.089844 -119.601562 308.425781 -109.953125 298.140625 -101.46875 C 287.855469 -92.988281 277.996094 -84.929688 273.226562 -86.097656 C 265.484375 -87.898438 262.515625 -107.40625 259.230469 -128.082031 C 256.261719 -147.0625 253.1875 -166.675781 246.507812 -168.691406 C 235.902344 -171.871094 223.816406 -154.589844 212.152344 -137.730469 C 201.019531 -121.722656 189.570312 -105.179688 178.542969 -105.179688 C 178.222656 -105.179688 177.800781 -105.179688 177.480469 -105.179688 C 160.304688 -106.878906 140.476562 -124.054688 121.179688 -140.488281 C 95.523438 -162.648438 71.347656 -183.535156 54.066406 -169.75 C 29.253906 -150.242188 39.964844 -39.867188 95.097656 42.941406 C 114.183594 71.671875 103.898438 98.5 90.007812 123.308594 C 86.617188 129.351562 82.90625 135.394531 79.300781 141.332031 C 59.792969 173.140625 41.34375 203.253906 68.699219 233.257812 C 99.65625 266.976562 136.449219 248.738281 178.964844 227.535156 C 207.804688 213.113281 237.492188 198.375 268.453125 198.375 Z M 268.453125 198.375 " fill-opacity="1" fill-rule="nonzero"/></g><g clip-path="url(#6272ef89ca)"><path fill="#2dc449" d="M 403.535156 276.308594 C 386.78125 276.308594 363.5625 258.917969 340.976562 241.953125 C 319.558594 225.835938 297.292969 209.191406 280.964844 207.496094 C 244.808594 203.679688 210.246094 220.960938 176.738281 237.710938 C 133.375 259.449219 92.449219 279.910156 59.261719 243.757812 C 46.007812 229.230469 41.765625 213.328125 46.21875 195.089844 C 50.144531 178.761719 60.535156 162.007812 70.710938 145.785156 C 74.421875 139.742188 78.347656 133.59375 81.84375 127.445312 C 96.582031 101.679688 107.503906 73.6875 87.890625 44.210938 C 62.019531 5.300781 42.507812 -44.53125 34.449219 -92.5625 C 27.027344 -136.777344 30.738281 -170.917969 44.207031 -181.414062 C 63.183594 -196.363281 89.054688 -173.992188 116.515625 -150.242188 C 136.660156 -132.855469 157.550781 -114.828125 175.363281 -113.027344 C 186.601562 -111.859375 199.003906 -129.671875 210.882812 -146.851562 C 223.921875 -165.828125 236.328125 -183.640625 248.308594 -179.929688 C 255.941406 -177.597656 258.910156 -157.347656 262.199219 -135.824219 C 265.273438 -115.253906 268.453125 -93.941406 275.769531 -92.246094 C 280.222656 -91.183594 290.824219 -99.878906 301.003906 -108.363281 C 313.199219 -118.433594 324.648438 -127.976562 329.527344 -124.691406 C 345.855469 -113.558594 337.691406 -87.6875 330.375 -64.785156 L 329.632812 -62.453125 C 324.332031 -45.699219 318.816406 -28.417969 321.363281 -16.328125 C 324.222656 -2.652344 341.296875 12.191406 355.820312 23.535156 C 363.242188 29.367188 371.300781 35.304688 379.253906 41.136719 C 404.59375 59.691406 430.78125 78.882812 435.871094 95.953125 C 437.25 100.617188 437.039062 104.542969 435.128906 107.933594 C 430.570312 115.992188 417.105469 119.492188 404.0625 122.882812 C 391.023438 126.277344 377.769531 129.671875 373.210938 137.515625 C 371.40625 140.699219 370.984375 144.410156 372.253906 148.753906 C 375.222656 159.78125 383.601562 173.777344 391.976562 187.136719 C 393.035156 188.832031 394.097656 190.53125 395.261719 192.332031 C 413.925781 221.914062 433.222656 252.664062 417.847656 270.050781 C 414.242188 274.1875 409.046875 276.519531 403.535156 276.308594 Z M 270.679688 205.796875 C 274.179688 205.796875 277.679688 206.011719 281.070312 206.328125 C 297.71875 208.132812 320.089844 224.882812 341.613281 241 C 371.300781 263.265625 401.941406 286.273438 417 269.308594 C 431.84375 252.449219 412.757812 222.125 394.308594 192.863281 L 391.023438 187.667969 C 382.539062 174.203125 374.058594 160.101562 371.089844 148.96875 C 369.816406 144.300781 370.242188 140.378906 372.148438 136.878906 C 376.921875 128.609375 390.492188 125.109375 403.640625 121.71875 C 416.46875 118.429688 429.722656 114.933594 434.070312 107.296875 C 435.871094 104.117188 436.082031 100.511719 434.707031 96.058594 C 429.617188 79.308594 403.640625 60.222656 378.40625 41.667969 C 370.558594 35.941406 362.394531 29.898438 354.972656 24.066406 C 340.234375 12.617188 323.058594 -2.335938 320.089844 -16.4375 C 317.4375 -28.839844 322.738281 -45.488281 328.359375 -63.089844 L 329.101562 -65.421875 C 336.207031 -87.898438 344.371094 -113.34375 328.679688 -124.054688 C 324.4375 -126.917969 312.242188 -116.738281 301.429688 -107.832031 C 290.613281 -98.820312 280.433594 -90.335938 275.347656 -91.503906 C 267.394531 -93.410156 264.320312 -114.085938 261.03125 -135.929688 C 258.0625 -156.074219 254.882812 -176.960938 247.882812 -179.1875 C 236.644531 -182.6875 223.921875 -164.238281 211.625 -146.53125 C 199.960938 -129.566406 187.871094 -112.179688 176.316406 -112.179688 C 175.890625 -112.179688 175.574219 -112.179688 175.148438 -112.179688 C 157.019531 -114.085938 136.023438 -132.21875 115.773438 -149.710938 C 88.632812 -172.828125 63.078125 -194.988281 44.734375 -180.566406 C 31.800781 -170.386719 28.195312 -135.824219 35.40625 -92.667969 C 43.464844 -44.746094 62.867188 4.875 88.632812 43.683594 C 108.5625 73.6875 97.539062 101.890625 82.585938 128.078125 C 79.089844 134.230469 75.164062 140.484375 71.453125 146.527344 C 50.671875 179.925781 31.058594 211.523438 59.898438 243.226562 C 74.847656 259.449219 91.917969 265.386719 113.652344 261.675781 C 133.164062 258.386719 154.050781 247.996094 176.105469 236.863281 C 206.640625 221.492188 238.023438 205.796875 270.679688 205.796875 Z M 270.679688 205.796875 " fill-opacity="1" fill-rule="nonzero"/></g><g clip-path="url(#30292c3904)"><path fill="#2dc449" d="M 412.441406 287.757812 C 394.839844 287.757812 370.453125 269.308594 346.703125 251.390625 C 324.117188 234.320312 300.792969 216.71875 283.617188 214.917969 C 245.550781 210.886719 209.183594 229.230469 173.878906 246.9375 C 128.285156 269.839844 85.34375 291.574219 50.460938 253.511719 C 36.570312 238.347656 32.117188 221.597656 36.890625 202.40625 C 41.128906 185.335938 51.734375 168.582031 62.867188 150.769531 C 66.789062 144.621094 70.710938 138.257812 74.421875 132.003906 C 90.222656 104.859375 101.992188 75.492188 81.527344 44.742188 C 54.277344 3.921875 33.707031 -48.457031 25.121094 -99.03125 C 17.167969 -145.578125 20.984375 -181.308594 34.980469 -192.335938 C 54.914062 -208.027344 82.164062 -184.382812 111.109375 -159.359375 C 132.3125 -140.914062 154.367188 -121.828125 173.027344 -119.917969 C 184.902344 -118.648438 197.839844 -137.519531 210.457031 -155.648438 C 224.242188 -175.582031 237.175781 -194.457031 249.792969 -190.535156 C 257.746094 -187.988281 260.820312 -166.570312 264 -143.882812 C 267.074219 -122.144531 270.363281 -99.667969 277.890625 -97.757812 C 282.554688 -96.59375 293.582031 -105.816406 304.292969 -114.828125 C 317.015625 -125.433594 328.996094 -135.503906 333.980469 -132.113281 C 350.945312 -120.449219 342.25 -93.304688 334.617188 -69.34375 L 333.980469 -67.433594 C 328.253906 -49.730469 322.421875 -31.386719 325.179688 -18.554688 C 328.253906 -4.242188 346.382812 11.238281 361.863281 23.113281 C 369.605469 29.15625 378.191406 35.304688 386.460938 41.242188 C 413.289062 60.644531 441.066406 80.6875 446.472656 98.605469 C 447.957031 103.480469 447.746094 107.617188 445.730469 111.117188 C 440.960938 119.597656 426.648438 123.203125 412.96875 126.703125 C 399.1875 130.199219 385.085938 133.804688 380.3125 142.074219 C 378.40625 145.363281 377.980469 149.285156 379.253906 153.84375 C 382.328125 165.402344 391.234375 180.035156 400.035156 194.027344 L 403.535156 199.648438 C 423.148438 230.714844 443.398438 262.734375 427.390625 280.972656 C 423.574219 285.53125 418.164062 287.96875 412.441406 287.757812 Z M 272.800781 213.328125 C 276.40625 213.328125 280.117188 213.539062 283.722656 213.855469 C 301.214844 215.660156 324.648438 233.472656 347.339844 250.542969 C 378.511719 274.082031 410.636719 298.359375 426.328125 280.546875 C 441.808594 262.949219 421.769531 231.140625 402.367188 200.496094 L 398.867188 194.984375 C 389.960938 180.882812 381.054688 166.039062 377.875 154.375 C 376.601562 149.496094 376.921875 145.363281 379.039062 141.757812 C 384.128906 133.167969 398.445312 129.457031 412.441406 125.960938 C 426.011719 122.566406 440.007812 118.960938 444.566406 110.902344 C 446.472656 107.617188 446.6875 103.800781 445.203125 99.242188 C 439.902344 81.746094 412.332031 61.707031 385.613281 42.410156 C 377.34375 36.472656 368.863281 30.214844 361.015625 24.171875 C 345.429688 12.191406 327.191406 -3.5 324.011719 -18.132812 C 321.148438 -31.28125 327.085938 -49.730469 332.8125 -67.542969 L 333.449219 -69.449219 C 340.976562 -93.09375 349.566406 -119.8125 333.238281 -131.050781 C 328.890625 -134.019531 316.058594 -123.3125 304.820312 -113.875 C 293.582031 -104.4375 282.660156 -95.320312 277.464844 -96.59375 C 269.195312 -98.605469 266.121094 -120.449219 262.726562 -143.5625 C 259.652344 -164.875 256.472656 -187.035156 249.261719 -189.367188 C 237.492188 -193.078125 224.027344 -173.675781 211.199219 -154.90625 C 198.898438 -137.09375 186.175781 -118.648438 174.089844 -118.648438 C 173.664062 -118.648438 173.242188 -118.648438 172.816406 -118.753906 C 153.730469 -120.765625 131.679688 -139.957031 110.261719 -158.511719 C 81.738281 -183.21875 54.914062 -206.542969 35.617188 -191.488281 C 22.152344 -180.777344 18.335938 -144.625 26.074219 -99.136719 C 34.664062 -48.773438 55.230469 3.496094 82.375 44.210938 C 103.15625 75.492188 91.28125 105.179688 75.378906 132.640625 C 71.667969 139 67.742188 145.363281 63.820312 151.40625 C 41.765625 186.5 20.878906 219.582031 51.308594 252.769531 C 67 269.839844 84.921875 276.09375 107.929688 272.171875 C 128.496094 268.671875 150.339844 257.644531 173.558594 245.984375 C 205.472656 229.867188 238.449219 213.328125 272.800781 213.328125 Z M 272.800781 213.328125 " fill-opacity="1" fill-rule="nonzero"/></g><g clip-path="url(#05a5e2fbea)"><path fill="#2dc449" d="M 421.347656 299.316406 C 403.003906 299.316406 377.449219 279.910156 352.535156 260.933594 C 328.890625 242.90625 304.398438 224.351562 286.371094 222.445312 C 246.398438 218.203125 208.125 237.5 171.121094 256.265625 C 146.734375 268.566406 123.726562 280.230469 101.992188 283.941406 C 77.605469 288.074219 58.414062 281.609375 41.660156 263.371094 C 9.214844 227.851562 31.480469 192.96875 55.125 155.964844 C 59.15625 149.710938 63.289062 143.242188 67.105469 136.773438 C 83.859375 108.359375 96.582031 77.609375 75.164062 45.484375 C 46.539062 2.542969 24.910156 -52.378906 15.683594 -105.285156 C 7.203125 -154.058594 11.019531 -191.488281 25.757812 -203.042969 C 46.644531 -219.480469 75.269531 -194.5625 105.59375 -168.160156 C 127.96875 -148.757812 150.976562 -128.613281 170.695312 -126.492188 C 183.207031 -125.21875 196.777344 -144.941406 209.925781 -164.132812 C 224.347656 -185.125 238.023438 -204.953125 251.171875 -200.710938 C 259.441406 -198.0625 262.515625 -175.476562 265.804688 -151.515625 C 268.984375 -128.613281 272.164062 -104.863281 280.117188 -102.847656 C 284.996094 -101.683594 296.550781 -111.332031 307.683594 -120.875 C 320.9375 -132.113281 333.449219 -142.609375 338.644531 -139.109375 C 356.246094 -127.023438 347.445312 -99.773438 338.960938 -73.480469 L 338.539062 -72.101562 C 332.496094 -53.332031 326.132812 -33.929688 329.207031 -20.359375 C 332.601562 -5.515625 351.792969 10.707031 368.121094 23.21875 C 376.285156 29.472656 385.191406 35.835938 393.886719 41.984375 C 422.195312 62.238281 451.5625 83.230469 457.183594 101.785156 C 458.773438 106.875 458.457031 111.117188 456.335938 114.828125 C 451.351562 123.734375 436.191406 127.445312 421.769531 131.046875 C 407.246094 134.652344 392.292969 138.363281 387.203125 146.953125 C 385.191406 150.453125 384.765625 154.480469 386.039062 159.253906 C 389.21875 171.339844 398.550781 186.605469 407.878906 201.34375 L 411.699219 207.28125 C 432.265625 239.726562 453.578125 273.230469 436.824219 292.210938 C 432.902344 296.980469 427.285156 299.421875 421.347656 299.316406 Z M 275.027344 220.75 C 278.84375 220.75 282.660156 220.960938 286.480469 221.382812 C 304.820312 223.292969 329.417969 242.058594 353.171875 260.085938 C 385.71875 284.894531 419.4375 310.449219 435.871094 291.785156 C 452.09375 273.445312 430.996094 240.257812 410.636719 208.132812 L 406.925781 202.195312 C 397.597656 187.347656 388.265625 171.976562 384.976562 159.78125 C 383.601562 154.691406 384.023438 150.347656 386.25 146.636719 C 391.550781 137.621094 406.714844 133.804688 421.453125 130.199219 C 435.765625 126.59375 450.609375 122.992188 455.382812 114.507812 C 457.289062 111.117188 457.609375 107.085938 456.125 102.316406 C 450.609375 84.078125 421.453125 63.191406 393.25 43.046875 C 384.554688 36.894531 375.648438 30.429688 367.484375 24.171875 C 351.050781 11.554688 331.648438 -4.773438 328.253906 -20.039062 C 325.074219 -33.824219 331.433594 -53.4375 337.585938 -72.3125 L 338.007812 -73.691406 C 346.382812 -99.667969 355.078125 -126.492188 338.113281 -138.15625 C 333.660156 -141.230469 320.195312 -129.992188 308.425781 -120.023438 C 296.65625 -110.058594 285.207031 -100.515625 279.90625 -101.894531 C 271.316406 -104.015625 268.242188 -127.023438 264.847656 -151.410156 C 261.878906 -173.992188 258.699219 -197.320312 250.960938 -199.757812 C 238.554688 -203.785156 224.558594 -183.324219 210.988281 -163.601562 C 197.628906 -144.199219 183.84375 -124.160156 170.800781 -125.539062 C 150.761719 -127.660156 127.648438 -147.910156 105.171875 -167.417969 C 75.164062 -193.503906 46.855469 -218.207031 26.605469 -202.300781 C 12.398438 -191.167969 8.578125 -153.210938 16.851562 -105.605469 C 25.96875 -52.804688 47.597656 2.011719 76.121094 44.742188 C 97.855469 77.292969 85.132812 108.359375 68.0625 137.199219 C 64.246094 143.667969 60.109375 150.132812 56.082031 156.390625 C 32.753906 193.074219 10.59375 227.640625 42.613281 262.523438 C 59.050781 280.441406 77.921875 286.910156 101.992188 282.773438 C 123.515625 279.0625 146.523438 267.507812 170.800781 255.207031 C 204.199219 238.242188 238.871094 220.75 275.027344 220.75 Z M 275.027344 220.75 " fill-opacity="1" fill-rule="nonzero"/></g><g clip-path="url(#f779fac87c)"><path fill="#2dc449" d="M 430.253906 310.765625 C 411.0625 310.765625 384.34375 290.300781 358.257812 270.371094 C 333.449219 251.496094 307.789062 231.882812 289.023438 229.867188 C 247.140625 225.414062 207.0625 245.769531 168.257812 265.492188 C 142.703125 278.425781 118.636719 290.726562 95.945312 294.648438 C 70.394531 299.101562 50.355469 292.210938 32.859375 273.230469 C -1.175781 236.226562 22.363281 199.753906 47.28125 161.054688 C 71.03125 124.261719 95.523438 86.199219 68.699219 46.121094 C 38.902344 1.164062 16.109375 -56.300781 6.351562 -111.753906 C -2.660156 -162.753906 1.265625 -201.878906 16.53125 -213.859375 C 38.375 -231.035156 68.378906 -204.847656 100.082031 -177.066406 C 123.515625 -156.605469 147.6875 -135.398438 168.257812 -133.171875 C 181.40625 -131.792969 195.613281 -152.574219 209.398438 -172.71875 C 224.558594 -194.773438 238.765625 -215.554688 252.550781 -210.996094 C 261.03125 -208.132812 264.210938 -184.382812 267.5 -159.253906 C 270.679688 -135.1875 273.96875 -110.164062 282.132812 -108.148438 C 287.222656 -106.878906 299.308594 -117.164062 310.972656 -127.023438 C 324.753906 -138.6875 337.796875 -149.820312 343.097656 -146.109375 C 361.335938 -133.492188 351.898438 -104.542969 342.78125 -76.660156 C 336.3125 -56.832031 329.632812 -36.367188 332.917969 -22.160156 C 337.691406 -2.015625 369.816406 20.675781 400.882812 42.726562 C 430.78125 63.828125 461.636719 85.667969 467.574219 104.964844 C 469.164062 110.265625 468.953125 114.71875 466.726562 118.539062 C 461.425781 127.761719 445.625 131.683594 430.359375 135.394531 C 415.089844 139.105469 399.398438 142.925781 393.992188 152.042969 C 391.871094 155.648438 391.445312 159.886719 392.824219 164.871094 C 396.535156 178.867188 407.773438 196.46875 419.753906 215.128906 C 441.277344 248.953125 463.546875 283.941406 446.15625 303.660156 C 442.234375 308.433594 436.402344 310.976562 430.253906 310.765625 Z M 277.148438 228.171875 C 281.175781 228.171875 285.207031 228.382812 289.128906 228.804688 C 308.214844 230.820312 333.980469 250.542969 358.894531 269.519531 C 392.929688 295.496094 428.132812 322.429688 445.308594 302.917969 C 462.167969 283.730469 440.113281 249.164062 418.800781 215.660156 C 406.820312 196.890625 395.476562 179.183594 391.765625 165.082031 C 390.386719 159.78125 390.808594 155.328125 393.035156 151.40625 C 398.65625 141.96875 414.558594 138.046875 430.039062 134.335938 C 445.097656 130.625 460.683594 126.808594 465.773438 118.007812 C 467.785156 114.402344 468.105469 110.265625 466.515625 105.285156 C 460.683594 86.199219 429.933594 64.570312 400.246094 43.574219 C 368.96875 21.523438 336.628906 -1.378906 331.859375 -21.949219 C 328.464844 -36.476562 335.144531 -57.042969 341.71875 -76.976562 C 350.730469 -104.542969 360.0625 -133.066406 342.460938 -145.257812 C 337.796875 -148.441406 323.90625 -136.671875 311.605469 -126.175781 C 299.308594 -115.679688 287.433594 -105.605469 281.8125 -107.089844 C 273.011719 -109.316406 269.832031 -133.492188 266.441406 -159.148438 C 263.257812 -182.898438 260.078125 -207.390625 252.125 -210.042969 C 239.191406 -214.285156 224.453125 -192.867188 210.246094 -172.191406 C 196.25 -151.832031 181.828125 -130.734375 168.152344 -132.21875 C 147.265625 -134.550781 122.878906 -155.757812 99.339844 -176.324219 C 67.957031 -203.785156 38.375 -229.65625 17.167969 -213.117188 C 2.429688 -201.558594 -1.386719 -161.800781 7.308594 -111.859375 C 17.0625 -56.515625 39.753906 0.847656 69.546875 45.484375 C 96.6875 86.199219 71.984375 124.476562 48.128906 161.585938 C 23.425781 199.859375 0.0976562 236.015625 33.601562 272.488281 C 50.886719 291.257812 70.605469 297.9375 95.734375 293.695312 C 118.210938 289.773438 142.28125 277.578125 167.726562 264.644531 C 203.035156 246.617188 239.402344 228.171875 277.148438 228.171875 Z M 277.148438 228.171875 " fill-opacity="1" fill-rule="nonzero"/></g></g></g></g><g clip-path="url(#dc99cf647a)"><path fill="#2dc449" d="M 222.847656 408.070312 C 210.992188 408.070312 183.613281 412.082031 168.019531 414.523438 C 180.707031 405.277344 202.714844 388.890625 211.207031 380.460938 C 214.460938 377.230469 214.621094 371.917969 211.421875 368.644531 C 208.183594 365.332031 202.878906 365.316406 199.617188 368.574219 C 191.234375 376.960938 174.710938 399.152344 165.410156 411.910156 C 167.84375 396.398438 171.816406 369.25 171.863281 357.28125 C 171.878906 352.703125 168.234375 348.832031 163.65625 348.78125 C 159.027344 348.730469 155.261719 352.464844 155.261719 357.078125 C 155.261719 368.9375 159.273438 396.3125 161.714844 411.910156 C 152.414062 399.148438 135.890625 376.960938 127.507812 368.574219 C 124.242188 365.3125 118.9375 365.332031 115.703125 368.644531 C 112.496094 371.917969 112.660156 377.230469 115.914062 380.460938 C 124.410156 388.890625 146.421875 405.277344 159.105469 414.523438 C 143.59375 412.089844 116.445312 408.117188 104.476562 408.070312 C 99.894531 408.054688 96.019531 411.695312 95.972656 416.277344 C 95.921875 420.90625 99.65625 424.671875 104.269531 424.671875 C 116.128906 424.671875 143.503906 420.660156 159.101562 418.21875 C 146.414062 427.464844 124.40625 443.851562 115.910156 452.28125 C 112.660156 455.511719 112.496094 460.824219 115.699219 464.097656 C 118.9375 467.410156 124.242188 467.425781 127.503906 464.167969 C 135.886719 455.78125 152.410156 433.589844 161.710938 420.832031 C 159.277344 436.34375 155.304688 463.492188 155.257812 475.460938 C 155.242188 480.042969 158.882812 483.914062 163.46875 483.960938 C 168.097656 484.011719 171.863281 480.277344 171.863281 475.664062 C 171.863281 463.804688 167.851562 436.429688 165.410156 420.832031 C 174.710938 433.59375 191.234375 455.78125 199.617188 464.167969 C 202.882812 467.429688 208.1875 467.410156 211.421875 464.097656 C 214.628906 460.824219 214.464844 455.511719 211.207031 452.28125 C 202.714844 443.851562 180.703125 427.464844 168.019531 418.21875 C 183.53125 420.652344 210.679688 424.625 222.644531 424.671875 C 227.230469 424.6875 231.097656 421.042969 231.148438 416.460938 C 231.203125 411.839844 227.46875 408.070312 222.847656 408.070312 Z M 163.5625 416.371094 Z M 163.5625 416.371094 " fill-opacity="1" fill-rule="nonzero"/></g><g clip-path="url(#8f388d1d5f)"><g clip-path="url(#a515ec1818)"><g transform="matrix(1, 0, 0, 1, 1141, 51)"><g clip-path="url(#2e35747fe9)"><g clip-path="url(#b8f9bf8475)"><g clip-path="url(#f29338a88e)"><path fill="#000000" d="M 0.824219 0.976562 L 6.230469 0.976562 L 6.230469 6.382812 L 0.824219 6.382812 Z M 0.824219 0.976562 " fill-opacity="1" fill-rule="nonzero"/></g></g></g></g></g></g><g clip-path="url(#b11ac89169)"><g clip-path="url(#daa8ae26e2)"><g transform="matrix(1, 0, 0, 1, 1257, 51)"><g clip-path="url(#94e5b3d834)"><g clip-path="url(#3ee67586e2)"><g clip-path="url(#e0898d4505)"><path fill="#000000" d="M 0.363281 0.976562 L 5.769531 0.976562 L 5.769531 6.382812 L 0.363281 6.382812 Z M 0.363281 0.976562 " fill-opacity="1" fill-rule="nonzero"/></g></g></g></g></g></g><g clip-path="url(#f3f14a714a)"><path fill="#0e7a16" d="M 1136.699219 608.960938 C 1129.832031 609.417969 1122.3125 610.972656 1115.054688 613.628906 C 1080.710938 626.136719 1081.035156 672.335938 1080.84375 702.144531 C 1080.128906 809.257812 1077.992188 861.292969 1077.472656 872.503906 L 1076.953125 872.503906 C 1076.433594 861.230469 1074.296875 809.257812 1073.585938 702.144531 C 1073.390625 672.335938 1073.714844 626.136719 1039.371094 613.628906 C 1032.113281 611.035156 1024.59375 609.480469 1017.726562 608.960938 C 1036.972656 607.601562 1061.660156 597.816406 1070.019531 579.15625 C 1074.101562 570.082031 1076.695312 558.742188 1077.214844 548.503906 C 1077.796875 558.742188 1080.386719 570.082031 1084.472656 579.15625 C 1092.828125 597.816406 1117.453125 607.601562 1136.699219 608.960938 Z M 1136.699219 608.960938 " fill-opacity="1" fill-rule="nonzero"/></g></svg>